Flux_v1.0 (Autosaved).glyphspackage
{
glyphname = comma;
lastChange = "2024-09-03 16:53:15 +0000";
layers = (
{
hints = (
{
horizontal = 1;
origin = (0,24);
target = (0,31);
type = Stem;
},
{
horizontal = 1;
origin = (0,24);
target = (0,16);
type = Stem;
},
{
origin = (0,28);
target = (0,20);
type = Stem;
},
{
origin = (0,20);
target = (0,12);
type = Stem;
}
);
layerId = "B9294602-EB87-4DCD-A39F-D52598F560AD";
shapes = (
{
closed = 1;
nodes = (
(94,-115,ls),
(123,-115,o),
(145,-93,o),
(145,-64,cs),
(145,-51,ls),
(145,-22,o),
(167,0,o),
(196,0,cs),
(209,0,ls),
(238,0,o),
(260,22,o),
(260,51,cs),
(260,64,ls),
(260,93,o),
(238,115,o),
(209,115,cs),
(197,115,ls),
(168,115,o),
(145,93,o),
(145,64,cs),
(145,51,ls),
(145,22,o),
(123,0,o),
(94,0,cs),
(81,0,ls),
(52,0,o),
(30,-22,o),
(30,-51,cs),
(30,-64,ls),
(30,-93,o),
(52,-115,o),
(81,-115,cs)
);
}
);
width = 290;
},
{
.lastUpdate = 747075195.434;
hints = (
{
horizontal = 1;
origin = (0,0);
target = (0,24);
type = Stem;
},
{
horizontal = 1;
origin = (0,24);
target = (0,16);
type = Stem;
},
{
origin = (0,28);
target = (0,20);
type = Stem;
},
{
origin = (0,20);
target = (0,12);
type = Stem;
}
);
layerId = "52F3452F-C0C6-4900-9BFE-1786415B207F";
shapes = (
{
closed = 1;
nodes = (
(94,-115,ls),
(123,-115,o),
(145,-93,o),
(145,-64,cs),
(145,-51,ls),
(145,-22,o),
(167,0,o),
(196,0,cs),
(209,0,ls),
(238,0,o),
(260,22,o),
(260,51,cs),
(260,64,ls),
(260,93,o),
(238,115,o),
(209,115,cs),
(197,115,ls),
(168,115,o),
(145,93,o),
(145,64,cs),
(145,51,ls),
(145,22,o),
(123,0,o),
(94,0,cs),
(81,0,ls),
(52,0,o),
(30,-22,o),
(30,-51,cs),
(30,-64,ls),
(30,-93,o),
(52,-115,o),
(81,-115,cs)
);
}
);
width = 290;
}
);
unicode = 44;
}
{
glyphname = hyphen;
lastChange = "2024-09-03 14:20:36 +0000";
layers = (
{
hints = (
{
horizontal = 1;
origin = (0,4);
target = (0,12);
type = Stem;
}
);
layerId = "B9294602-EB87-4DCD-A39F-D52598F560AD";
shapes = (
{
closed = 1;
nodes = (
(30,283,ls),
(30,254,o),
(52,232,o),
(81,232,cs),
(324,232,ls),
(353,232,o),
(375,254,o),
(375,283,cs),
(375,296,ls),
(375,325,o),
(353,347,o),
(324,347,cs),
(81,347,ls),
(52,347,o),
(30,325,o),
(30,296,cs)
);
}
);
width = 405;
},
{
hints = (
{
horizontal = 1;
origin = (0,4);
target = (0,12);
type = Stem;
},
{
origin = (0,15);
target = (0,8);
type = Stem;
}
);
layerId = "52F3452F-C0C6-4900-9BFE-1786415B207F";
shapes = (
{
closed = 1;
nodes = (
(30,283,ls),
(30,254,o),
(52,232,o),
(81,232,cs),
(324,232,ls),
(353,232,o),
(375,254,o),
(375,283,cs),
(375,296,ls),
(375,325,o),
(353,347,o),
(324,347,cs),
(81,347,ls),
(52,347,o),
(30,325,o),
(30,296,cs)
);
}
);
width = 405;
}
);
unicode = 45;
}
{
glyphname = period;
lastChange = "2024-09-03 14:20:36 +0000";
layers = (
{
hints = (
{
horizontal = 1;
origin = (0,4);
target = (0,12);
type = Stem;
},
{
origin = (0,15);
target = (0,8);
type = Stem;
}
);
layerId = "B9294602-EB87-4DCD-A39F-D52598F560AD";
shapes = (
{
closed = 1;
nodes = (
(30,51,ls),
(30,22,o),
(52,0,o),
(81,0,cs),
(94,0,ls),
(123,0,o),
(145,22,o),
(145,51,cs),
(145,64,ls),
(145,93,o),
(123,115,o),
(94,115,cs),
(81,115,ls),
(52,115,o),
(30,93,o),
(30,64,cs)
);
}
);
width = 175;
},
{
hints = (
{
horizontal = 1;
origin = (0,4);
target = (0,12);
type = Stem;
},
{
origin = (0,15);
target = (0,8);
type = Stem;
}
);
layerId = "52F3452F-C0C6-4900-9BFE-1786415B207F";
shapes = (
{
closed = 1;
nodes = (
(30,51,ls),
(30,22,o),
(52,0,o),
(81,0,cs),
(94,0,ls),
(123,0,o),
(145,22,o),
(145,51,cs),
(145,64,ls),
(145,93,o),
(123,115,o),
(94,115,cs),
(81,115,ls),
(52,115,o),
(30,93,o),
(30,64,cs)
);
}
);
width = 175;
}
);
unicode = 46;
}
{
glyphname = zero;
lastChange = "2024-09-03 14:20:36 +0000";
layers = (
{
hints = (
{
horizontal = 1;
origin = (0,11);
target = (1,20);
type = Stem;
},
{
horizontal = 1;
origin = (1,12);
target = (2,12);
type = Stem;
},
{
horizontal = 1;
origin = (2,4);
target = (0,35);
type = Stem;
},
{
horizontal = 1;
origin = (2,12);
target = (2,20);
type = Stem;
},
{
origin = (0,47);
target = (2,23);
type = Stem;
},
{
origin = (2,8);
target = (0,23);
type = Stem;
}
);
layerId = "B9294602-EB87-4DCD-A39F-D52598F560AD";
shapes = (
{
closed = 1;
nodes = (
(30,137,o),
(52,115,o),
(81,115,cs),
(94,115,ls),
(123,115,o),
(145,93,o),
(145,64,cs),
(145,51,ls),
(145,22,o),
(167,0,o),
(196,0,cs),
(323,0,ls),
(352,0,o),
(375,22,o),
(375,51,cs),
(375,64,ls),
(375,93,o),
(397,115,o),
(426,115,cs),
(439,115,ls),
(468,115,o),
(490,137,o),
(490,166,cs),
(490,524,ls),
(490,553,o),
(468,575,o),
(439,575,cs),
(426,575,ls),
(397,575,o),
(375,597,o),
(375,626,cs),
(375,639,ls),
(375,668,o),
(352,690,o),
(323,690,cs),
(196,690,ls),
(167,690,o),
(145,668,o),
(145,639,cs),
(145,626,ls),
(145,597,o),
(123,575,o),
(94,575,cs),
(81,575,ls),
(52,575,o),
(30,553,o),
(30,524,cs),
(30,166,ls)
);
},
{
closed = 1;
nodes = (
(145,294,ls),
(145,323,o),
(167,345,o),
(196,345,cs),
(209,345,ls),
(238,345,o),
(260,323,o),
(260,294,cs),
(260,281,ls),
(260,252,o),
(283,230,o),
(311,230,cs),
(324,230,ls),
(353,230,o),
(375,208,o),
(375,179,cs),
(375,166,ls),
(375,137,o),
(353,115,o),
(324,115,cs),
(196,115,ls),
(167,115,o),
(145,137,o),
(145,166,cs)
);
},
{
closed = 1;
nodes = (
(145,524,ls),
(145,553,o),
(167,575,o),
(196,575,cs),
(324,575,ls),
(353,575,o),
(375,553,o),
(375,524,cs),
(375,396,ls),
(375,367,o),
(353,345,o),
(324,345,cs),
(311,345,ls),
(283,345,o),
(260,367,o),
(260,396,cs),
(260,409,ls),
(260,438,o),
(237,460,o),
(208,460,cs),
(196,460,ls),
(167,460,o),
(145,482,o),
(145,511,cs)
);
}
);
width = 520;
},
{
hints = (
{
horizontal = 1;
origin = (0,11);
target = (1,20);
type = Stem;
},
{
horizontal = 1;
origin = (2,12);
target = (2,20);
type = Stem;
},
{
horizontal = 1;
origin = (2,4);
target = (0,35);
type = Stem;
},
{
horizontal = 1;
origin = (1,12);
target = (2,12);
type = Stem;
},
{
origin = (0,47);
target = (2,23);
type = Stem;
},
{
origin = (2,8);
target = (0,23);
type = Stem;
}
);
layerId = "52F3452F-C0C6-4900-9BFE-1786415B207F";
shapes = (
{
closed = 1;
nodes = (
(30,137,o),
(52,115,o),
(81,115,cs),
(94,115,ls),
(123,115,o),
(145,93,o),
(145,64,cs),
(145,51,ls),
(145,22,o),
(167,0,o),
(196,0,cs),
(1331,0,ls),
(1360,0,o),
(1383,22,o),
(1383,51,cs),
(1383,64,ls),
(1383,93,o),
(1405,115,o),
(1434,115,cs),
(1447,115,ls),
(1476,115,o),
(1498,137,o),
(1498,166,cs),
(1498,524,ls),
(1498,553,o),
(1476,575,o),
(1447,575,cs),
(1434,575,ls),
(1405,575,o),
(1383,597,o),
(1383,626,cs),
(1383,639,ls),
(1383,668,o),
(1360,690,o),
(1331,690,cs),
(196,690,ls),
(167,690,o),
(145,668,o),
(145,639,cs),
(145,626,ls),
(145,597,o),
(123,575,o),
(94,575,cs),
(81,575,ls),
(52,575,o),
(30,553,o),
(30,524,cs),
(30,166,ls)
);
},
{
closed = 1;
nodes = (
(145,294,ls),
(145,323,o),
(167,345,o),
(196,345,cs),
(757,345,ls),
(786,345,o),
(808,323,o),
(808,294,cs),
(808,281,ls),
(808,252,o),
(831,230,o),
(859,230,cs),
(1332,230,ls),
(1361,230,o),
(1383,208,o),
(1383,179,cs),
(1383,166,ls),
(1383,137,o),
(1361,115,o),
(1332,115,cs),
(196,115,ls),
(167,115,o),
(145,137,o),
(145,166,cs)
);
},
{
closed = 1;
nodes = (
(145,524,ls),
(145,553,o),
(167,575,o),
(196,575,cs),
(1332,575,ls),
(1361,575,o),
(1383,553,o),
(1383,524,cs),
(1383,396,ls),
(1383,367,o),
(1361,345,o),
(1332,345,cs),
(859,345,ls),
(831,345,o),
(808,367,o),
(808,396,cs),
(808,409,ls),
(808,438,o),
(785,460,o),
(756,460,cs),
(196,460,ls),
(167,460,o),
(145,482,o),
(145,511,cs)
);
}
);
width = 1528;
}
);
unicode = 48;
}
{
glyphname = one;
lastChange = "2024-09-03 14:20:36 +0000";
layers = (
{
hints = (
{
horizontal = 1;
origin = (0,23);
target = (0,15);
type = Stem;
},
{
origin = (0,27);
target = (0,3);
type = Stem;
}
);
layerId = "B9294602-EB87-4DCD-A39F-D52598F560AD";
shapes = (
{
closed = 1;
nodes = (
(353,0,o),
(375,22,o),
(375,51,cs),
(375,524,ls),
(375,553,o),
(353,575,o),
(324,575,cs),
(311,575,ls),
(282,575,o),
(260,597,o),
(260,626,cs),
(260,639,ls),
(260,668,o),
(238,690,o),
(209,690,cs),
(81,690,ls),
(52,690,o),
(30,668,o),
(30,639,cs),
(30,626,ls),
(30,597,o),
(52,575,o),
(81,575,cs),
(209,575,ls),
(238,575,o),
(260,553,o),
(260,524,cs),
(260,51,ls),
(260,22,o),
(282,0,o),
(311,0,cs),
(324,0,ls)
);
}
);
width = 405;
},
{
hints = (
{
horizontal = 1;
origin = (0,23);
target = (0,15);
type = Stem;
},
{
origin = (0,27);
target = (0,3);
type = Stem;
}
);
layerId = "52F3452F-C0C6-4900-9BFE-1786415B207F";
shapes = (
{
closed = 1;
nodes = (
(1476,0,o),
(1498,22,o),
(1498,51,cs),
(1498,524,ls),
(1498,553,o),
(1476,575,o),
(1447,575,cs),
(1434,575,ls),
(1405,575,o),
(1383,597,o),
(1383,626,cs),
(1383,639,ls),
(1383,668,o),
(1361,690,o),
(1332,690,cs),
(81,690,ls),
(52,690,o),
(30,668,o),
(30,639,cs),
(30,626,ls),
(30,597,o),
(52,575,o),
(81,575,cs),
(1332,575,ls),
(1361,575,o),
(1383,553,o),
(1383,524,cs),
(1383,51,ls),
(1383,22,o),
(1405,0,o),
(1434,0,cs),
(1447,0,ls)
);
}
);
width = 1528;
}
);
unicode = 49;
}
{
glyphname = two;
lastChange = "2024-09-03 16:50:39 +0000";
layers = (
{
hints = (
{
horizontal = 1;
origin = (0,3);
target = (0,11);
type = Stem;
},
{
horizontal = 1;
origin = (0,75);
target = (0,51);
type = Stem;
},
{
origin = (0,103);
target = (0,95);
type = Stem;
},
{
origin = (0,79);
target = (0,39);
type = Stem;
},
{
origin = (0,95);
target = (0,87);
type = Stem;
},
{
origin = (0,87);
target = (0,79);
type = Stem;
}
);
layerId = "B9294602-EB87-4DCD-A39F-D52598F560AD";
shapes = (
{
closed = 1;
nodes = (
(30,22,o),
(52,0,o),
(81,0,cs),
(439,0,ls),
(468,0,o),
(490,22,o),
(490,51,cs),
(490,64,ls),
(490,93,o),
(468,115,o),
(439,115,cs),
(196,115,ls),
(167,115,o),
(145,137,o),
(145,166,cs),
(145,179,ls),
(145,208,o),
(167,230,o),
(196,230,cs),
(209,230,ls),
(238,230,o),
(260,252,o),
(260,281,cs),
(260,294,ls),
(260,323,o),
(282,345,o),
(311,345,cs),
(324,345,ls),
(353,345,o),
(375,367,o),
(375,396,cs),
(375,409,ls),
(375,438,o),
(397,460,o),
(426,460,cs),
(439,460,ls),
(468,460,o),
(490,482,o),
(490,511,cs),
(490,524,ls),
(490,553,o),
(468,575,o),
(439,575,cs),
(426,575,ls),
(397,575,o),
(375,597,o),
(375,626,cs),
(375,639,ls),
(375,668,o),
(353,690,o),
(324,690,cs),
(196,690,ls),
(167,690,o),
(145,668,o),
(145,639,cs),
(145,626,ls),
(145,597,o),
(123,575,o),
(94,575,cs),
(81,575,ls),
(52,575,o),
(30,553,o),
(30,524,cs),
(30,511,ls),
(30,482,o),
(52,460,o),
(81,460,cs),
(94,460,ls),
(123,460,o),
(145,482,o),
(145,511,cs),
(145,524,ls),
(145,553,o),
(167,575,o),
(196,575,cs),
(324,575,ls),
(375,575,o),
(375,553,o),
(375,524,cs),
(375,511,ls),
(375,482,o),
(353,460,o),
(324,460,cs),
(311,460,ls),
(282,460,o),
(260,438,o),
(260,409,cs),
(260,396,ls),
(260,367,o),
(238,345,o),
(209,345,cs),
(196,345,ls),
(167,345,o),
(145,323,o),
(145,294,cs),
(145,281,ls),
(145,252,o),
(123,230,o),
(94,230,cs),
(81,230,ls),
(52,230,o),
(30,207,o),
(30,178,cs),
(30,51,ls)
);
}
);
width = 520;
},
{
hints = (
{
horizontal = 1;
origin = (0,3);
target = (0,11);
type = Stem;
},
{
horizontal = 1;
origin = (0,99);
target = (0,91);
type = Stem;
},
{
horizontal = 1;
origin = (0,75);
target = (0,51);
type = Stem;
},
{
horizontal = 1;
origin = (0,91);
target = (0,83);
type = Stem;
},
{
origin = (0,103);
target = (0,95);
type = Stem;
},
{
origin = (0,79);
target = (0,39);
type = Stem;
}
);
layerId = "52F3452F-C0C6-4900-9BFE-1786415B207F";
shapes = (
{
closed = 1;
nodes = (
(30,22,o),
(52,0,o),
(81,0,cs),
(1447,0,ls),
(1476,0,o),
(1498,22,o),
(1498,51,cs),
(1498,64,ls),
(1498,93,o),
(1476,115,o),
(1447,115,cs),
(196,115,ls),
(167,115,o),
(145,137,o),
(145,166,cs),
(145,179,ls),
(145,208,o),
(167,230,o),
(196,230,cs),
(757,230,ls),
(786,230,o),
(808,252,o),
(808,281,cs),
(808,294,ls),
(808,323,o),
(830,345,o),
(859,345,cs),
(1332,345,ls),
(1361,345,o),
(1383,367,o),
(1383,396,cs),
(1383,409,ls),
(1383,438,o),
(1405,460,o),
(1434,460,cs),
(1447,460,ls),
(1476,460,o),
(1498,482,o),
(1498,511,cs),
(1498,524,ls),
(1498,553,o),
(1476,575,o),
(1447,575,cs),
(1434,575,ls),
(1405,575,o),
(1383,597,o),
(1383,626,cs),
(1383,639,ls),
(1383,668,o),
(1361,690,o),
(1332,690,cs),
(196,690,ls),
(167,690,o),
(145,668,o),
(145,639,cs),
(145,626,ls),
(145,597,o),
(123,575,o),
(94,575,cs),
(81,575,ls),
(52,575,o),
(30,553,o),
(30,524,cs),
(30,511,ls),
(30,482,o),
(52,460,o),
(81,460,cs),
(94,460,ls),
(123,460,o),
(145,482,o),
(145,511,cs),
(145,524,ls),
(145,553,o),
(167,575,o),
(196,575,cs),
(1332,575,ls),
(1383,575,o),
(1383,553,o),
(1383,524,cs),
(1383,511,ls),
(1383,482,o),
(1361,460,o),
(1332,460,cs),
(859,460,ls),
(830,460,o),
(808,438,o),
(808,409,cs),
(808,396,ls),
(808,367,o),
(786,345,o),
(757,345,cs),
(196,345,ls),
(167,345,o),
(145,323,o),
(145,294,cs),
(145,281,ls),
(145,252,o),
(123,230,o),
(94,230,cs),
(81,230,ls),
(52,230,o),
(30,207,o),
(30,178,cs),
(30,51,ls)
);
}
);
width = 1528;
}
);
unicode = 50;
}
{
glyphname = four;
lastChange = "2024-09-03 16:51:19 +0000";
layers = (
{
.lastUpdate = 747064387.864;
hints = (
{
origin = (0,22);
target = (0,30);
type = Stem;
},
{
horizontal = 1;
origin = (0,11);
target = (0,34);
type = Stem;
},
{
origin = (0,6);
target = (0,46);
type = Stem;
}
);
layerId = "B9294602-EB87-4DCD-A39F-D52598F560AD";
shapes = (
{
closed = 1;
nodes = (
(490,22,o),
(468,0,o),
(439,0,cs),
(426,0,ls),
(397,0,o),
(375,22,o),
(375,51,cs),
(375,178,ls),
(375,207,o),
(353,228,o),
(324,228,cs),
(196,228,ls),
(167,228,o),
(145,251,o),
(145,280,cs),
(145,292,ls),
(145,321,o),
(123,345,o),
(94,345,cs),
(81,345,ls),
(52,345,o),
(30,365,o),
(30,394,cs),
(30,639,ls),
(30,668,o),
(52,690,o),
(81,690,cs),
(94,690,ls),
(123,690,o),
(145,668,o),
(145,639,cs),
(145,394,ls),
(145,365,o),
(167,343,o),
(196,343,cs),
(324,343,ls),
(353,343,o),
(375,366,o),
(375,395,cs),
(375,639,ls),
(375,668,o),
(397,690,o),
(426,690,cs),
(439,690,ls),
(468,690,o),
(490,668,o),
(490,639,cs),
(490,51,ls)
);
}
);
width = 520;
},
{
.lastUpdate = 747075079.386;
hints = (
{
horizontal = 1;
origin = (0,10);
target = (0,34);
type = Stem;
},
{
origin = (0,22);
target = (0,30);
type = Stem;
},
{
origin = (0,6);
target = (0,46);
type = Stem;
}
);
layerId = "52F3452F-C0C6-4900-9BFE-1786415B207F";
shapes = (
{
closed = 1;
nodes = (
(1498,22,o),
(1476,0,o),
(1447,0,cs),
(1434,0,ls),
(1405,0,o),
(1383,22,o),
(1383,51,cs),
(1383,178,ls),
(1383,207,o),
(1361,228,o),
(1332,228,cs),
(196,228,ls),
(167,228,o),
(145,251,o),
(145,280,cs),
(145,292,ls),
(145,321,o),
(123,345,o),
(94,345,cs),
(81,345,ls),
(52,345,o),
(30,365,o),
(30,394,cs),
(30,639,ls),
(30,668,o),
(52,690,o),
(81,690,cs),
(94,690,ls),
(123,690,o),
(145,668,o),
(145,639,cs),
(145,394,ls),
(145,365,o),
(167,343,o),
(196,343,cs),
(1332,343,ls),
(1361,343,o),
(1383,366,o),
(1383,395,cs),
(1383,639,ls),
(1383,668,o),
(1405,690,o),
(1434,690,cs),
(1447,690,ls),
(1476,690,o),
(1498,668,o),
(1498,639,cs),
(1498,51,ls)
);
}
);
width = 1528;
}
);
unicode = 52;
}
{
glyphname = five;
lastChange = "2024-09-03 16:51:24 +0000";
layers = (
{
.lastUpdate = 747064424.402;
hints = (
{
horizontal = 1;
origin = (0,67);
target = (0,35);
type = Stem;
},
{
horizontal = 1;
origin = (0,59);
target = (0,51);
type = Stem;
},
{
horizontal = 1;
origin = (0,11);
target = (0,75);
type = Stem;
},
{
origin = (0,87);
target = (0,79);
type = Stem;
},
{
origin = (0,71);
target = (0,47);
type = Stem;
}
);
layerId = "B9294602-EB87-4DCD-A39F-D52598F560AD";
shapes = (
{
closed = 1;
nodes = (
(30,137,o),
(52,115,o),
(81,115,cs),
(94,115,ls),
(123,115,o),
(145,93,o),
(145,64,cs),
(145,51,ls),
(145,22,o),
(167,0,o),
(196,0,cs),
(324,0,ls),
(353,0,o),
(375,22,o),
(375,51,cs),
(375,64,ls),
(375,93,o),
(397,115,o),
(426,115,cs),
(439,115,ls),
(468,115,o),
(490,137,o),
(490,166,cs),
(490,294,ls),
(490,323,o),
(468,345,o),
(439,345,cs),
(426,345,ls),
(397,345,o),
(375,367,o),
(375,396,cs),
(375,409,ls),
(375,438,o),
(353,460,o),
(324,460,cs),
(196,460,ls),
(167,460,o),
(145,482,o),
(145,511,cs),
(145,524,ls),
(145,553,o),
(167,575,o),
(196,575,cs),
(439,575,ls),
(468,575,o),
(490,597,o),
(490,626,cs),
(490,639,ls),
(490,668,o),
(468,690,o),
(439,690,cs),
(196,690,ls),
(167,690,o),
(145,668,o),
(145,639,cs),
(145,626,ls),
(145,597,o),
(123,575,o),
(94,575,cs),
(81,575,ls),
(52,575,o),
(30,553,o),
(30,524,cs),
(30,396,ls),
(30,367,o),
(52,345,o),
(81,345,cs),
(324,345,ls),
(353,345,o),
(375,323,o),
(375,294,cs),
(375,166,ls),
(375,137,o),
(353,115,o),
(324,115,cs),
(196,115,ls),
(167,115,o),
(145,137,o),
(145,166,cs),
(145,179,ls),
(145,208,o),
(123,230,o),
(94,230,cs),
(81,230,ls),
(52,230,o),
(30,208,o),
(30,179,cs),
(30,166,ls)
);
}
);
width = 520;
},
{
.lastUpdate = 747064429.821;
hints = (
{
horizontal = 1;
origin = (0,67);
target = (0,35);
type = Stem;
},
{
horizontal = 1;
origin = (0,59);
target = (0,51);
type = Stem;
},
{
horizontal = 1;
origin = (0,11);
target = (0,75);
type = Stem;
},
{
origin = (0,87);
target = (0,79);
type = Stem;
},
{
origin = (0,71);
target = (0,47);
type = Stem;
}
);
layerId = "52F3452F-C0C6-4900-9BFE-1786415B207F";
shapes = (
{
closed = 1;
nodes = (
(30,137,o),
(52,115,o),
(81,115,cs),
(94,115,ls),
(123,115,o),
(145,93,o),
(145,64,cs),
(145,51,ls),
(145,22,o),
(167,0,o),
(196,0,cs),
(1332,0,ls),
(1361,0,o),
(1383,22,o),
(1383,51,cs),
(1383,64,ls),
(1383,93,o),
(1405,115,o),
(1434,115,cs),
(1447,115,ls),
(1476,115,o),
(1498,137,o),
(1498,166,cs),
(1498,294,ls),
(1498,323,o),
(1476,345,o),
(1447,345,cs),
(1434,345,ls),
(1405,345,o),
(1383,367,o),
(1383,396,cs),
(1383,409,ls),
(1383,438,o),
(1361,460,o),
(1332,460,cs),
(196,460,ls),
(167,460,o),
(145,482,o),
(145,511,cs),
(145,524,ls),
(145,553,o),
(167,575,o),
(196,575,cs),
(1447,575,ls),
(1476,575,o),
(1498,597,o),
(1498,626,cs),
(1498,639,ls),
(1498,668,o),
(1476,690,o),
(1447,690,cs),
(196,690,ls),
(167,690,o),
(145,668,o),
(145,639,cs),
(145,626,ls),
(145,597,o),
(123,575,o),
(94,575,cs),
(81,575,ls),
(52,575,o),
(30,553,o),
(30,524,cs),
(30,396,ls),
(30,367,o),
(52,345,o),
(81,345,cs),
(1332,345,ls),
(1361,345,o),
(1383,323,o),
(1383,294,cs),
(1383,166,ls),
(1383,137,o),
(1361,115,o),
(1332,115,cs),
(196,115,ls),
(167,115,o),
(145,137,o),
(145,166,cs),
(145,179,ls),
(145,208,o),
(123,230,o),
(94,230,cs),
(81,230,ls),
(52,230,o),
(30,208,o),
(30,179,cs),
(30,166,ls)
);
}
);
width = 1528;
}
);
unicode = 53;
}
{
glyphname = seven;
lastChange = "2024-09-03 14:20:36 +0000";
layers = (
{
hints = (
{
horizontal = 1;
origin = (0,56);
target = (0,48);
type = Stem;
},
{
horizontal = 1;
origin = (0,40);
target = (0,32);
type = Stem;
},
{
horizontal = 1;
origin = (0,64);
target = (0,56);
type = Stem;
},
{
origin = (0,68);
target = (0,60);
type = Stem;
},
{
origin = (0,44);
target = (0,28);
type = Stem;
}
);
layerId = "B9294602-EB87-4DCD-A39F-D52598F560AD";
shapes = (
{
closed = 1;
nodes = (
(94,0,ls),
(123,0,o),
(145,22,o),
(145,51,cs),
(145,179,ls),
(145,208,o),
(167,230,o),
(196,230,cs),
(209,230,ls),
(238,230,o),
(260,252,o),
(260,281,cs),
(260,294,ls),
(260,323,o),
(282,345,o),
(311,345,cs),
(324,345,ls),
(353,345,o),
(375,367,o),
(375,396,cs),
(375,409,ls),
(375,438,o),
(397,460,o),
(426,460,cs),
(439,460,ls),
(468,460,o),
(490,482,o),
(490,511,cs),
(490,639,ls),
(490,668,o),
(468,690,o),
(439,690,cs),
(95,690,ls),
(66,690,o),
(44,668,o),
(44,639,cs),
(44,626,ls),
(44,597,o),
(66,575,o),
(95,575,cs),
(324,575,ls),
(353,575,o),
(375,553,o),
(375,524,cs),
(375,511,ls),
(375,482,o),
(353,460,o),
(324,460,cs),
(311,460,ls),
(282,460,o),
(260,438,o),
(260,409,cs),
(260,396,ls),
(260,367,o),
(238,345,o),
(209,345,cs),
(196,345,ls),
(167,345,o),
(145,323,o),
(145,294,cs),
(145,281,ls),
(145,252,o),
(123,230,o),
(94,230,cs),
(81,230,ls),
(52,230,o),
(30,207,o),
(30,178,cs),
(30,51,ls),
(30,22,o),
(52,0,o),
(81,0,cs)
);
}
);
width = 520;
},
{
hints = (
{
horizontal = 1;
origin = (0,64);
target = (0,56);
type = Stem;
},
{
horizontal = 1;
origin = (0,40);
target = (0,32);
type = Stem;
},
{
horizontal = 1;
origin = (0,56);
target = (0,48);
type = Stem;
},
{
origin = (0,68);
target = (0,60);
type = Stem;
},
{
origin = (0,44);
target = (0,28);
type = Stem;
}
);
layerId = "52F3452F-C0C6-4900-9BFE-1786415B207F";
shapes = (
{
closed = 1;
nodes = (
(94,0,ls),
(123,0,o),
(145,22,o),
(145,51,cs),
(145,179,ls),
(145,208,o),
(167,230,o),
(196,230,cs),
(728,230,ls),
(757,230,o),
(779,252,o),
(779,281,cs),
(779,294,ls),
(779,323,o),
(802,345,o),
(830,345,cs),
(1332,345,ls),
(1361,345,o),
(1383,367,o),
(1383,396,cs),
(1383,409,ls),
(1383,438,o),
(1405,460,o),
(1434,460,cs),
(1447,460,ls),
(1476,460,o),
(1498,482,o),
(1498,511,cs),
(1498,639,ls),
(1498,668,o),
(1476,690,o),
(1447,690,cs),
(95,690,ls),
(66,690,o),
(44,668,o),
(44,639,cs),
(44,626,ls),
(44,597,o),
(66,575,o),
(95,575,cs),
(1332,575,ls),
(1361,575,o),
(1383,553,o),
(1383,524,cs),
(1383,511,ls),
(1383,482,o),
(1361,460,o),
(1332,460,cs),
(830,460,ls),
(802,460,o),
(779,438,o),
(779,409,cs),
(779,396,ls),
(779,367,o),
(757,345,o),
(728,345,cs),
(196,345,ls),
(167,345,o),
(145,323,o),
(145,294,cs),
(145,281,ls),
(145,252,o),
(123,230,o),
(94,230,cs),
(81,230,ls),
(52,230,o),
(30,207,o),
(30,178,cs),
(30,51,ls),
(30,22,o),
(52,0,o),
(81,0,cs)
);
}
);
width = 1528;
}
);
unicode = 55;
}
{
glyphname = eight;
lastChange = "2024-09-03 16:52:32 +0000";
layers = (
{
hints = (
{
horizontal = 1;
origin = (2,4);
target = (0,51);
type = Stem;
},
{
horizontal = 1;
origin = (0,11);
target = (1,12);
type = Stem;
},
{
horizontal = 1;
origin = (1,4);
target = (2,12);
type = Stem;
},
{
origin = (0,79);
target = (2,15);
type = Stem;
},
{
origin = (2,8);
target = (0,39);
type = Stem;
}
);
layerId = "B9294602-EB87-4DCD-A39F-D52598F560AD";
shapes = (
{
closed = 1;
nodes = (
(30,137,o),
(52,115,o),
(81,115,cs),
(94,115,ls),
(123,115,o),
(145,93,o),
(145,64,cs),
(145,51,ls),
(145,22,o),
(167,0,o),
(196,0,cs),
(324,0,ls),
(353,0,o),
(375,22,o),
(375,51,cs),
(375,64,ls),
(375,93,o),
(397,115,o),
(426,115,cs),
(439,115,ls),
(468,115,o),
(490,137,o),
(490,166,cs),
(490,294,ls),
(490,323,o),
(468,345,o),
(439,345,cs),
(426,345,ls),
(397,345,o),
(375,367,o),
(375,396,cs),
(375,409,ls),
(375,438,o),
(397,460,o),
(426,460,cs),
(440,460,ls),
(469,460,o),
(490,482,o),
(490,511,cs),
(490,524,ls),
(490,553,o),
(469,575,o),
(440,575,cs),
(427,575,ls),
(398,575,o),
(376,597,o),
(376,626,cs),
(376,639,ls),
(376,668,o),
(353,690,o),
(324,690,cs),
(196,690,ls),
(167,690,o),
(145,668,o),
(145,639,cs),
(145,626,ls),
(145,597,o),
(123,575,o),
(94,575,cs),
(81,575,ls),
(52,575,o),
(30,553,o),
(30,524,cs),
(30,511,ls),
(30,482,o),
(52,460,o),
(81,460,cs),
(94,460,ls),
(123,460,o),
(145,438,o),
(145,409,cs),
(145,396,ls),
(145,367,o),
(123,345,o),
(94,345,cs),
(81,345,ls),
(52,345,o),
(30,323,o),
(30,294,cs),
(30,166,ls)
);
},
{
closed = 1;
nodes = (
(145,294,ls),
(145,323,o),
(167,345,o),
(196,345,cs),
(324,345,ls),
(353,345,o),
(375,323,o),
(375,294,cs),
(375,166,ls),
(375,137,o),
(353,115,o),
(324,115,cs),
(196,115,ls),
(167,115,o),
(145,137,o),
(145,166,cs)
);
},
{
closed = 1;
nodes = (
(145,524,ls),
(145,553,o),
(167,575,o),
(196,575,cs),
(325,575,ls),
(351,575,o),
(375,553,o),
(375,524,c),
(375,511,ls),
(375,482,o),
(353,460,o),
(324,460,cs),
(196,460,ls),
(167,460,o),
(145,482,o),
(145,511,cs)
);
}
);
width = 520;
},
{
hints = (
{
horizontal = 1;
origin = (2,4);
target = (0,51);
type = Stem;
},
{
horizontal = 1;
origin = (0,11);
target = (1,12);
type = Stem;
},
{
horizontal = 1;
origin = (1,4);
target = (2,12);
type = Stem;
},
{
origin = (0,79);
target = (2,15);
type = Stem;
},
{
origin = (2,8);
target = (0,39);
type = Stem;
}
);
layerId = "52F3452F-C0C6-4900-9BFE-1786415B207F";
shapes = (
{
closed = 1;
nodes = (
(30,137,o),
(52,115,o),
(81,115,cs),
(94,115,ls),
(123,115,o),
(145,93,o),
(145,64,cs),
(145,51,ls),
(145,22,o),
(167,0,o),
(196,0,cs),
(1332,0,ls),
(1361,0,o),
(1383,22,o),
(1383,51,cs),
(1383,64,ls),
(1383,93,o),
(1405,115,o),
(1434,115,cs),
(1447,115,ls),
(1476,115,o),
(1498,137,o),
(1498,166,cs),
(1498,294,ls),
(1498,323,o),
(1476,345,o),
(1447,345,cs),
(1434,345,ls),
(1405,345,o),
(1383,367,o),
(1383,396,cs),
(1383,409,ls),
(1383,438,o),
(1405,460,o),
(1434,460,cs),
(1448,460,ls),
(1477,460,o),
(1498,482,o),
(1498,511,cs),
(1498,524,ls),
(1498,553,o),
(1477,575,o),
(1448,575,cs),
(1435,575,ls),
(1406,575,o),
(1384,597,o),
(1384,626,cs),
(1384,639,ls),
(1384,668,o),
(1361,690,o),
(1332,690,cs),
(196,690,ls),
(167,690,o),
(145,668,o),
(145,639,cs),
(145,626,ls),
(145,597,o),
(123,575,o),
(94,575,cs),
(81,575,ls),
(52,575,o),
(30,553,o),
(30,524,cs),
(30,511,ls),
(30,482,o),
(52,460,o),
(81,460,cs),
(94,460,ls),
(123,460,o),
(145,438,o),
(145,409,cs),
(145,396,ls),
(145,367,o),
(123,345,o),
(94,345,cs),
(81,345,ls),
(52,345,o),
(30,323,o),
(30,294,cs),
(30,166,ls)
);
},
{
closed = 1;
nodes = (
(145,294,ls),
(145,323,o),
(167,345,o),
(196,345,cs),
(1332,345,ls),
(1361,345,o),
(1383,323,o),
(1383,294,cs),
(1383,166,ls),
(1383,137,o),
(1361,115,o),
(1332,115,cs),
(196,115,ls),
(167,115,o),
(145,137,o),
(145,166,cs)
);
},
{
closed = 1;
nodes = (
(145,524,ls),
(145,553,o),
(167,575,o),
(196,575,cs),
(1333,575,ls),
(1359,575,o),
(1383,553,o),
(1383,524,c),
(1383,511,ls),
(1383,482,o),
(1361,460,o),
(1332,460,cs),
(196,460,ls),
(167,460,o),
(145,482,o),
(145,511,cs)
);
}
);
width = 1528;
}
);
unicode = 56;
}
{
glyphname = nine;
lastChange = "2024-09-03 14:20:36 +0000";
layers = (
{
hints = (
{
horizontal = 1;
origin = (0,44);
target = (0,52);
type = Stem;
},
{
horizontal = 1;
origin = (0,28);
target = (1,4);
type = Stem;
},
{
horizontal = 1;
origin = (1,12);
target = (0,4);
type = Stem;
},
{
origin = (0,16);
target = (1,8);
type = Stem;
},
{
origin = (1,15);
target = (0,59);
type = Stem;
}
);
layerId = "B9294602-EB87-4DCD-A39F-D52598F560AD";
shapes = (
{
closed = 1;
nodes = (
(490,639,ls),
(490,668,o),
(468,690,o),
(439,690,cs),
(196,690,ls),
(167,690,o),
(145,668,o),
(145,639,cs),
(145,626,ls),
(145,597,o),
(123,575,o),
(94,575,cs),
(81,575,ls),
(52,575,o),
(30,553,o),
(30,524,cs),
(30,396,ls),
(30,367,o),
(52,345,o),
(81,345,cs),
(94,345,ls),
(123,345,o),
(145,323,o),
(145,294,cs),
(145,281,ls),
(145,252,o),
(167,230,o),
(196,230,cs),
(324,230,ls),
(353,230,o),
(375,208,o),
(375,179,cs),
(375,166,ls),
(375,137,o),
(353,115,o),
(324,115,cs),
(85,115,ls),
(56,115,o),
(34,93,o),
(34,64,cs),
(34,51,ls),
(34,22,o),
(56,0,o),
(85,0,cs),
(324,0,ls),
(353,0,o),
(375,22,o),
(375,51,cs),
(375,64,ls),
(375,93,o),
(397,115,o),
(426,115,cs),
(439,115,ls),
(468,115,o),
(490,137,o),
(490,166,cs),
(490,179,ls),
(490,208,o),
(490,367,o),
(490,396,cs)
);
},
{
closed = 1;
nodes = (
(375,396,ls),
(375,367,o),
(353,345,o),
(324,345,cs),
(196,345,ls),
(167,345,o),
(145,367,o),
(145,396,cs),
(145,524,ls),
(145,553,o),
(167,575,o),
(196,575,cs),
(324,575,ls),
(353,575,o),
(375,553,o),
(375,524,cs)
);
}
);
width = 520;
},
{
hints = (
{
horizontal = 1;
origin = (0,44);
target = (0,52);
type = Stem;
},
{
horizontal = 1;
origin = (0,28);
target = (1,4);
type = Stem;
},
{
horizontal = 1;
origin = (1,12);
target = (0,4);
type = Stem;
},
{
origin = (0,16);
target = (1,8);
type = Stem;
},
{
origin = (1,15);
target = (0,59);
type = Stem;
}
);
layerId = "52F3452F-C0C6-4900-9BFE-1786415B207F";
shapes = (
{
closed = 1;
nodes = (
(1498,639,ls),
(1498,668,o),
(1476,690,o),
(1447,690,cs),
(196,690,ls),
(167,690,o),
(145,668,o),
(145,639,cs),
(145,626,ls),
(145,597,o),
(123,575,o),
(94,575,cs),
(81,575,ls),
(52,575,o),
(30,553,o),
(30,524,cs),
(30,396,ls),
(30,367,o),
(52,345,o),
(81,345,cs),
(94,345,ls),
(123,345,o),
(145,323,o),
(145,294,cs),
(145,281,ls),
(145,252,o),
(167,230,o),
(196,230,cs),
(1332,230,ls),
(1361,230,o),
(1383,208,o),
(1383,179,cs),
(1383,166,ls),
(1383,137,o),
(1361,115,o),
(1332,115,cs),
(85,115,ls),
(56,115,o),
(34,93,o),
(34,64,cs),
(34,51,ls),
(34,22,o),
(56,0,o),
(85,0,cs),
(1332,0,ls),
(1361,0,o),
(1383,22,o),
(1383,51,cs),
(1383,64,ls),
(1383,93,o),
(1405,115,o),
(1434,115,cs),
(1447,115,ls),
(1476,115,o),
(1498,137,o),
(1498,166,cs),
(1498,179,ls),
(1498,208,o),
(1498,367,o),
(1498,396,cs)
);
},
{
closed = 1;
nodes = (
(1383,396,ls),
(1383,367,o),
(1361,345,o),
(1332,345,cs),
(196,345,ls),
(167,345,o),
(145,367,o),
(145,396,cs),
(145,524,ls),
(145,553,o),
(167,575,o),
(196,575,cs),
(1332,575,ls),
(1361,575,o),
(1383,553,o),
(1383,524,cs)
);
}
);
width = 1528;
}
);
unicode = 57;
}
{
glyphname = at;
lastChange = "2024-09-03 14:20:36 +0000";
layers = (
{
hints = (
{
horizontal = 1;
origin = (0,40);
target = (0,64);
type = Stem;
},
{
horizontal = 1;
origin = (0,96);
target = (1,3);
type = Stem;
},
{
horizontal = 1;
origin = (0,119);
target = (0,80);
type = Stem;
},
{
horizontal = 1;
origin = (0,119);
target = (1,11);
type = Stem;
},
{
horizontal = 1;
origin = (0,80);
target = (0,16);
type = Stem;
},
{
horizontal = 1;
origin = (0,64);
target = (0,96);
type = Stem;
},
{
horizontal = 1;
origin = (1,3);
target = (1,11);
type = Stem;
},
{
origin = (0,28);
target = (0,68);
type = Stem;
},
{
origin = (0,92);
target = (1,7);
type = Stem;
},
{
origin = (1,15);
target = (0,108);
type = Stem;
},
{
origin = (0,92);
target = (0,116);
type = Stem;
}
);
layerId = "B9294602-EB87-4DCD-A39F-D52598F560AD";
shapes = (
{
closed = 1;
nodes = (
(554,575,ls),
(583,575,o),
(604,597,o),
(604,626,cs),
(604,639,ls),
(604,668,o),
(582,690,o),
(553,690,cs),
(540,690,ls),
(511,690,o),
(489,712,o),
(489,741,cs),
(489,754,ls),
(489,783,o),
(467,805,o),
(438,805,cs),
(310,805,ls),
(281,805,o),
(259,783,o),
(259,754,cs),
(259,741,ls),
(259,712,o),
(237,690,o),
(208,690,cs),
(81,690,ls),
(52,690,o),
(30,668,o),
(30,639,cs),
(30,165,ls),
(30,136,o),
(52,114,o),
(81,114,cs),
(94,114,ls),
(126,114,o),
(145,92,o),
(145,64,cs),
(145,51,ls),
(145,22,o),
(168,0,o),
(197,0,cs),
(439,0,ls),
(468,0,o),
(490,22,o),
(490,51,cs),
(490,64,ls),
(490,96,o),
(512,115,o),
(540,115,cs),
(553,115,ls),
(582,115,o),
(604,138,o),
(604,167,cs),
(604,179,ls),
(604,208,o),
(582,230,o),
(553,230,cs),
(540,230,ls),
(511,230,o),
(489,208,o),
(489,179,cs),
(489,166,ls),
(489,136,o),
(467,115,o),
(438,115,cs),
(196,115,ls),
(167,115,o),
(145,137,o),
(145,166,cs),
(145,524,ls),
(145,553,o),
(167,575,o),
(196,575,cs),
(209,575,ls),
(238,575,o),
(259,597,o),
(259,626,cs),
(259,639,ls),
(259,674,o),
(281,690,o),
(310,690,cs),
(438,690,ls),
(467,690,o),
(489,668,o),
(489,639,cs),
(489,626,ls),
(489,597,o),
(467,575,o),
(438,575,cs),
(311,575,ls),
(282,575,o),
(260,553,o),
(260,524,cs),
(260,281,ls),
(260,252,o),
(282,230,o),
(311,230,cs),
(439,230,ls),
(468,230,o),
(490,252,o),
(490,281,cs),
(490,294,ls),
(490,323,o),
(512,345,o),
(541,345,cs),
(554,345,ls),
(583,345,o),
(604,367,o),
(604,396,cs),
(604,409,ls),
(604,438,o),
(583,460,o),
(554,460,cs),
(541,460,ls),
(512,460,o),
(490,482,o),
(490,511,cs),
(490,524,ls),
(490,553,o),
(512,575,o),
(541,575,cs)
);
},
{
closed = 1;
nodes = (
(489,367,o),
(468,345,o),
(439,345,cs),
(426,345,ls),
(397,345,o),
(375,367,o),
(375,396,cs),
(375,409,ls),
(375,438,o),
(397,460,o),
(426,460,cs),
(439,460,ls),
(468,460,o),
(489,438,o),
(489,409,cs),
(489,396,ls)
);
}
);
width = 634;
},
{
hints = (
{
horizontal = 1;
origin = (0,40);
target = (0,64);
type = Stem;
},
{
horizontal = 1;
origin = (0,96);
target = (1,3);
type = Stem;
},
{
horizontal = 1;
origin = (0,119);
target = (0,80);
type = Stem;
},
{
horizontal = 1;
origin = (0,119);
target = (1,11);
type = Stem;
},
{
horizontal = 1;
origin = (0,80);
target = (0,16);
type = Stem;
},
{
horizontal = 1;
origin = (0,64);
target = (0,96);
type = Stem;
},
{
horizontal = 1;
origin = (1,3);
target = (1,11);
type = Stem;
},
{
origin = (0,28);
target = (0,68);
type = Stem;
},
{
origin = (0,92);
target = (1,7);
type = Stem;
},
{
origin = (1,15);
target = (0,108);
type = Stem;
},
{
origin = (0,92);
target = (0,116);
type = Stem;
}
);
layerId = "52F3452F-C0C6-4900-9BFE-1786415B207F";
shapes = (
{
closed = 1;
nodes = (
(554,575,ls),
(583,575,o),
(604,597,o),
(604,626,cs),
(604,639,ls),
(604,668,o),
(582,690,o),
(553,690,cs),
(540,690,ls),
(511,690,o),
(489,712,o),
(489,741,cs),
(489,754,ls),
(489,783,o),
(467,805,o),
(438,805,cs),
(310,805,ls),
(281,805,o),
(259,783,o),
(259,754,cs),
(259,741,ls),
(259,712,o),
(237,690,o),
(208,690,cs),
(81,690,ls),
(52,690,o),
(30,668,o),
(30,639,cs),
(30,165,ls),
(30,136,o),
(52,114,o),
(81,114,cs),
(94,114,ls),
(126,114,o),
(145,92,o),
(145,64,cs),
(145,51,ls),
(145,22,o),
(168,0,o),
(197,0,cs),
(439,0,ls),
(468,0,o),
(490,22,o),
(490,51,cs),
(490,64,ls),
(490,96,o),
(512,115,o),
(540,115,cs),
(553,115,ls),
(582,115,o),
(604,138,o),
(604,167,cs),
(604,179,ls),
(604,208,o),
(582,230,o),
(553,230,cs),
(540,230,ls),
(511,230,o),
(489,208,o),
(489,179,cs),
(489,166,ls),
(489,136,o),
(467,115,o),
(438,115,cs),
(196,115,ls),
(167,115,o),
(145,137,o),
(145,166,cs),
(145,524,ls),
(145,553,o),
(167,575,o),
(196,575,cs),
(209,575,ls),
(238,575,o),
(259,597,o),
(259,626,cs),
(259,639,ls),
(259,674,o),
(281,690,o),
(310,690,cs),
(438,690,ls),
(467,690,o),
(489,668,o),
(489,639,cs),
(489,626,ls),
(489,597,o),
(467,575,o),
(438,575,cs),
(311,575,ls),
(282,575,o),
(260,553,o),
(260,524,cs),
(260,281,ls),
(260,252,o),
(282,230,o),
(311,230,cs),
(439,230,ls),
(468,230,o),
(490,252,o),
(490,281,cs),
(490,294,ls),
(490,323,o),
(512,345,o),
(541,345,cs),
(554,345,ls),
(583,345,o),
(604,367,o),
(604,396,cs),
(604,409,ls),
(604,438,o),
(583,460,o),
(554,460,cs),
(541,460,ls),
(512,460,o),
(490,482,o),
(490,511,cs),
(490,524,ls),
(490,553,o),
(512,575,o),
(541,575,cs)
);
},
{
closed = 1;
nodes = (
(489,367,o),
(468,345,o),
(439,345,cs),
(426,345,ls),
(397,345,o),
(375,367,o),
(375,396,cs),
(375,409,ls),
(375,438,o),
(397,460,o),
(426,460,cs),
(439,460,ls),
(468,460,o),
(489,438,o),
(489,409,cs),
(489,396,ls)
);
}
);
width = 634;
}
);
unicode = 64;
}
{
glyphname = A;
lastChange = "2024-09-03 14:21:37 +0000";
layers = (
{
.lastUpdate = 747064550.917;
hints = (
{
horizontal = 1;
origin = (1,3);
target = (0,66);
type = Stem;
},
{
horizontal = 1;
origin = (0,43);
target = (1,12);
type = Stem;
},
{
origin = (0,14);
target = (0,23);
type = Stem;
},
{
origin = (0,30);
target = (0,39);
type = Stem;
}
);
layerId = "B9294602-EB87-4DCD-A39F-D52598F560AD";
shapes = (
{
closed = 1;
nodes = (
(30,367,o),
(51,345,o),
(80,345,cs),
(93,345,ls),
(122,345,o),
(144,323,o),
(144,294,cs),
(144,281,ls),
(144,252,o),
(122,230,o),
(93,230,cs),
(81,230,ls),
(52,230,o),
(30,208,o),
(30,179,cs),
(30,51,ls),
(30,22,o),
(52,0,o),
(81,0,cs),
(94,0,ls),
(123,0,o),
(145,22,o),
(145,51,cs),
(145,179,ls),
(145,208,o),
(167,230,o),
(196,230,cs),
(324,230,ls),
(353,230,o),
(375,208,o),
(375,179,cs),
(375,51,ls),
(375,22,o),
(397,0,o),
(426,0,cs),
(439,0,ls),
(468,0,o),
(489,22,o),
(489,51,c),
(490,179,l),
(490,208,o),
(468,230,o),
(439,230,cs),
(426,230,ls),
(397,230,o),
(375,252,o),
(375,281,cs),
(375,294,l),
(375,329,o),
(397,345,o),
(425,345,cs),
(438,345,ls),
(467,345,o),
(489,367,o),
(489,396,cs),
(489,524,ls),
(489,553,o),
(467,575,o),
(438,575,cs),
(425,575,ls),
(396,575,o),
(374,597,o),
(374,626,cs),
(374,639,ls),
(374,668,o),
(352,690,o),
(323,690,cs),
(195,690,ls),
(166,690,o),
(144,668,o),
(144,639,cs),
(144,626,ls),
(144,597,o),
(122,575,o),
(93,575,cs),
(80,575,ls),
(51,575,o),
(30,553,o),
(30,524,cs),
(30,396,ls)
);
},
{
closed = 1;
nodes = (
(144,524,ls),
(144,553,o),
(166,575,o),
(195,575,cs),
(323,575,ls),
(352,575,o),
(374,553,o),
(374,524,cs),
(374,396,ls),
(374,367,o),
(352,345,o),
(323,345,cs),
(195,345,ls),
(166,345,o),
(144,367,o),
(144,396,cs)
);
}
);
width = 520;
},
{
.lastUpdate = 747066097.36;
hints = (
{
horizontal = 1;
origin = (0,43);
target = (1,12);
type = Stem;
},
{
horizontal = 1;
origin = (0,67);
target = (1,4);
type = Stem;
},
{
origin = (0,79);
target = (0,23);
type = Stem;
},
{
origin = (0,47);
target = (0,39);
type = Stem;
}
);
layerId = "52F3452F-C0C6-4900-9BFE-1786415B207F";
shapes = (
{
closed = 1;
nodes = (
(30,367,o),
(51,345,o),
(80,345,cs),
(93,345,ls),
(122,345,o),
(144,323,o),
(144,294,cs),
(144,281,ls),
(144,252,o),
(122,230,o),
(93,230,cs),
(81,230,ls),
(52,230,o),
(30,208,o),
(30,179,cs),
(30,51,ls),
(30,22,o),
(52,0,o),
(81,0,cs),
(94,0,ls),
(123,0,o),
(145,22,o),
(145,51,cs),
(145,179,ls),
(145,208,o),
(167,230,o),
(196,230,cs),
(1333,230,ls),
(1362,230,o),
(1384,207,o),
(1384,178,cs),
(1384,50,ls),
(1384,21,o),
(1406,-1,o),
(1435,-1,cs),
(1448,-1,ls),
(1477,-1,o),
(1498,21,o),
(1498,50,c),
(1499,178,l),
(1499,207,o),
(1477,229,o),
(1448,229,cs),
(1435,229,ls),
(1406,229,o),
(1384,251,o),
(1384,280,cs),
(1384,293,l),
(1384,328,o),
(1406,344,o),
(1434,344,cs),
(1447,344,ls),
(1476,344,o),
(1498,366,o),
(1498,395,cs),
(1498,523,ls),
(1498,552,o),
(1476,574,o),
(1447,574,cs),
(1434,574,ls),
(1405,574,o),
(1383,596,o),
(1383,625,cs),
(1383,638,ls),
(1383,667,o),
(1361,690,o),
(1332,690,cs),
(195,690,ls),
(166,690,o),
(144,668,o),
(144,639,cs),
(144,626,ls),
(144,597,o),
(122,575,o),
(93,575,cs),
(80,575,ls),
(51,575,o),
(30,553,o),
(30,524,cs),
(30,396,ls)
);
},
{
closed = 1;
nodes = (
(144,524,ls),
(144,553,o),
(166,575,o),
(195,575,cs),
(1332,575,ls),
(1361,575,o),
(1383,552,o),
(1383,523,cs),
(1383,395,ls),
(1383,366,o),
(1361,345,o),
(1332,345,cs),
(195,345,ls),
(166,345,o),
(144,367,o),
(144,396,cs)
);
}
);
width = 1529;
}
);
unicode = 65;
}
{
glyphname = B;
lastChange = "2024-09-03 14:22:08 +0000";
layers = (
{
.lastUpdate = 747064559.693;
hints = (
{
horizontal = 1;
origin = (0,63);
target = (1,12);
type = Stem;
},
{
horizontal = 1;
origin = (1,4);
target = (2,12);
type = Stem;
},
{
horizontal = 1;
origin = (2,3);
target = (0,39);
type = Stem;
},
{
origin = (0,60);
target = (2,15);
type = Stem;
},
{
origin = (2,8);
target = (0,28);
type = Stem;
}
);
layerId = "B9294602-EB87-4DCD-A39F-D52598F560AD";
shapes = (
{
closed = 1;
nodes = (
(324,0,ls),
(353,0,o),
(375,22,o),
(375,51,cs),
(375,64,ls),
(375,93,o),
(397,115,o),
(426,115,cs),
(439,115,ls),
(468,115,o),
(490,137,o),
(490,166,cs),
(490,294,ls),
(490,323,o),
(468,345,o),
(439,345,cs),
(426,345,ls),
(397,345,o),
(375,367,o),
(375,396,cs),
(375,409,ls),
(375,438,o),
(397,460,o),
(426,460,cs),
(439,460,ls),
(468,460,o),
(490,482,o),
(490,511,cs),
(490,524,ls),
(490,553,o),
(468,575,o),
(439,575,cs),
(426,575,ls),
(397,575,o),
(375,597,o),
(375,626,cs),
(375,639,ls),
(375,668,o),
(353,690,o),
(324,690,cs),
(81,690,ls),
(52,690,o),
(30,668,o),
(30,639,cs),
(30,511,ls),
(30,482,o),
(52,460,o),
(81,460,cs),
(94,460,ls),
(123,460,o),
(145,438,o),
(145,409,cs),
(145,396,ls),
(145,367,o),
(123,345,o),
(94,345,cs),
(81,345,ls),
(52,345,o),
(30,323,o),
(30,294,cs),
(30,51,ls),
(30,22,o),
(52,0,o),
(81,0,cs)
);
},
{
closed = 1;
nodes = (
(145,294,ls),
(145,323,o),
(167,345,o),
(196,345,cs),
(324,345,ls),
(353,345,o),
(375,323,o),
(375,294,cs),
(375,166,ls),
(375,137,o),
(353,115,o),
(324,115,cs),
(196,115,ls),
(167,115,o),
(145,137,o),
(145,166,cs)
);
},
{
closed = 1;
nodes = (
(145,524,ls),
(145,553,o),
(167,575,o),
(196,575,cs),
(324,575,ls),
(353,575,o),
(375,553,o),
(375,524,cs),
(375,511,ls),
(375,482,o),
(353,460,o),
(324,460,cs),
(196,460,ls),
(167,460,o),
(145,482,o),
(145,511,cs)
);
}
);
width = 520;
},
{
.lastUpdate = 747066128.424;
hints = (
{
horizontal = 1;
origin = (0,63);
target = (1,12);
type = Stem;
},
{
horizontal = 1;
origin = (1,4);
target = (2,12);
type = Stem;
},
{
horizontal = 1;
origin = (2,3);
target = (0,39);
type = Stem;
},
{
horizontal = 1;
origin = (2,12);
target = (2,4);
type = Stem;
},
{
origin = (0,60);
target = (2,15);
type = Stem;
},
{
origin = (2,8);
target = (0,28);
type = Stem;
}
);
layerId = "52F3452F-C0C6-4900-9BFE-1786415B207F";
shapes = (
{
closed = 1;
nodes = (
(1333,0,ls),
(1362,0,o),
(1384,22,o),
(1384,51,cs),
(1384,64,ls),
(1384,93,o),
(1406,115,o),
(1435,115,cs),
(1448,115,ls),
(1477,115,o),
(1499,137,o),
(1499,166,cs),
(1499,294,ls),
(1499,323,o),
(1477,345,o),
(1448,345,cs),
(1435,345,ls),
(1406,345,o),
(1384,367,o),
(1384,396,cs),
(1384,409,ls),
(1384,438,o),
(1406,460,o),
(1435,460,cs),
(1448,460,ls),
(1477,460,o),
(1499,482,o),
(1499,511,cs),
(1499,524,ls),
(1499,553,o),
(1477,575,o),
(1448,575,cs),
(1435,575,ls),
(1406,575,o),
(1384,597,o),
(1384,626,cs),
(1384,639,ls),
(1384,668,o),
(1362,690,o),
(1333,690,cs),
(81,690,ls),
(52,690,o),
(30,668,o),
(30,639,cs),
(30,511,ls),
(30,482,o),
(52,460,o),
(81,460,cs),
(94,460,ls),
(123,460,o),
(145,438,o),
(145,409,cs),
(145,396,ls),
(145,367,o),
(123,345,o),
(94,345,cs),
(81,345,ls),
(52,345,o),
(30,323,o),
(30,294,cs),
(30,51,ls),
(30,22,o),
(52,0,o),
(81,0,cs)
);
},
{
closed = 1;
nodes = (
(145,294,ls),
(145,323,o),
(167,345,o),
(196,345,cs),
(1333,345,ls),
(1362,345,o),
(1384,323,o),
(1384,294,cs),
(1384,166,ls),
(1384,137,o),
(1362,115,o),
(1333,115,cs),
(196,115,ls),
(167,115,o),
(145,137,o),
(145,166,cs)
);
},
{
closed = 1;
nodes = (
(145,524,ls),
(145,553,o),
(167,575,o),
(196,575,cs),
(1333,575,ls),
(1362,575,o),
(1384,553,o),
(1384,524,cs),
(1384,511,ls),
(1384,482,o),
(1362,460,o),
(1333,460,cs),
(196,460,ls),
(167,460,o),
(145,482,o),
(145,511,cs)
);
}
);
width = 1529;
}
);
unicode = 66;
}
{
glyphname = C;
lastChange = "2024-09-03 14:22:25 +0000";
layers = (
{
.lastUpdate = 747064565.423;
hints = (
{
horizontal = 1;
origin = (0,4);
target = (0,28);
type = Stem;
},
{
horizontal = 1;
origin = (0,35);
target = (0,59);
type = Stem;
},
{
origin = (0,71);
target = (0,64);
type = Stem;
},
{
origin = (0,56);
target = (0,48);
type = Stem;
}
);
layerId = "B9294602-EB87-4DCD-A39F-D52598F560AD";
shapes = (
{
closed = 1;
nodes = (
(30,51,ls),
(30,22,o),
(52,0,o),
(81,0,cs),
(323,0,ls),
(352,0,o),
(375,22,o),
(375,51,cs),
(375,64,ls),
(375,93,o),
(397,115,o),
(426,115,cs),
(439,115,ls),
(468,115,o),
(490,137,o),
(490,166,cs),
(490,181,ls),
(490,210,o),
(468,230,o),
(439,230,cs),
(426,230,ls),
(397,230,o),
(375,210,o),
(375,181,cs),
(375,166,ls),
(375,137,o),
(353,115,o),
(324,115,cs),
(196,115,ls),
(167,115,o),
(145,137,o),
(145,166,cs),
(145,524,ls),
(145,553,o),
(167,575,o),
(196,575,cs),
(324,575,ls),
(353,575,o),
(375,553,o),
(375,524,cs),
(375,509,ls),
(375,480,o),
(397,460,o),
(426,460,cs),
(439,460,ls),
(468,460,o),
(490,480,o),
(490,509,cs),
(490,524,ls),
(490,553,o),
(468,575,o),
(439,575,cs),
(426,575,ls),
(397,575,o),
(375,597,o),
(375,626,cs),
(375,639,ls),
(375,668,o),
(352,690,o),
(323,690,cs),
(196,690,ls),
(167,690,o),
(145,668,o),
(145,639,cs),
(145,626,ls),
(145,597,o),
(123,575,o),
(94,575,cs),
(81,575,ls),
(52,575,o),
(30,553,o),
(30,524,cs)
);
}
);
width = 520;
},
{
.lastUpdate = 747066145.061;
hints = (
{
horizontal = 1;
origin = (0,4);
target = (0,28);
type = Stem;
},
{
horizontal = 1;
origin = (0,44);
target = (0,68);
type = Stem;
},
{
horizontal = 1;
origin = (0,28);
target = (0,20);
type = Stem;
},
{
horizontal = 1;
origin = (0,35);
target = (0,59);
type = Stem;
},
{
origin = (0,71);
target = (0,64);
type = Stem;
},
{
origin = (0,56);
target = (0,48);
type = Stem;
}
);
layerId = "52F3452F-C0C6-4900-9BFE-1786415B207F";
shapes = (
{
closed = 1;
nodes = (
(30,51,ls),
(30,22,o),
(52,0,o),
(81,0,cs),
(1330,0,ls),
(1359,0,o),
(1382,22,o),
(1382,51,cs),
(1382,64,ls),
(1382,93,o),
(1404,115,o),
(1433,115,cs),
(1446,115,ls),
(1475,115,o),
(1497,137,o),
(1497,166,cs),
(1497,181,ls),
(1497,210,o),
(1475,230,o),
(1446,230,cs),
(1433,230,ls),
(1404,230,o),
(1382,210,o),
(1382,181,cs),
(1382,166,ls),
(1382,137,o),
(1360,115,o),
(1331,115,cs),
(196,115,ls),
(167,115,o),
(145,137,o),
(145,166,cs),
(145,524,ls),
(145,553,o),
(167,575,o),
(196,575,cs),
(1331,575,ls),
(1360,575,o),
(1382,553,o),
(1382,524,cs),
(1382,509,ls),
(1382,480,o),
(1404,460,o),
(1433,460,cs),
(1446,460,ls),
(1475,460,o),
(1497,480,o),
(1497,509,cs),
(1497,524,ls),
(1497,553,o),
(1475,575,o),
(1446,575,cs),
(1433,575,ls),
(1404,575,o),
(1382,597,o),
(1382,626,cs),
(1382,639,ls),
(1382,668,o),
(1359,690,o),
(1330,690,cs),
(196,690,ls),
(167,690,o),
(145,668,o),
(145,639,cs),
(145,626,ls),
(145,597,o),
(123,575,o),
(94,575,cs),
(81,575,ls),
(52,575,o),
(30,553,o),
(30,524,cs)
);
}
);
width = 1527;
}
);
unicode = 67;
}
{
glyphname = D;
lastChange = "2024-09-03 14:23:17 +0000";
layers = (
{
.lastUpdate = 747066153.731;
hints = (
{
origin = (0,15);
target = (1,8);
type = Stem;
},
{
origin = (1,15);
place = (375,115);
type = Stem;
},
{
horizontal = 1;
origin = (1,4);
target = (0,19);
type = Stem;
},
{
horizontal = 1;
origin = (0,12);
target = (1,11);
type = Stem;
}
);
layerId = "B9294602-EB87-4DCD-A39F-D52598F560AD";
shapes = (
{
closed = 1;
nodes = (
(490,166,ls),
(490,137,o),
(468,115,o),
(439,115,cs),
(426,115,ls),
(397,115,o),
(375,93,o),
(375,64,cs),
(375,51,ls),
(375,22,o),
(353,0,o),
(324,0,cs),
(81,0,ls),
(52,0,o),
(30,22,o),
(30,51,cs),
(30,639,ls),
(30,668,o),
(52,690,o),
(81,690,cs),
(324,690,ls),
(353,690,o),
(375,668,o),
(375,639,cs),
(375,626,ls),
(375,597,o),
(397,575,o),
(426,575,cs),
(439,575,ls),
(468,575,o),
(490,553,o),
(490,524,cs)
);
},
{
closed = 1;
nodes = (
(375,524,ls),
(375,553,o),
(353,575,o),
(324,575,cs),
(196,575,ls),
(167,575,o),
(145,553,o),
(145,524,cs),
(145,166,ls),
(145,137,o),
(167,115,o),
(196,115,cs),
(324,115,ls),
(353,115,o),
(375,137,o),
(375,166,cs)
);
}
);
width = 520;
},
{
.lastUpdate = 747066197.156;
hints = (
{
horizontal = 1;
origin = (0,12);
target = (1,11);
type = Stem;
},
{
horizontal = 1;
origin = (1,4);
target = (0,19);
type = Stem;
},
{
origin = (0,15);
target = (1,8);
type = Stem;
},
{
origin = (1,0);
target = (0,0);
type = Stem;
}
);
layerId = "52F3452F-C0C6-4900-9BFE-1786415B207F";
shapes = (
{
closed = 1;
nodes = (
(1552,166,ls),
(1552,137,o),
(1530,115,o),
(1501,115,cs),
(1488,115,ls),
(1459,115,o),
(1437,93,o),
(1437,64,cs),
(1437,51,ls),
(1437,22,o),
(1415,0,o),
(1386,0,cs),
(81,0,ls),
(52,0,o),
(30,22,o),
(30,51,cs),
(30,639,ls),
(30,668,o),
(52,690,o),
(81,690,cs),
(1386,690,ls),
(1415,690,o),
(1437,668,o),
(1437,639,cs),
(1437,626,ls),
(1437,597,o),
(1459,575,o),
(1488,575,cs),
(1501,575,ls),
(1530,575,o),
(1552,553,o),
(1552,524,cs)
);
},
{
closed = 1;
nodes = (
(1437,524,ls),
(1437,553,o),
(1415,575,o),
(1386,575,cs),
(196,575,ls),
(167,575,o),
(145,553,o),
(145,524,cs),
(145,166,ls),
(145,137,o),
(167,115,o),
(196,115,cs),
(1386,115,ls),
(1415,115,o),
(1437,137,o),
(1437,166,cs)
);
}
);
width = 1582;
}
);
unicode = 68;
}
{
glyphname = E;
lastChange = "2024-09-03 14:23:34 +0000";
layers = (
{
.lastUpdate = 747064574.174;
hints = (
{
horizontal = 1;
origin = (0,8);
target = (0,71);
type = Stem;
},
{
horizontal = 1;
origin = (0,64);
target = (0,56);
type = Stem;
},
{
horizontal = 1;
origin = (0,39);
target = (0,47);
type = Stem;
},
{
origin = (0,68);
target = (0,60);
type = Stem;
}
);
layerId = "B9294602-EB87-4DCD-A39F-D52598F560AD";
shapes = (
{
closed = 1;
nodes = (
(94,115,ls),
(123,115,o),
(145,93,o),
(145,64,cs),
(145,51,ls),
(145,22,o),
(167,0,o),
(196,0,cs),
(439,0,ls),
(468,0,o),
(490,22,o),
(490,51,cs),
(490,64,ls),
(490,93,o),
(468,115,o),
(439,115,cs),
(196,115,ls),
(167,115,o),
(145,137,o),
(145,166,cs),
(145,294,ls),
(145,323,o),
(167,345,o),
(196,345,cs),
(439,345,ls),
(468,345,o),
(490,367,o),
(490,396,cs),
(490,409,ls),
(490,438,o),
(468,460,o),
(439,460,cs),
(196,460,ls),
(167,460,o),
(145,482,o),
(145,511,cs),
(145,524,ls),
(145,553,o),
(167,575,o),
(196,575,cs),
(439,575,ls),
(468,575,o),
(490,597,o),
(490,626,cs),
(490,639,ls),
(490,668,o),
(468,690,o),
(439,690,cs),
(81,690,ls),
(52,690,o),
(30,668,o),
(30,639,cs),
(30,511,ls),
(30,482,o),
(52,460,o),
(81,460,cs),
(94,460,ls),
(123,460,o),
(145,438,o),
(145,409,cs),
(145,396,ls),
(145,367,o),
(123,345,o),
(94,345,cs),
(81,345,ls),
(52,345,o),
(30,323,o),
(30,294,cs),
(30,166,ls),
(30,137,o),
(52,115,o),
(81,115,cs)
);
}
);
width = 520;
},
{
.lastUpdate = 747066214.203;
hints = (
{
horizontal = 1;
origin = (0,8);
target = (0,71);
type = Stem;
},
{
horizontal = 1;
origin = (0,64);
target = (0,56);
type = Stem;
},
{
horizontal = 1;
origin = (0,39);
target = (0,47);
type = Stem;
},
{
origin = (0,68);
target = (0,60);
type = Stem;
}
);
layerId = "52F3452F-C0C6-4900-9BFE-1786415B207F";
shapes = (
{
closed = 1;
nodes = (
(94,115,ls),
(123,115,o),
(145,93,o),
(145,64,cs),
(145,51,ls),
(145,22,o),
(167,0,o),
(196,0,cs),
(1448,0,ls),
(1477,0,o),
(1499,22,o),
(1499,51,cs),
(1499,64,ls),
(1499,93,o),
(1477,115,o),
(1448,115,cs),
(196,115,ls),
(167,115,o),
(145,137,o),
(145,166,cs),
(145,294,ls),
(145,323,o),
(167,345,o),
(196,345,cs),
(1448,345,ls),
(1477,345,o),
(1499,367,o),
(1499,396,cs),
(1499,409,ls),
(1499,438,o),
(1477,460,o),
(1448,460,cs),
(196,460,ls),
(167,460,o),
(145,482,o),
(145,511,cs),
(145,524,ls),
(145,553,o),
(167,575,o),
(196,575,cs),
(1448,575,ls),
(1477,575,o),
(1499,597,o),
(1499,626,cs),
(1499,639,ls),
(1499,668,o),
(1477,690,o),
(1448,690,cs),
(81,690,ls),
(52,690,o),
(30,668,o),
(30,639,cs),
(30,511,ls),
(30,482,o),
(52,460,o),
(81,460,cs),
(94,460,ls),
(123,460,o),
(145,438,o),
(145,409,cs),
(145,396,ls),
(145,367,o),
(123,345,o),
(94,345,cs),
(81,345,ls),
(52,345,o),
(30,323,o),
(30,294,cs),
(30,166,ls),
(30,137,o),
(52,115,o),
(81,115,cs)
);
}
);
width = 1529;
}
);
unicode = 69;
}
{
glyphname = F;
lastChange = "2024-09-03 14:23:56 +0000";
layers = (
{
.lastUpdate = 747064589.848;
hints = (
{
horizontal = 1;
origin = (0,52);
target = (0,44);
type = Stem;
},
{
horizontal = 1;
origin = (0,28);
target = (0,36);
type = Stem;
},
{
origin = (0,55);
target = (0,48);
type = Stem;
}
);
layerId = "B9294602-EB87-4DCD-A39F-D52598F560AD";
shapes = (
{
closed = 1;
nodes = (
(30,51,ls),
(30,22,o),
(53,0,o),
(83,0,cs),
(93,0,ls),
(123,0,o),
(145,22,o),
(145,51,cs),
(145,294,ls),
(145,323,o),
(168,345,o),
(198,345,cs),
(323,345,ls),
(353,345,o),
(375,367,o),
(375,396,cs),
(375,409,ls),
(375,438,o),
(353,460,o),
(323,460,cs),
(198,460,ls),
(168,460,o),
(145,482,o),
(145,511,cs),
(145,524,ls),
(145,553,o),
(168,575,o),
(198,575,cs),
(437,575,ls),
(467,575,o),
(490,597,o),
(490,626,cs),
(490,639,ls),
(490,668,o),
(467,690,o),
(437,690,cs),
(83,690,ls),
(53,690,o),
(30,668,o),
(30,639,cs),
(30,511,ls),
(30,482,o),
(53,460,o),
(83,460,cs),
(93,460,ls),
(123,460,o),
(145,438,o),
(145,409,cs),
(145,396,ls),
(145,367,o),
(123,345,o),
(93,345,cs),
(83,345,ls),
(53,345,o),
(30,323,o),
(30,294,cs)
);
}
);
width = 520;
},
{
.lastUpdate = 747066236.019;
hints = (
{
horizontal = 1;
origin = (0,52);
target = (0,44);
type = Stem;
},
{
horizontal = 1;
origin = (0,28);
target = (0,36);
type = Stem;
},
{
origin = (0,55);
target = (0,48);
type = Stem;
}
);
layerId = "52F3452F-C0C6-4900-9BFE-1786415B207F";
shapes = (
{
closed = 1;
nodes = (
(30,51,ls),
(30,22,o),
(53,0,o),
(83,0,cs),
(93,0,ls),
(123,0,o),
(145,22,o),
(145,51,cs),
(145,294,ls),
(145,323,o),
(168,345,o),
(198,345,cs),
(1332,345,ls),
(1362,345,o),
(1384,367,o),
(1384,396,cs),
(1384,409,ls),
(1384,438,o),
(1362,460,o),
(1332,460,cs),
(198,460,ls),
(168,460,o),
(145,482,o),
(145,511,cs),
(145,524,ls),
(145,553,o),
(168,575,o),
(198,575,cs),
(1446,575,ls),
(1476,575,o),
(1499,597,o),
(1499,626,cs),
(1499,639,ls),
(1499,668,o),
(1476,690,o),
(1446,690,cs),
(83,690,ls),
(53,690,o),
(30,668,o),
(30,639,cs),
(30,511,ls),
(30,482,o),
(53,460,o),
(83,460,cs),
(93,460,ls),
(123,460,o),
(145,438,o),
(145,409,cs),
(145,396,ls),
(145,367,o),
(123,345,o),
(93,345,cs),
(83,345,ls),
(53,345,o),
(30,323,o),
(30,294,cs)
);
}
);
width = 1529;
}
);
unicode = 70;
}
{
glyphname = G;
lastChange = "2024-09-03 14:24:06 +0000";
layers = (
{
.lastUpdate = 747064599.499;
hints = (
{
horizontal = 1;
origin = (0,12);
target = (0,52);
type = Stem;
},
{
horizontal = 1;
origin = (0,60);
target = (0,68);
type = Stem;
},
{
origin = (0,79);
target = (0,72);
type = Stem;
},
{
origin = (0,48);
target = (0,64);
type = Stem;
},
{
horizontal = 1;
origin = (0,43);
target = (0,35);
type = Stem;
}
);
layerId = "B9294602-EB87-4DCD-A39F-D52598F560AD";
shapes = (
{
closed = 1;
nodes = (
(30,166,ls),
(30,137,o),
(52,115,o),
(81,115,cs),
(94,115,ls),
(123,115,o),
(145,93,o),
(145,64,cs),
(145,51,ls),
(145,22,o),
(167,0,o),
(196,0,cs),
(323,0,ls),
(352,0,o),
(375,22,o),
(375,51,cs),
(375,64,ls),
(375,93,o),
(397,115,o),
(426,115,cs),
(439,115,ls),
(468,115,o),
(490,137,o),
(490,166,cs),
(490,294,ls),
(490,323,o),
(468,345,o),
(439,345,cs),
(426,345,ls),
(397,345,o),
(375,367,o),
(375,396,cs),
(375,409,ls),
(375,438,o),
(353,460,o),
(324,460,cs),
(311,460,ls),
(282,460,o),
(260,438,o),
(260,409,cs),
(260,396,ls),
(260,367,o),
(282,345,o),
(311,345,cs),
(324,345,ls),
(353,345,o),
(375,323,o),
(375,294,cs),
(375,166,ls),
(375,137,o),
(353,115,o),
(324,115,cs),
(196,115,ls),
(167,115,o),
(145,137,o),
(145,166,cs),
(145,524,ls),
(145,553,o),
(167,575,o),
(196,575,cs),
(439,575,ls),
(468,575,o),
(490,597,o),
(490,626,cs),
(490,639,ls),
(490,668,o),
(467,690,o),
(438,690,cs),
(196,690,ls),
(167,690,o),
(145,668,o),
(145,639,cs),
(145,626,ls),
(145,597,o),
(123,575,o),
(94,575,cs),
(81,575,ls),
(52,575,o),
(30,553,o),
(30,524,cs)
);
}
);
width = 520;
},
{
.lastUpdate = 747066246.723;
hints = (
{
horizontal = 1;
origin = (0,12);
target = (0,52);
type = Stem;
},
{
horizontal = 1;
origin = (0,44);
target = (0,36);
type = Stem;
},
{
horizontal = 1;
origin = (0,60);
target = (0,68);
type = Stem;
},
{
origin = (0,79);
target = (0,72);
type = Stem;
},
{
origin = (0,48);
target = (0,64);
type = Stem;
}
);
layerId = "52F3452F-C0C6-4900-9BFE-1786415B207F";
shapes = (
{
closed = 1;
nodes = (
(30,166,ls),
(30,137,o),
(52,115,o),
(81,115,cs),
(94,115,ls),
(123,115,o),
(145,93,o),
(145,64,cs),
(145,51,ls),
(145,22,o),
(167,0,o),
(196,0,cs),
(1332,0,ls),
(1361,0,o),
(1384,22,o),
(1384,51,cs),
(1384,64,ls),
(1384,93,o),
(1406,115,o),
(1435,115,cs),
(1448,115,ls),
(1477,115,o),
(1499,137,o),
(1499,166,cs),
(1499,294,ls),
(1499,323,o),
(1477,345,o),
(1448,345,cs),
(1435,345,ls),
(1406,345,o),
(1384,367,o),
(1384,396,cs),
(1384,409,ls),
(1384,438,o),
(1362,460,o),
(1333,460,cs),
(861,460,ls),
(832,460,o),
(810,438,o),
(810,409,cs),
(810,396,ls),
(810,367,o),
(832,345,o),
(861,345,cs),
(1333,345,ls),
(1362,345,o),
(1384,323,o),
(1384,294,cs),
(1384,166,ls),
(1384,137,o),
(1362,115,o),
(1333,115,cs),
(196,115,ls),
(167,115,o),
(145,137,o),
(145,166,cs),
(145,524,ls),
(145,553,o),
(167,575,o),
(196,575,cs),
(1448,575,ls),
(1477,575,o),
(1499,597,o),
(1499,626,cs),
(1499,639,ls),
(1499,668,o),
(1476,690,o),
(1447,690,cs),
(196,690,ls),
(167,690,o),
(145,668,o),
(145,639,cs),
(145,626,ls),
(145,597,o),
(123,575,o),
(94,575,cs),
(81,575,ls),
(52,575,o),
(30,553,o),
(30,524,cs)
);
}
);
width = 1529;
}
);
unicode = 71;
}
{
glyphname = H;
lastChange = "2024-09-03 14:20:35 +0000";
layers = (
{
hints = (
{
horizontal = 1;
origin = (0,48);
target = (0,24);
type = Stem;
},
{
origin = (0,36);
target = (0,44);
type = Stem;
},
{
origin = (0,52);
target = (0,60);
type = Stem;
}
);
layerId = "B9294602-EB87-4DCD-A39F-D52598F560AD";
shapes = (
{
closed = 1;
nodes = (
(426,690,ls),
(397,690,o),
(375,668,o),
(375,639,cs),
(375,511,ls),
(375,482,o),
(353,460,o),
(324,460,cs),
(196,460,ls),
(167,460,o),
(145,482,o),
(145,511,cs),
(145,639,ls),
(145,668,o),
(123,690,o),
(94,690,cs),
(81,690,ls),
(52,690,o),
(30,668,o),
(30,639,cs),
(30,511,ls),
(30,482,o),
(52,460,o),
(81,460,cs),
(94,460,ls),
(123,460,o),
(145,438,o),
(145,409,cs),
(145,396,ls),
(145,367,o),
(123,345,o),
(94,345,cs),
(81,345,ls),
(52,345,o),
(30,323,o),
(30,294,cs),
(30,51,ls),
(30,22,o),
(52,0,o),
(81,0,cs),
(94,0,ls),
(123,0,o),
(145,22,o),
(145,51,cs),
(145,294,ls),
(145,323,o),
(167,345,o),
(196,345,cs),
(324,345,ls),
(353,345,o),
(375,323,o),
(375,294,cs),
(375,51,ls),
(375,22,o),
(397,0,o),
(426,0,cs),
(439,0,ls),
(468,0,o),
(490,22,o),
(490,51,cs),
(490,639,ls),
(490,668,o),
(468,690,o),
(439,690,cs)
);
}
);
width = 520;
},
{
hints = (
{
horizontal = 1;
origin = (0,48);
target = (0,24);
type = Stem;
},
{
origin = (0,36);
target = (0,44);
type = Stem;
},
{
origin = (0,52);
target = (0,60);
type = Stem;
}
);
layerId = "52F3452F-C0C6-4900-9BFE-1786415B207F";
shapes = (
{
closed = 1;
nodes = (
(1498,690,ls),
(1469,690,o),
(1447,668,o),
(1447,639,cs),
(1447,511,ls),
(1447,482,o),
(1425,460,o),
(1396,460,cs),
(196,460,ls),
(167,460,o),
(145,482,o),
(145,511,cs),
(145,639,ls),
(145,668,o),
(123,690,o),
(94,690,cs),
(81,690,ls),
(52,690,o),
(30,668,o),
(30,639,cs),
(30,511,ls),
(30,482,o),
(52,460,o),
(81,460,cs),
(94,460,ls),
(123,460,o),
(145,438,o),
(145,409,cs),
(145,396,ls),
(145,367,o),
(123,345,o),
(94,345,cs),
(81,345,ls),
(52,345,o),
(30,323,o),
(30,294,cs),
(30,51,ls),
(30,22,o),
(52,0,o),
(81,0,cs),
(94,0,ls),
(123,0,o),
(145,22,o),
(145,51,cs),
(145,294,ls),
(145,323,o),
(167,345,o),
(196,345,cs),
(1396,345,ls),
(1425,345,o),
(1447,323,o),
(1447,294,cs),
(1447,51,ls),
(1447,22,o),
(1469,0,o),
(1498,0,cs),
(1511,0,ls),
(1540,0,o),
(1562,22,o),
(1562,51,cs),
(1562,639,ls),
(1562,668,o),
(1540,690,o),
(1511,690,cs)
);
}
);
width = 1592;
}
);
unicode = 72;
}
{
glyphname = I;
lastChange = "2024-09-03 14:24:23 +0000";
layers = (
{
.lastUpdate = 747064611.552;
hints = (
{
horizontal = 1;
origin = (0,47);
target = (0,40);
type = Stem;
},
{
horizontal = 1;
origin = (0,31);
target = (0,23);
type = Stem;
},
{
origin = (0,36);
target = (0,12);
type = Stem;
}
);
layerId = "B9294602-EB87-4DCD-A39F-D52598F560AD";
shapes = (
{
closed = 1;
nodes = (
(439,0,l),
(469,0,o),
(490,22,o),
(490,51,cs),
(490,64,ls),
(490,93,o),
(468,115,o),
(440,115,cs),
(369,115,ls),
(340,115,o),
(318,137,o),
(318,166,cs),
(318,524,ls),
(318,553,o),
(340,575,o),
(369,575,cs),
(440,575,ls),
(468,575,o),
(490,597,o),
(490,626,cs),
(490,639,ls),
(490,668,o),
(468,690,o),
(440,690,cs),
(80,690,ls),
(52,690,o),
(30,668,o),
(30,639,cs),
(30,626,ls),
(30,597,o),
(52,575,o),
(79,575,cs),
(152,575,ls),
(181,575,o),
(203,553,o),
(203,524,cs),
(203,166,ls),
(203,137,o),
(181,115,o),
(152,115,cs),
(79,115,ls),
(51,115,o),
(30,93,o),
(30,64,cs),
(30,51,ls),
(30,22,o),
(50,0,o),
(80,0,c)
);
}
);
width = 520;
},
{
.lastUpdate = 747066263.879;
hints = (
{
horizontal = 1;
origin = (0,47);
target = (0,40);
type = Stem;
},
{
horizontal = 1;
origin = (0,16);
target = (0,24);
type = Stem;
},
{
origin = (0,36);
target = (0,12);
type = Stem;
}
);
layerId = "52F3452F-C0C6-4900-9BFE-1786415B207F";
shapes = (
{
closed = 1;
nodes = (
(1448,0,l),
(1478,0,o),
(1499,22,o),
(1499,51,cs),
(1499,64,ls),
(1499,93,o),
(1477,115,o),
(1449,115,cs),
(859,115,ls),
(830,115,o),
(808,137,o),
(808,166,cs),
(808,524,ls),
(808,553,o),
(830,575,o),
(859,575,cs),
(1449,575,ls),
(1477,575,o),
(1499,597,o),
(1499,626,cs),
(1499,639,ls),
(1499,668,o),
(1477,690,o),
(1449,690,cs),
(80,690,ls),
(52,690,o),
(30,668,o),
(30,639,cs),
(30,626,ls),
(30,597,o),
(52,575,o),
(79,575,cs),
(642,575,ls),
(671,575,o),
(693,553,o),
(693,524,cs),
(693,166,ls),
(693,137,o),
(671,115,o),
(642,115,cs),
(79,115,ls),
(51,115,o),
(30,93,o),
(30,64,cs),
(30,51,ls),
(30,22,o),
(50,0,o),
(80,0,c)
);
}
);
width = 1529;
}
);
unicode = 73;
}
{
glyphname = J;
lastChange = "2024-09-03 14:20:35 +0000";
layers = (
{
hints = (
{
horizontal = 1;
origin = (0,32);
target = (0,40);
type = Stem;
},
{
origin = (0,20);
target = (0,28);
type = Stem;
},
{
origin = (0,36);
target = (0,44);
type = Stem;
}
);
layerId = "B9294602-EB87-4DCD-A39F-D52598F560AD";
shapes = (
{
closed = 1;
nodes = (
(426,690,ls),
(397,690,o),
(375,668,o),
(375,639,cs),
(375,166,ls),
(375,137,o),
(353,115,o),
(324,115,cs),
(196,115,ls),
(167,115,o),
(145,137,o),
(145,166,cs),
(145,294,ls),
(145,323,o),
(123,345,o),
(94,345,cs),
(81,345,ls),
(52,345,o),
(30,323,o),
(30,294,cs),
(30,166,ls),
(30,137,o),
(52,115,o),
(81,115,cs),
(94,115,ls),
(123,115,o),
(145,93,o),
(145,64,cs),
(145,51,ls),
(145,22,o),
(167,0,o),
(196,0,cs),
(324,0,ls),
(353,0,o),
(375,22,o),
(375,51,cs),
(375,64,ls),
(375,93,o),
(397,115,o),
(426,115,cs),
(439,115,ls),
(468,115,o),
(490,137,o),
(490,166,cs),
(490,639,ls),
(490,668,o),
(468,690,o),
(439,690,cs)
);
}
);
width = 520;
},
{
hints = (
{
horizontal = 1;
origin = (0,32);
target = (0,40);
type = Stem;
},
{
origin = (0,20);
target = (0,28);
type = Stem;
},
{
origin = (0,36);
target = (0,44);
type = Stem;
}
);
layerId = "52F3452F-C0C6-4900-9BFE-1786415B207F";
shapes = (
{
closed = 1;
nodes = (
(1435,690,ls),
(1406,690,o),
(1384,668,o),
(1384,639,cs),
(1384,166,ls),
(1384,137,o),
(1362,115,o),
(1333,115,cs),
(196,115,ls),
(167,115,o),
(145,137,o),
(145,166,cs),
(145,294,ls),
(145,323,o),
(123,345,o),
(94,345,cs),
(81,345,ls),
(52,345,o),
(30,323,o),
(30,294,cs),
(30,166,ls),
(30,137,o),
(52,115,o),
(81,115,cs),
(94,115,ls),
(123,115,o),
(145,93,o),
(145,64,cs),
(145,51,ls),
(145,22,o),
(167,0,o),
(196,0,cs),
(1333,0,ls),
(1362,0,o),
(1384,22,o),
(1384,51,cs),
(1384,64,ls),
(1384,93,o),
(1406,115,o),
(1435,115,cs),
(1448,115,ls),
(1477,115,o),
(1499,137,o),
(1499,166,cs),
(1499,639,ls),
(1499,668,o),
(1477,690,o),
(1448,690,cs)
);
}
);
width = 1529;
}
);
unicode = 74;
}
{
glyphname = K;
lastChange = "2024-09-03 14:25:24 +0000";
layers = (
{
.lastUpdate = 747055517.434;
hints = (
{
horizontal = 1;
origin = (0,36);
target = (0,28);
type = Stem;
},
{
origin = (0,63);
target = (0,56);
type = Stem;
},
{
origin = (0,47);
place = (375,115);
type = Stem;
}
);
layerId = "B9294602-EB87-4DCD-A39F-D52598F560AD";
shapes = (
{
closed = 1;
nodes = (
(30,639,ls),
(30,668,o),
(52,690,o),
(81,690,cs),
(94,690,ls),
(123,690,o),
(145,668,o),
(145,639,cs),
(145,510,ls),
(145,481,o),
(167,459,o),
(196,459,cs),
(324,459,ls),
(353,459,o),
(375,480,o),
(375,509,cs),
(375,639,ls),
(375,668,o),
(397,690,o),
(426,690,cs),
(439,690,ls),
(468,690,o),
(490,668,o),
(490,639,cs),
(490,509,ls),
(490,480,o),
(468,460,o),
(439,460,cs),
(426,460,ls),
(397,460,o),
(375,436,o),
(375,407,cs),
(375,395,ls),
(375,366,o),
(397,345,o),
(426,345,cs),
(439,345,ls),
(468,345,o),
(490,322,o),
(490,293,cs),
(490,51,ls),
(490,22,o),
(468,0,o),
(439,0,cs),
(426,0,ls),
(397,0,o),
(375,22,o),
(375,51,cs),
(375,293,ls),
(375,322,o),
(353,344,o),
(324,344,cs),
(196,344,ls),
(167,344,o),
(145,322,o),
(145,293,cs),
(145,51,ls),
(145,22,o),
(123,0,o),
(94,0,cs),
(81,0,ls),
(52,0,o),
(30,22,o),
(30,51,cs)
);
}
);
width = 520;
},
{
.lastUpdate = 747066324.216;
hints = (
{
horizontal = 1;
origin = (0,36);
target = (0,28);
type = Stem;
},
{
origin = (0,63);
target = (0,8);
type = Stem;
},
{
origin = (0,47);
target = (0,24);
type = Stem;
}
);
layerId = "52F3452F-C0C6-4900-9BFE-1786415B207F";
shapes = (
{
closed = 1;
nodes = (
(30,639,ls),
(30,668,o),
(52,690,o),
(81,690,cs),
(94,690,ls),
(123,690,o),
(145,668,o),
(145,639,cs),
(145,510,ls),
(145,481,o),
(167,459,o),
(196,459,cs),
(1333,459,ls),
(1362,459,o),
(1384,480,o),
(1384,509,cs),
(1384,639,ls),
(1384,668,o),
(1406,690,o),
(1435,690,cs),
(1448,690,ls),
(1477,690,o),
(1499,668,o),
(1499,639,cs),
(1499,509,ls),
(1499,480,o),
(1477,460,o),
(1448,460,cs),
(1435,460,ls),
(1406,460,o),
(1384,436,o),
(1384,407,cs),
(1384,395,ls),
(1384,366,o),
(1406,345,o),
(1435,345,cs),
(1448,345,ls),
(1477,345,o),
(1499,322,o),
(1499,293,cs),
(1499,51,ls),
(1499,22,o),
(1477,0,o),
(1448,0,cs),
(1435,0,ls),
(1406,0,o),
(1384,22,o),
(1384,51,cs),
(1384,293,ls),
(1384,322,o),
(1362,344,o),
(1333,344,cs),
(196,344,ls),
(167,344,o),
(145,322,o),
(145,293,cs),
(145,51,ls),
(145,22,o),
(123,0,o),
(94,0,cs),
(81,0,ls),
(52,0,o),
(30,22,o),
(30,51,cs)
);
}
);
width = 1529;
}
);
unicode = 75;
}
{
glyphname = L;
lastChange = "2024-09-03 14:25:42 +0000";
layers = (
{
.lastUpdate = 747062898.098;
hints = (
{
origin = (0,19);
target = (0,28);
type = Stem;
},
{
horizontal = 1;
origin = (0,8);
target = (0,31);
type = Stem;
}
);
layerId = "B9294602-EB87-4DCD-A39F-D52598F560AD";
shapes = (
{
closed = 1;
nodes = (
(439,115,ls),
(468,115,o),
(490,93,o),
(490,64,cs),
(490,51,ls),
(490,22,o),
(468,0,o),
(439,0,cs),
(195,0,ls),
(166,0,o),
(145,22,o),
(145,51,cs),
(145,64,ls),
(145,93,o),
(124,115,o),
(95,115,cs),
(80,115,ls),
(51,115,o),
(30,137,o),
(30,166,cs),
(30,639,ls),
(30,668,o),
(51,690,o),
(80,690,cs),
(95,690,ls),
(124,690,o),
(145,668,o),
(145,639,cs),
(145,166,ls),
(145,137,o),
(166,115,o),
(195,115,cs)
);
}
);
width = 520;
},
{
.lastUpdate = 747066342.69;
hints = (
{
horizontal = 1;
origin = (0,8);
target = (0,0);
type = Stem;
},
{
origin = (0,20);
target = (0,28);
type = Stem;
}
);
layerId = "52F3452F-C0C6-4900-9BFE-1786415B207F";
shapes = (
{
closed = 1;
nodes = (
(1448,115,ls),
(1477,115,o),
(1499,93,o),
(1499,64,cs),
(1499,51,ls),
(1499,22,o),
(1477,0,o),
(1448,0,cs),
(195,0,ls),
(166,0,o),
(145,22,o),
(145,51,cs),
(145,64,ls),
(145,93,o),
(124,115,o),
(95,115,cs),
(80,115,ls),
(51,115,o),
(30,137,o),
(30,166,cs),
(30,639,ls),
(30,668,o),
(51,690,o),
(80,690,cs),
(95,690,ls),
(124,690,o),
(145,668,o),
(145,639,cs),
(145,166,ls),
(145,137,o),
(166,115,o),
(195,115,cs)
);
}
);
width = 1529;
}
);
unicode = 76;
}
{
glyphname = M;
lastChange = "2024-09-03 14:26:21 +0000";
layers = (
{
.lastUpdate = 747063004.981;
hints = (
{
origin = (0,79);
target = (0,72);
type = Stem;
},
{
origin = (0,63);
target = (0,56);
type = Stem;
},
{
origin = (0,47);
target = (0,40);
type = Stem;
},
{
horizontal = 1;
origin = (0,51);
target = (0,28);
type = Stem;
}
);
layerId = "B9294602-EB87-4DCD-A39F-D52598F560AD";
shapes = (
{
closed = 1;
nodes = (
(30,524,ls),
(30,553,o),
(51,575,o),
(80,575,cs),
(95,575,ls),
(124,575,o),
(145,597,o),
(145,626,cs),
(145,639,ls),
(145,668,o),
(166,690,o),
(195,690,cs),
(210,690,ls),
(239,690,o),
(260,668,o),
(260,639,cs),
(260,626,ls),
(260,597,o),
(281,575,o),
(310,575,cs),
(325,575,ls),
(354,575,o),
(375,597,o),
(375,626,cs),
(375,639,ls),
(375,668,o),
(396,690,o),
(425,690,cs),
(440,690,ls),
(469,690,o),
(490,668,o),
(490,639,cs),
(490,626,ls),
(490,597,o),
(511,575,o),
(540,575,cs),
(555,575,ls),
(584,575,o),
(605,553,o),
(605,524,cs),
(605,51,ls),
(605,22,o),
(584,0,o),
(555,0,cs),
(540,0,ls),
(511,0,o),
(490,22,o),
(490,51,cs),
(490,524,ls),
(490,553,o),
(469,575,o),
(440,575,cs),
(425,575,ls),
(396,575,o),
(375,553,o),
(375,524,cs),
(375,51,ls),
(375,22,o),
(354,0,o),
(325,0,cs),
(310,0,ls),
(281,0,o),
(260,22,o),
(260,51,cs),
(260,524,ls),
(260,553,o),
(239,575,o),
(210,575,cs),
(195,575,ls),
(166,575,o),
(145,553,o),
(145,524,cs),
(145,51,ls),
(145,22,o),
(124,0,o),
(95,0,cs),
(80,0,ls),
(51,0,o),
(30,22,o),
(30,51,cs)
);
}
);
width = 635;
},
{
.lastUpdate = 747066381.878;
hints = (
{
origin = (0,64);
target = (0,56);
type = Stem;
},
{
origin = (0,48);
target = (0,40);
type = Stem;
},
{
origin = (0,0);
target = (0,72);
type = Stem;
},
{
horizontal = 1;
origin = (0,51);
target = (0,11);
type = Stem;
}
);
layerId = "52F3452F-C0C6-4900-9BFE-1786415B207F";
shapes = (
{
closed = 1;
nodes = (
(30,524,ls),
(30,553,o),
(51,575,o),
(80,575,cs),
(95,575,ls),
(124,575,o),
(145,597,o),
(145,626,cs),
(145,639,ls),
(145,668,o),
(166,690,o),
(195,690,cs),
(657,690,ls),
(686,690,o),
(707,668,o),
(707,639,cs),
(707,626,ls),
(707,597,o),
(728,575,o),
(757,575,cs),
(772,575,ls),
(801,575,o),
(822,597,o),
(822,626,cs),
(822,639,ls),
(822,668,o),
(843,690,o),
(872,690,cs),
(1334,690,ls),
(1363,690,o),
(1384,668,o),
(1384,639,cs),
(1384,626,ls),
(1384,597,o),
(1405,575,o),
(1434,575,cs),
(1449,575,ls),
(1478,575,o),
(1499,553,o),
(1499,524,cs),
(1499,51,ls),
(1499,22,o),
(1478,0,o),
(1449,0,cs),
(1434,0,ls),
(1405,0,o),
(1384,22,o),
(1384,51,cs),
(1384,524,ls),
(1384,553,o),
(1363,575,o),
(1334,575,cs),
(872,575,ls),
(843,575,o),
(822,553,o),
(822,524,cs),
(822,51,ls),
(822,22,o),
(801,0,o),
(772,0,cs),
(757,0,ls),
(728,0,o),
(707,22,o),
(707,51,cs),
(707,524,ls),
(707,553,o),
(686,575,o),
(657,575,cs),
(195,575,ls),
(166,575,o),
(145,553,o),
(145,524,cs),
(145,51,ls),
(145,22,o),
(124,0,o),
(95,0,cs),
(80,0,ls),
(51,0,o),
(30,22,o),
(30,51,cs)
);
}
);
width = 1529;
}
);
unicode = 77;
}
{
glyphname = N;
lastChange = "2024-09-03 14:27:13 +0000";
layers = (
{
.lastUpdate = 747063069.065;
hints = (
{
origin = (0,51);
target = (0,44);
type = Stem;
},
{
origin = (0,27);
target = (0,20);
type = Stem;
},
{
horizontal = 1;
origin = (0,40);
target = (0,55);
type = Stem;
},
{
horizontal = 1;
origin = (0,31);
target = (0,8);
type = Stem;
}
);
layerId = "B9294602-EB87-4DCD-A39F-D52598F560AD";
shapes = (
{
closed = 1;
nodes = (
(209,690,ls),
(238,690,o),
(260,668,o),
(260,639,cs),
(260,626,ls),
(260,597,o),
(282,575,o),
(311,575,cs),
(324,575,ls),
(353,575,o),
(375,597,o),
(375,626,cs),
(375,639,ls),
(375,668,o),
(397,690,o),
(426,690,cs),
(439,690,ls),
(468,690,o),
(490,668,o),
(490,639,c),
(490,51,l),
(490,22,o),
(468,0,o),
(439,0,cs),
(426,0,ls),
(397,0,o),
(375,22,o),
(375,51,cs),
(375,409,ls),
(375,438,o),
(353,460,o),
(324,460,cs),
(311,460,ls),
(282,460,o),
(260,482,o),
(260,511,cs),
(260,524,ls),
(260,553,o),
(238,575,o),
(209,575,cs),
(196,575,ls),
(167,575,o),
(145,553,o),
(145,524,cs),
(145,51,ls),
(145,22,o),
(123,0,o),
(94,0,cs),
(81,0,ls),
(52,0,o),
(30,22,o),
(30,51,cs),
(30,639,ls),
(30,668,o),
(52,690,o),
(81,690,cs)
);
}
);
width = 520;
},
{
.lastUpdate = 747066433.866;
hints = (
{
origin = (0,51);
target = (0,43);
type = Stem;
},
{
origin = (0,27);
target = (0,19);
type = Stem;
},
{
horizontal = 1;
origin = (0,39);
target = (0,55);
type = Stem;
},
{
horizontal = 1;
origin = (0,32);
target = (0,8);
type = Stem;
}
);
layerId = "52F3452F-C0C6-4900-9BFE-1786415B207F";
shapes = (
{
closed = 1;
nodes = (
(978,690,ls),
(1007,690,o),
(1029,668,o),
(1029,639,cs),
(1029,626,ls),
(1029,597,o),
(1051,575,o),
(1080,575,cs),
(1333,575,ls),
(1362,575,o),
(1384,597,o),
(1384,626,cs),
(1384,639,ls),
(1384,668,o),
(1406,690,o),
(1435,690,cs),
(1448,690,ls),
(1477,690,o),
(1499,668,o),
(1499,639,c),
(1499,51,l),
(1499,22,o),
(1477,0,o),
(1448,0,cs),
(1435,0,ls),
(1406,0,o),
(1384,22,o),
(1384,51,cs),
(1384,409,ls),
(1384,438,o),
(1362,460,o),
(1333,460,cs),
(1080,460,ls),
(1051,460,o),
(1029,482,o),
(1029,511,cs),
(1029,524,ls),
(1029,553,o),
(1007,575,o),
(978,575,cs),
(196,575,ls),
(167,575,o),
(145,553,o),
(145,524,cs),
(145,51,ls),
(145,22,o),
(123,0,o),
(94,0,cs),
(81,0,ls),
(52,0,o),
(30,22,o),
(30,51,cs),
(30,639,ls),
(30,668,o),
(52,690,o),
(81,690,cs)
);
}
);
width = 1529;
}
);
unicode = 78;
}
{
glyphname = O;
lastChange = "2024-09-03 14:28:03 +0000";
layers = (
{
.lastUpdate = 747064636.624;
hints = (
{
horizontal = 1;
origin = (0,11);
target = (1,12);
type = Stem;
},
{
horizontal = 1;
origin = (1,3);
target = (0,34);
type = Stem;
},
{
origin = (0,47);
target = (1,15);
type = Stem;
},
{
origin = (1,8);
target = (0,23);
type = Stem;
}
);
layerId = "B9294602-EB87-4DCD-A39F-D52598F560AD";
shapes = (
{
closed = 1;
nodes = (
(30,137,o),
(52,115,o),
(81,115,cs),
(94,115,ls),
(123,115,o),
(145,93,o),
(145,64,cs),
(145,51,ls),
(145,22,o),
(167,0,o),
(196,0,cs),
(323,0,ls),
(352,0,o),
(375,22,o),
(375,51,cs),
(375,64,ls),
(375,93,o),
(397,115,o),
(426,115,cs),
(439,115,ls),
(468,115,o),
(490,137,o),
(490,166,cs),
(490,524,ls),
(490,553,o),
(468,575,o),
(439,575,cs),
(426,575,ls),
(397,575,o),
(375,597,o),
(375,626,cs),
(375,639,ls),
(375,668,o),
(352,690,o),
(323,690,cs),
(196,690,ls),
(167,690,o),
(145,668,o),
(145,639,cs),
(145,626,ls),
(145,597,o),
(123,575,o),
(94,575,cs),
(81,575,ls),
(52,575,o),
(30,553,o),
(30,524,cs),
(30,166,ls)
);
},
{
closed = 1;
nodes = (
(145,524,ls),
(145,553,o),
(167,575,o),
(196,575,cs),
(324,575,ls),
(353,575,o),
(375,553,o),
(375,524,cs),
(375,166,ls),
(375,137,o),
(353,115,o),
(324,115,cs),
(196,115,ls),
(167,115,o),
(145,137,o),
(145,166,cs)
);
}
);
width = 520;
},
{
.lastUpdate = 747066483.663;
hints = (
{
horizontal = 1;
origin = (0,11);
target = (1,12);
type = Stem;
},
{
horizontal = 1;
origin = (1,4);
target = (0,35);
type = Stem;
},
{
origin = (0,47);
target = (1,15);
type = Stem;
},
{
origin = (1,8);
target = (0,23);
type = Stem;
}
);
layerId = "52F3452F-C0C6-4900-9BFE-1786415B207F";
shapes = (
{
closed = 1;
nodes = (
(30,137,o),
(52,115,o),
(81,115,cs),
(94,115,ls),
(123,115,o),
(145,93,o),
(145,64,cs),
(145,51,ls),
(145,22,o),
(167,0,o),
(196,0,cs),
(1331,0,ls),
(1360,0,o),
(1383,22,o),
(1383,51,cs),
(1383,64,ls),
(1383,93,o),
(1405,115,o),
(1434,115,cs),
(1447,115,ls),
(1476,115,o),
(1498,137,o),
(1498,166,cs),
(1498,524,ls),
(1498,553,o),
(1476,575,o),
(1447,575,cs),
(1434,575,ls),
(1405,575,o),
(1383,597,o),
(1383,626,cs),
(1383,639,ls),
(1383,668,o),
(1360,690,o),
(1331,690,cs),
(196,690,ls),
(167,690,o),
(145,668,o),
(145,639,cs),
(145,626,ls),
(145,597,o),
(123,575,o),
(94,575,cs),
(81,575,ls),
(52,575,o),
(30,553,o),
(30,524,cs),
(30,166,ls)
);
},
{
closed = 1;
nodes = (
(145,524,ls),
(145,553,o),
(167,575,o),
(196,575,cs),
(1332,575,ls),
(1361,575,o),
(1383,553,o),
(1383,524,cs),
(1383,166,ls),
(1383,137,o),
(1361,115,o),
(1332,115,cs),
(196,115,ls),
(167,115,o),
(145,137,o),
(145,166,cs)
);
}
);
width = 1528;
}
);
unicode = 79;
}
{
glyphname = P;
lastChange = "2024-09-03 14:30:57 +0000";
layers = (
{
.lastUpdate = 747063128.173;
hints = (
{
horizontal = 1;
origin = (0,28);
target = (1,12);
type = Stem;
},
{
horizontal = 1;
origin = (1,4);
target = (0,43);
type = Stem;
},
{
origin = (0,23);
target = (0,16);
type = Stem;
},
{
origin = (1,15);
target = (0,0);
type = Stem;
}
);
layerId = "B9294602-EB87-4DCD-A39F-D52598F560AD";
shapes = (
{
closed = 1;
nodes = (
(490,396,ls),
(490,367,o),
(468,345,o),
(439,345,cs),
(426,345,ls),
(397,345,o),
(375,323,o),
(375,294,cs),
(375,281,ls),
(375,252,o),
(353,230,o),
(324,230,cs),
(196,230,ls),
(167,230,o),
(145,208,o),
(145,179,cs),
(145,51,ls),
(145,22,o),
(123,0,o),
(94,0,cs),
(81,0,ls),
(52,0,o),
(30,22,o),
(30,51,cs),
(30,179,ls),
(30,208,o),
(52,230,o),
(81,230,cs),
(94,230,ls),
(123,230,o),
(145,252,o),
(145,281,cs),
(145,294,ls),
(145,323,o),
(123,345,o),
(94,345,cs),
(81,345,ls),
(52,345,o),
(30,367,o),
(30,396,cs),
(30,639,ls),
(30,668,o),
(52,690,o),
(81,690,cs),
(324,690,ls),
(353,690,o),
(375,668,o),
(375,639,cs),
(375,626,ls),
(375,597,o),
(397,575,o),
(426,575,cs),
(439,575,ls),
(468,575,o),
(490,553,o),
(490,524,cs)
);
},
{
closed = 1;
nodes = (
(375,524,ls),
(375,553,o),
(353,575,o),
(324,575,cs),
(196,575,ls),
(167,575,o),
(145,553,o),
(145,524,cs),
(145,396,ls),
(145,367,o),
(167,345,o),
(196,345,cs),
(324,345,ls),
(353,345,o),
(375,367,o),
(375,396,cs)
);
}
);
width = 520;
},
{
.lastUpdate = 747066657.141;
hints = (
{
horizontal = 1;
origin = (0,28);
target = (1,12);
type = Stem;
},
{
origin = (0,23);
target = (1,7);
type = Stem;
},
{
origin = (1,15);
target = (0,55);
type = Stem;
},
{
horizontal = 1;
origin = (1,3);
target = (0,43);
type = Stem;
}
);
layerId = "52F3452F-C0C6-4900-9BFE-1786415B207F";
shapes = (
{
closed = 1;
nodes = (
(1498,396,ls),
(1498,367,o),
(1476,345,o),
(1447,345,cs),
(1434,345,ls),
(1405,345,o),
(1383,323,o),
(1383,294,cs),
(1383,281,ls),
(1383,252,o),
(1361,230,o),
(1332,230,cs),
(196,230,ls),
(167,230,o),
(145,208,o),
(145,179,cs),
(145,51,ls),
(145,22,o),
(123,0,o),
(94,0,cs),
(81,0,ls),
(52,0,o),
(30,22,o),
(30,51,cs),
(30,179,ls),
(30,208,o),
(52,230,o),
(81,230,cs),
(94,230,ls),
(123,230,o),
(145,252,o),
(145,281,cs),
(145,294,ls),
(145,323,o),
(123,345,o),
(94,345,cs),
(81,345,ls),
(52,345,o),
(30,367,o),
(30,396,cs),
(30,639,ls),
(30,668,o),
(52,690,o),
(81,690,cs),
(1332,690,ls),
(1361,690,o),
(1383,668,o),
(1383,639,cs),
(1383,626,ls),
(1383,597,o),
(1405,575,o),
(1434,575,cs),
(1447,575,ls),
(1476,575,o),
(1498,553,o),
(1498,524,cs)
);
},
{
closed = 1;
nodes = (
(1383,524,ls),
(1383,553,o),
(1361,575,o),
(1332,575,cs),
(196,575,ls),
(167,575,o),
(145,553,o),
(145,524,cs),
(145,396,ls),
(145,367,o),
(167,345,o),
(196,345,cs),
(1332,345,ls),
(1361,345,o),
(1383,367,o),
(1383,396,cs)
);
}
);
width = 1528;
}
);
unicode = 80;
}
{
glyphname = Q;
lastChange = "2024-09-03 14:31:15 +0000";
layers = (
{
.lastUpdate = 747064647.848;
hints = (
{
horizontal = 1;
origin = (0,20);
target = (1,20);
type = Stem;
},
{
horizontal = 1;
origin = (1,3);
target = (0,51);
type = Stem;
},
{
origin = (1,8);
target = (0,40);
type = Stem;
},
{
origin = (0,64);
target = (1,0);
type = Stem;
},
{
horizontal = 1;
origin = (0,68);
target = (1,12);
type = Stem;
}
);
layerId = "B9294602-EB87-4DCD-A39F-D52598F560AD";
shapes = (
{
closed = 1;
nodes = (
(145,51,ls),
(145,22,o),
(167,0,o),
(196,0,cs),
(209,0,ls),
(238,0,o),
(260,22,o),
(260,51,cs),
(260,64,ls),
(260,93,o),
(282,115,o),
(311,115,cs),
(324,115,ls),
(353,115,o),
(375,93,o),
(375,64,cs),
(375,51,ls),
(375,22,o),
(397,0,o),
(426,0,cs),
(439,0,ls),
(468,0,o),
(490,22,o),
(490,51,cs),
(490,64,ls),
(490,93,o),
(468,115,o),
(439,115,cs),
(426,115,ls),
(397,115,o),
(375,137,o),
(375,166,cs),
(375,177,ls),
(375,207,o),
(397,228,o),
(427,228,cs),
(438,228,ls),
(467,228,o),
(490,251,o),
(490,280,cs),
(490,525,ls),
(490,554,o),
(469,576,o),
(440,576,cs),
(425,576,ls),
(396,576,o),
(375,597,o),
(375,626,cs),
(375,639,ls),
(375,668,o),
(353,690,o),
(324,690,cs),
(196,690,ls),
(167,690,o),
(145,668,o),
(145,639,cs),
(145,626,ls),
(145,597,o),
(123,575,o),
(94,575,cs),
(81,575,ls),
(52,575,o),
(30,553,o),
(30,524,cs),
(30,166,ls),
(30,137,o),
(52,115,o),
(81,115,cs),
(94,115,ls),
(123,115,o),
(145,93,o),
(145,64,cs)
);
},
{
closed = 1;
nodes = (
(145,524,ls),
(145,553,o),
(167,575,o),
(196,575,cs),
(324,575,ls),
(353,575,o),
(375,553,o),
(375,524,cs),
(375,281,ls),
(375,252,o),
(353,230,o),
(324,230,cs),
(311,230,ls),
(282,230,o),
(260,208,o),
(260,179,cs),
(260,166,ls),
(260,137,o),
(238,115,o),
(209,115,cs),
(196,115,ls),
(167,115,o),
(145,137,o),
(145,166,cs)
);
}
);
width = 520;
},
{
.lastUpdate = 747066675.412;
hints = (
{
horizontal = 1;
origin = (0,20);
target = (1,20);
type = Stem;
},
{
horizontal = 1;
origin = (1,4);
target = (0,52);
type = Stem;
},
{
horizontal = 1;
origin = (1,20);
target = (1,12);
type = Stem;
},
{
origin = (0,64);
target = (1,23);
type = Stem;
},
{
origin = (1,8);
target = (0,40);
type = Stem;
}
);
layerId = "52F3452F-C0C6-4900-9BFE-1786415B207F";
shapes = (
{
closed = 1;
nodes = (
(145,51,ls),
(145,22,o),
(167,0,o),
(196,0,cs),
(975,0,ls),
(1004,0,o),
(1026,22,o),
(1026,51,cs),
(1026,64,ls),
(1026,93,o),
(1048,115,o),
(1077,115,cs),
(1332,115,ls),
(1361,115,o),
(1383,93,o),
(1383,64,cs),
(1383,51,ls),
(1383,22,o),
(1405,0,o),
(1434,0,cs),
(1447,0,ls),
(1476,0,o),
(1498,22,o),
(1498,51,cs),
(1498,64,ls),
(1498,93,o),
(1476,115,o),
(1447,115,cs),
(1434,115,ls),
(1405,115,o),
(1383,137,o),
(1383,166,cs),
(1383,177,ls),
(1383,207,o),
(1405,228,o),
(1435,228,cs),
(1446,228,ls),
(1475,228,o),
(1498,251,o),
(1498,280,cs),
(1498,525,ls),
(1498,554,o),
(1477,576,o),
(1448,576,cs),
(1433,576,ls),
(1404,576,o),
(1383,597,o),
(1383,626,cs),
(1383,639,ls),
(1383,668,o),
(1361,690,o),
(1332,690,cs),
(196,690,ls),
(167,690,o),
(145,668,o),
(145,639,cs),
(145,626,ls),
(145,597,o),
(123,575,o),
(94,575,cs),
(81,575,ls),
(52,575,o),
(30,553,o),
(30,524,cs),
(30,166,ls),
(30,137,o),
(52,115,o),
(81,115,cs),
(94,115,ls),
(123,115,o),
(145,93,o),
(145,64,cs)
);
},
{
closed = 1;
nodes = (
(145,524,ls),
(145,553,o),
(167,575,o),
(196,575,cs),
(1332,575,ls),
(1361,575,o),
(1383,553,o),
(1383,524,cs),
(1383,281,ls),
(1383,252,o),
(1361,230,o),
(1332,230,cs),
(1077,230,ls),
(1048,230,o),
(1026,208,o),
(1026,179,cs),
(1026,166,ls),
(1026,137,o),
(1004,115,o),
(975,115,cs),
(196,115,ls),
(167,115,o),
(145,137,o),
(145,166,cs)
);
}
);
width = 1528;
}
);
unicode = 81;
}
{
glyphname = R;
lastChange = "2024-09-03 14:32:04 +0000";
layers = (
{
.lastUpdate = 747063584.078;
hints = (
{
horizontal = 1;
origin = (0,60);
target = (1,3);
type = Stem;
},
{
horizontal = 1;
origin = (1,11);
target = (0,19);
type = Stem;
},
{
origin = (0,71);
target = (0,64);
type = Stem;
},
{
origin = (0,55);
target = (0,48);
type = Stem;
}
);
layerId = "B9294602-EB87-4DCD-A39F-D52598F560AD";
shapes = (
{
closed = 1;
nodes = (
(30,179,ls),
(30,208,o),
(52,230,o),
(81,230,cs),
(94,230,ls),
(123,230,o),
(145,252,o),
(145,281,cs),
(145,294,ls),
(145,323,o),
(124,345,o),
(95,345,cs),
(80,345,ls),
(51,345,o),
(30,367,o),
(30,396,cs),
(30,639,ls),
(30,668,o),
(52,690,o),
(81,690,cs),
(324,690,ls),
(353,690,o),
(375,668,o),
(375,639,cs),
(375,626,ls),
(375,597,o),
(397,575,o),
(426,575,cs),
(439,575,ls),
(468,575,o),
(490,553,o),
(490,524,cs),
(490,396,ls),
(490,367,o),
(468,345,o),
(439,345,cs),
(426,345,ls),
(397,345,o),
(375,323,o),
(375,294,cs),
(375,281,ls),
(375,252,o),
(397,230,o),
(426,230,cs),
(439,230,ls),
(468,230,o),
(490,208,o),
(490,179,cs),
(490,51,ls),
(490,22,o),
(468,0,o),
(439,0,cs),
(426,0,ls),
(397,0,o),
(375,22,o),
(375,51,cs),
(375,179,ls),
(375,208,o),
(353,230,o),
(324,230,cs),
(196,230,ls),
(167,230,o),
(145,208,o),
(145,179,cs),
(145,51,ls),
(145,22,o),
(123,0,o),
(94,0,cs),
(81,0,ls),
(52,0,o),
(30,22,o),
(30,51,cs)
);
},
{
closed = 1;
nodes = (
(145,367,o),
(167,345,o),
(196,345,cs),
(324,345,ls),
(353,345,o),
(375,367,o),
(375,396,cs),
(375,524,ls),
(375,553,o),
(353,575,o),
(324,575,cs),
(196,575,ls),
(167,575,o),
(145,553,o),
(145,524,cs),
(145,396,ls)
);
}
);
width = 520;
},
{
.lastUpdate = 747066724.571;
hints = (
{
horizontal = 1;
origin = (0,60);
target = (1,3);
type = Stem;
},
{
origin = (0,71);
target = (1,14);
type = Stem;
},
{
horizontal = 1;
origin = (1,10);
target = (0,19);
type = Stem;
},
{
origin = (0,55);
target = (0,31);
type = Stem;
}
);
layerId = "52F3452F-C0C6-4900-9BFE-1786415B207F";
shapes = (
{
closed = 1;
nodes = (
(30,179,ls),
(30,208,o),
(52,230,o),
(81,230,cs),
(94,230,ls),
(123,230,o),
(145,252,o),
(145,281,cs),
(145,294,ls),
(145,323,o),
(124,345,o),
(95,345,cs),
(80,345,ls),
(51,345,o),
(30,367,o),
(30,396,cs),
(30,639,ls),
(30,668,o),
(52,690,o),
(81,690,cs),
(1332,690,ls),
(1361,690,o),
(1383,668,o),
(1383,639,cs),
(1383,626,ls),
(1383,597,o),
(1405,575,o),
(1434,575,cs),
(1447,575,ls),
(1476,575,o),
(1498,553,o),
(1498,524,cs),
(1498,396,ls),
(1498,367,o),
(1476,345,o),
(1447,345,cs),
(1434,345,ls),
(1405,345,o),
(1383,323,o),
(1383,294,cs),
(1383,281,ls),
(1383,252,o),
(1405,230,o),
(1434,230,cs),
(1447,230,ls),
(1476,230,o),
(1498,208,o),
(1498,179,cs),
(1498,51,ls),
(1498,22,o),
(1476,0,o),
(1447,0,cs),
(1434,0,ls),
(1405,0,o),
(1383,22,o),
(1383,51,cs),
(1383,179,ls),
(1383,208,o),
(1361,230,o),
(1332,230,cs),
(196,230,ls),
(167,230,o),
(145,208,o),
(145,179,cs),
(145,51,ls),
(145,22,o),
(123,0,o),
(94,0,cs),
(81,0,ls),
(52,0,o),
(30,22,o),
(30,51,cs)
);
},
{
closed = 1;
nodes = (
(145,367,o),
(167,345,o),
(196,345,cs),
(1332,345,ls),
(1361,345,o),
(1383,367,o),
(1383,396,cs),
(1383,524,ls),
(1383,553,o),
(1361,575,o),
(1332,575,cs),
(196,575,ls),
(167,575,o),
(145,553,o),
(145,524,cs),
(145,396,ls)
);
}
);
width = 1528;
}
);
unicode = 82;
}
{
glyphname = S;
lastChange = "2024-09-03 14:32:56 +0000";
layers = (
{
.lastUpdate = 747064681.072;
hints = (
{
horizontal = 1;
origin = (0,83);
target = (0,26);
type = Stem;
},
{
horizontal = 1;
origin = (0,58);
target = (0,50);
type = Stem;
},
{
horizontal = 1;
origin = (0,11);
target = (0,91);
type = Stem;
},
{
horizontal = 1;
origin = (0,74);
target = (0,35);
type = Stem;
},
{
origin = (0,103);
target = (0,95);
type = Stem;
},
{
origin = (0,87);
target = (0,47);
type = Stem;
}
);
layerId = "B9294602-EB87-4DCD-A39F-D52598F560AD";
shapes = (
{
closed = 1;
nodes = (
(30,137,o),
(52,115,o),
(81,115,cs),
(94,115,ls),
(123,115,o),
(145,93,o),
(145,64,cs),
(145,51,ls),
(145,22,o),
(167,0,o),
(196,0,cs),
(439,0,ls),
(468,0,o),
(490,22,o),
(490,51,cs),
(490,294,ls),
(490,323,o),
(468,345,o),
(439,345,cs),
(426,345,ls),
(397,345,o),
(375,367,o),
(375,396,cs),
(375,409,ls),
(375,438,o),
(353,460,o),
(324,460,cs),
(311,460,ls),
(282,460,o),
(260,438,o),
(260,409,cs),
(260,396,ls),
(260,367,o),
(238,345,o),
(209,345,cs),
(196,345,ls),
(167,345,o),
(145,367,o),
(145,396,cs),
(145,524,ls),
(145,553,o),
(167,575,o),
(196,575,cs),
(439,575,ls),
(468,575,o),
(490,597,o),
(490,626,cs),
(490,639,ls),
(490,668,o),
(468,690,o),
(439,690,cs),
(196,690,ls),
(167,690,o),
(145,668,o),
(145,639,cs),
(145,626,ls),
(145,597,o),
(123,575,o),
(94,575,cs),
(81,575,ls),
(52,575,o),
(30,553,o),
(30,524,cs),
(30,396,ls),
(30,367,o),
(52,345,o),
(81,345,cs),
(94,345,ls),
(123,345,o),
(145,323,o),
(145,294,cs),
(145,281,ls),
(145,252,o),
(167,230,o),
(196,230,cs),
(209,230,ls),
(238,230,o),
(260,252,o),
(260,281,cs),
(260,294,ls),
(260,323,o),
(282,345,o),
(311,345,cs),
(324,345,ls),
(353,345,o),
(375,323,o),
(375,294,cs),
(375,166,ls),
(375,137,o),
(353,115,o),
(324,115,cs),
(196,115,ls),
(167,115,o),
(145,137,o),
(145,166,cs),
(145,179,ls),
(145,208,o),
(123,230,o),
(94,230,cs),
(81,230,ls),
(52,230,o),
(30,208,o),
(30,179,cs),
(30,166,ls)
);
}
);
width = 520;
},
{
.lastUpdate = 747066776.308;
hints = (
{
horizontal = 1;
origin = (0,43);
target = (0,51);
type = Stem;
},
{
horizontal = 1;
origin = (0,11);
target = (0,91);
type = Stem;
},
{
horizontal = 1;
origin = (0,99);
target = (0,83);
type = Stem;
},
{
horizontal = 1;
origin = (0,83);
target = (0,27);
type = Stem;
},
{
origin = (0,103);
target = (0,95);
type = Stem;
},
{
origin = (0,87);
target = (0,15);
type = Stem;
}
);
layerId = "52F3452F-C0C6-4900-9BFE-1786415B207F";
shapes = (
{
closed = 1;
nodes = (
(30,137,o),
(52,115,o),
(81,115,cs),
(94,115,ls),
(123,115,o),
(145,93,o),
(145,64,cs),
(145,51,ls),
(145,22,o),
(167,0,o),
(196,0,cs),
(1447,0,ls),
(1476,0,o),
(1498,22,o),
(1498,51,cs),
(1498,294,ls),
(1498,323,o),
(1476,345,o),
(1447,345,cs),
(1434,345,ls),
(1405,345,o),
(1383,367,o),
(1383,396,cs),
(1383,409,ls),
(1383,438,o),
(1361,460,o),
(1332,460,cs),
(862,460,ls),
(833,460,o),
(811,438,o),
(811,409,cs),
(811,396,ls),
(811,367,o),
(789,345,o),
(760,345,cs),
(196,345,ls),
(166,345,o),
(145,367,o),
(145,396,cs),
(145,524,ls),
(145,553,o),
(167,575,o),
(196,575,cs),
(1447,575,ls),
(1476,575,o),
(1498,597,o),
(1498,626,cs),
(1498,639,ls),
(1498,668,o),
(1476,690,o),
(1447,690,cs),
(196,690,ls),
(167,690,o),
(145,668,o),
(145,639,cs),
(145,626,ls),
(145,597,o),
(123,575,o),
(94,575,cs),
(81,575,ls),
(52,575,o),
(30,553,o),
(30,524,cs),
(30,396,ls),
(30,367,o),
(52,345,o),
(81,345,cs),
(94,345,ls),
(123,345,o),
(145,323,o),
(145,294,cs),
(145,281,ls),
(145,252,o),
(166,230,o),
(196,230,cs),
(760,230,ls),
(789,230,o),
(811,252,o),
(811,281,cs),
(811,294,ls),
(811,323,o),
(833,345,o),
(862,345,cs),
(1332,345,ls),
(1361,345,o),
(1383,323,o),
(1383,294,cs),
(1383,166,ls),
(1383,137,o),
(1361,115,o),
(1332,115,cs),
(196,115,ls),
(167,115,o),
(145,137,o),
(145,166,cs),
(145,179,ls),
(145,208,o),
(123,230,o),
(94,230,cs),
(81,230,ls),
(52,230,o),
(30,208,o),
(30,179,cs),
(30,166,ls)
);
}
);
width = 1528;
}
);
unicode = 83;
}
{
glyphname = T;
lastChange = "2024-09-03 14:33:34 +0000";
layers = (
{
.lastUpdate = 747064689.354;
hints = (
{
horizontal = 1;
origin = (0,23);
target = (0,15);
type = Stem;
},
{
origin = (0,28);
target = (0,4);
type = Stem;
}
);
layerId = "B9294602-EB87-4DCD-A39F-D52598F560AD";
shapes = (
{
closed = 1;
nodes = (
(267,0,ls),
(296,0,o),
(318,22,o),
(318,51,cs),
(318,524,ls),
(318,553,o),
(340,575,o),
(369,575,cs),
(440,575,ls),
(468,575,o),
(490,597,o),
(490,626,cs),
(490,639,ls),
(490,668,o),
(468,690,o),
(440,690,cs),
(80,690,ls),
(52,690,o),
(30,668,o),
(30,639,cs),
(30,626,ls),
(30,597,o),
(52,575,o),
(79,575,cs),
(152,575,ls),
(181,575,o),
(203,553,o),
(203,524,cs),
(203,51,ls),
(203,22,o),
(225,0,o),
(254,0,cs)
);
}
);
width = 520;
},
{
.lastUpdate = 747066814.538;
hints = (
{
horizontal = 1;
origin = (0,8);
target = (0,16);
type = Stem;
},
{
origin = (0,28);
target = (0,4);
type = Stem;
}
);
layerId = "52F3452F-C0C6-4900-9BFE-1786415B207F";
shapes = (
{
closed = 1;
nodes = (
(771,0,ls),
(800,0,o),
(822,22,o),
(822,51,cs),
(822,524,ls),
(822,553,o),
(844,575,o),
(873,575,cs),
(1448,575,ls),
(1476,575,o),
(1498,597,o),
(1498,626,cs),
(1498,639,ls),
(1498,668,o),
(1476,690,o),
(1448,690,cs),
(80,690,ls),
(52,690,o),
(30,668,o),
(30,639,cs),
(30,626,ls),
(30,597,o),
(52,575,o),
(79,575,cs),
(656,575,ls),
(685,575,o),
(707,553,o),
(707,524,cs),
(707,51,ls),
(707,22,o),
(729,0,o),
(758,0,cs)
);
}
);
width = 1528;
}
);
unicode = 84;
}
{
glyphname = U;
lastChange = "2024-09-03 14:33:47 +0000";
layers = (
{
hints = (
{
horizontal = 1;
origin = (0,28);
target = (0,20);
type = Stem;
},
{
origin = (0,16);
target = (0,24);
type = Stem;
},
{
origin = (0,39);
target = (0,32);
type = Stem;
}
);
layerId = "B9294602-EB87-4DCD-A39F-D52598F560AD";
shapes = (
{
closed = 1;
nodes = (
(375,166,ls),
(375,137,o),
(353,115,o),
(324,115,cs),
(196,115,ls),
(167,115,o),
(145,137,o),
(145,166,cs),
(145,639,ls),
(145,668,o),
(123,690,o),
(94,690,cs),
(81,690,ls),
(52,690,o),
(30,668,o),
(30,639,cs),
(30,166,ls),
(30,137,o),
(52,115,o),
(81,115,cs),
(94,115,ls),
(123,115,o),
(145,93,o),
(145,64,cs),
(145,51,ls),
(145,22,o),
(167,0,o),
(196,0,cs),
(439,0,ls),
(468,0,o),
(490,22,o),
(490,51,cs),
(490,639,ls),
(490,668,o),
(468,690,o),
(439,690,cs),
(426,690,ls),
(397,690,o),
(375,668,o),
(375,639,cs)
);
}
);
width = 520;
},
{
.lastUpdate = 747066827.471;
hints = (
{
horizontal = 1;
origin = (0,28);
target = (0,20);
type = Stem;
},
{
origin = (0,16);
target = (0,8);
type = Stem;
},
{
origin = (0,0);
target = (0,32);
type = Stem;
}
);
layerId = "52F3452F-C0C6-4900-9BFE-1786415B207F";
shapes = (
{
closed = 1;
nodes = (
(1383,166,ls),
(1383,137,o),
(1361,115,o),
(1332,115,cs),
(196,115,ls),
(167,115,o),
(145,137,o),
(145,166,cs),
(145,639,ls),
(145,668,o),
(123,690,o),
(94,690,cs),
(81,690,ls),
(52,690,o),
(30,668,o),
(30,639,cs),
(30,166,ls),
(30,137,o),
(52,115,o),
(81,115,cs),
(94,115,ls),
(123,115,o),
(145,93,o),
(145,64,cs),
(145,51,ls),
(145,22,o),
(167,0,o),
(196,0,cs),
(1447,0,ls),
(1476,0,o),
(1498,22,o),
(1498,51,cs),
(1498,639,ls),
(1498,668,o),
(1476,690,o),
(1447,690,cs),
(1434,690,ls),
(1405,690,o),
(1383,668,o),
(1383,639,cs)
);
}
);
width = 1528;
}
);
unicode = 85;
}
{
glyphname = V;
lastChange = "2024-09-03 14:34:53 +0000";
layers = (
{
.lastUpdate = 747063688.862;
hints = (
{
horizontal = 1;
origin = (0,43);
target = (0,19);
type = Stem;
},
{
horizontal = 1;
origin = (0,34);
target = (0,11);
type = Stem;
},
{
origin = (0,63);
target = (0,7);
type = Stem;
},
{
origin = (0,22);
target = (0,31);
type = Stem;
}
);
layerId = "B9294602-EB87-4DCD-A39F-D52598F560AD";
shapes = (
{
closed = 1;
nodes = (
(30,668,o),
(52,690,o),
(81,690,cs),
(94,690,ls),
(123,690,o),
(145,668,o),
(145,639,cs),
(145,281,ls),
(145,252,o),
(167,230,o),
(196,230,cs),
(209,230,ls),
(238,230,o),
(260,208,o),
(260,179,cs),
(260,166,ls),
(260,137,o),
(282,115,o),
(311,115,cs),
(324,115,ls),
(353,115,o),
(375,137,o),
(375,166,cs),
(375,639,ls),
(375,668,o),
(397,690,o),
(426,690,cs),
(439,690,ls),
(468,690,o),
(490,668,o),
(490,639,cs),
(490,166,ls),
(490,137,o),
(468,115,o),
(439,115,cs),
(426,115,ls),
(397,115,o),
(375,93,o),
(375,64,cs),
(375,51,ls),
(375,22,o),
(353,0,o),
(324,0,cs),
(311,0,ls),
(282,0,o),
(260,22,o),
(260,51,cs),
(260,64,ls),
(260,93,o),
(238,115,o),
(209,115,cs),
(196,115,ls),
(167,115,o),
(145,137,o),
(145,166,cs),
(145,177,ls),
(145,207,o),
(123,228,o),
(93,228,cs),
(82,228,ls),
(53,228,o),
(30,251,o),
(30,280,cs),
(30,639,ls)
);
}
);
width = 520;
},
{
.lastUpdate = 747066893.921;
hints = (
{
origin = (0,62);
target = (0,6);
type = Stem;
},
{
origin = (0,22);
target = (0,30);
type = Stem;
},
{
horizontal = 1;
origin = (0,50);
target = (0,10);
type = Stem;
},
{
horizontal = 1;
origin = (0,42);
target = (0,18);
type = Stem;
}
);
layerId = "52F3452F-C0C6-4900-9BFE-1786415B207F";
shapes = (
{
closed = 1;
nodes = (
(30,668,o),
(52,690,o),
(81,690,cs),
(94,690,ls),
(123,690,o),
(145,668,o),
(145,639,cs),
(145,281,ls),
(145,252,o),
(167,230,o),
(196,230,cs),
(471,230,ls),
(500,230,o),
(522,208,o),
(522,179,cs),
(522,166,ls),
(522,137,o),
(544,115,o),
(573,115,cs),
(1332,115,ls),
(1361,115,o),
(1383,137,o),
(1383,166,cs),
(1383,639,ls),
(1383,668,o),
(1405,690,o),
(1434,690,cs),
(1447,690,ls),
(1476,690,o),
(1498,668,o),
(1498,639,cs),
(1498,166,ls),
(1498,137,o),
(1476,115,o),
(1447,115,cs),
(1434,115,ls),
(1405,115,o),
(1383,93,o),
(1383,64,cs),
(1383,51,ls),
(1383,22,o),
(1361,0,o),
(1332,0,cs),
(573,0,ls),
(544,0,o),
(522,22,o),
(522,51,cs),
(522,64,ls),
(522,93,o),
(500,115,o),
(471,115,cs),
(196,115,ls),
(167,115,o),
(145,137,o),
(145,166,cs),
(145,177,ls),
(145,207,o),
(123,228,o),
(93,228,cs),
(82,228,ls),
(53,228,o),
(30,251,o),
(30,280,cs),
(30,639,ls)
);
}
);
width = 1528;
}
);
unicode = 86;
}
{
glyphname = W;
lastChange = "2024-09-03 14:35:52 +0000";
layers = (
{
.lastUpdate = 747063752.779;
hints = (
{
origin = (0,40);
target = (0,47);
type = Stem;
},
{
origin = (0,56);
target = (0,63);
type = Stem;
},
{
origin = (0,72);
target = (0,79);
type = Stem;
},
{
horizontal = 1;
origin = (0,28);
target = (0,68);
type = Stem;
}
);
layerId = "B9294602-EB87-4DCD-A39F-D52598F560AD";
shapes = (
{
closed = 1;
nodes = (
(605,166,ls),
(605,137,o),
(584,115,o),
(555,115,cs),
(540,115,ls),
(511,115,o),
(490,93,o),
(490,64,cs),
(490,51,ls),
(490,22,o),
(469,0,o),
(440,0,cs),
(425,0,ls),
(396,0,o),
(375,22,o),
(375,51,cs),
(375,64,ls),
(375,93,o),
(354,115,o),
(325,115,cs),
(310,115,ls),
(281,115,o),
(260,93,o),
(260,64,cs),
(260,51,ls),
(260,22,o),
(239,0,o),
(210,0,cs),
(195,0,ls),
(166,0,o),
(145,22,o),
(145,51,cs),
(145,64,ls),
(145,93,o),
(124,115,o),
(95,115,cs),
(80,115,ls),
(51,115,o),
(30,137,o),
(30,166,cs),
(30,639,ls),
(30,668,o),
(51,690,o),
(80,690,cs),
(95,690,ls),
(124,690,o),
(145,668,o),
(145,639,cs),
(145,166,ls),
(145,137,o),
(166,115,o),
(195,115,cs),
(210,115,ls),
(239,115,o),
(260,137,o),
(260,166,cs),
(260,639,ls),
(260,668,o),
(281,690,o),
(310,690,cs),
(325,690,ls),
(354,690,o),
(375,668,o),
(375,639,cs),
(375,166,ls),
(375,137,o),
(396,115,o),
(425,115,cs),
(440,115,ls),
(469,115,o),
(490,137,o),
(490,166,cs),
(490,639,ls),
(490,668,o),
(511,690,o),
(540,690,cs),
(555,690,ls),
(584,690,o),
(605,668,o),
(605,639,cs)
);
}
);
width = 635;
},
{
.lastUpdate = 747066952.518;
hints = (
{
origin = (0,56);
target = (0,64);
type = Stem;
},
{
origin = (0,39);
target = (0,47);
type = Stem;
},
{
origin = (0,71);
target = (0,79);
type = Stem;
},
{
horizontal = 1;
origin = (0,12);
target = (0,51);
type = Stem;
},
{
horizontal = 1;
origin = (0,27);
target = (0,68);
type = Stem;
}
);
layerId = "52F3452F-C0C6-4900-9BFE-1786415B207F";
shapes = (
{
closed = 1;
nodes = (
(1499,166,ls),
(1499,137,o),
(1478,115,o),
(1449,115,cs),
(1434,115,ls),
(1405,115,o),
(1384,93,o),
(1384,64,cs),
(1384,51,ls),
(1384,22,o),
(1363,0,o),
(1334,0,cs),
(872,0,ls),
(843,0,o),
(822,22,o),
(822,51,cs),
(822,64,ls),
(822,93,o),
(801,115,o),
(772,115,cs),
(757,115,ls),
(728,115,o),
(707,93,o),
(707,64,cs),
(707,51,ls),
(707,22,o),
(686,0,o),
(657,0,cs),
(195,0,ls),
(166,0,o),
(145,22,o),
(145,51,cs),
(145,64,ls),
(145,93,o),
(124,115,o),
(95,115,cs),
(80,115,ls),
(51,115,o),
(30,137,o),
(30,166,cs),
(30,639,ls),
(30,668,o),
(51,690,o),
(80,690,cs),
(95,690,ls),
(124,690,o),
(145,668,o),
(145,639,cs),
(145,166,ls),
(145,137,o),
(166,115,o),
(195,115,cs),
(657,115,ls),
(686,115,o),
(707,137,o),
(707,166,cs),
(707,639,ls),
(707,668,o),
(728,690,o),
(757,690,cs),
(772,690,ls),
(801,690,o),
(822,668,o),
(822,639,cs),
(822,166,ls),
(822,137,o),
(843,115,o),
(872,115,cs),
(1334,115,ls),
(1363,115,o),
(1384,137,o),
(1384,166,cs),
(1384,639,ls),
(1384,668,o),
(1405,690,o),
(1434,690,cs),
(1449,690,ls),
(1478,690,o),
(1499,668,o),
(1499,639,cs)
);
}
);
width = 1529;
}
);
unicode = 87;
}
{
glyphname = X;
lastChange = "2024-09-03 14:36:01 +0000";
layers = (
{
hints = (
{
horizontal = 1;
origin = (0,75);
target = (0,67);
type = Stem;
},
{
origin = (0,79);
target = (0,71);
type = Stem;
},
{
origin = (0,47);
target = (0,39);
type = Stem;
}
);
layerId = "B9294602-EB87-4DCD-A39F-D52598F560AD";
shapes = (
{
closed = 1;
nodes = (
(30,22,o),
(52,0,o),
(81,0,cs),
(94,0,ls),
(123,0,o),
(145,22,o),
(145,51,cs),
(145,294,ls),
(145,323,o),
(167,345,o),
(196,345,cs),
(324,345,ls),
(349,345,o),
(375,323,o),
(375,294,cs),
(375,51,ls),
(375,22,o),
(397,0,o),
(426,0,cs),
(439,0,ls),
(468,0,o),
(490,22,o),
(490,51,cs),
(490,294,ls),
(490,323,o),
(468,345,o),
(439,345,cs),
(426,345,ls),
(397,345,o),
(375,367,o),
(375,396,cs),
(375,409,ls),
(375,438,o),
(397,460,o),
(426,460,cs),
(439,460,ls),
(468,460,o),
(490,482,o),
(490,511,cs),
(490,639,ls),
(490,668,o),
(468,690,o),
(439,690,cs),
(426,690,ls),
(397,690,o),
(375,668,o),
(375,639,cs),
(375,511,ls),
(375,482,o),
(353,460,o),
(324,460,cs),
(196,460,ls),
(167,460,o),
(145,482,o),
(145,511,cs),
(145,639,ls),
(145,668,o),
(123,690,o),
(94,690,cs),
(81,690,ls),
(53,690,o),
(30,668,o),
(30,639,cs),
(30,511,ls),
(30,482,o),
(52,460,o),
(81,460,cs),
(94,460,ls),
(123,460,o),
(145,438,o),
(145,409,cs),
(145,396,ls),
(145,367,o),
(123,345,o),
(94,345,cs),
(81,345,ls),
(52,345,o),
(30,323,o),
(30,294,cs),
(30,51,ls)
);
}
);
width = 520;
},
{
hints = (
{
horizontal = 1;
origin = (0,75);
target = (0,67);
type = Stem;
},
{
origin = (0,79);
target = (0,71);
type = Stem;
},
{
origin = (0,47);
target = (0,39);
type = Stem;
}
);
layerId = "52F3452F-C0C6-4900-9BFE-1786415B207F";
shapes = (
{
closed = 1;
nodes = (
(30,22,o),
(52,0,o),
(81,0,cs),
(94,0,ls),
(123,0,o),
(145,22,o),
(145,51,cs),
(145,294,ls),
(145,323,o),
(167,345,o),
(196,345,cs),
(1332,345,ls),
(1357,345,o),
(1383,323,o),
(1383,294,cs),
(1383,51,ls),
(1383,22,o),
(1405,0,o),
(1434,0,cs),
(1447,0,ls),
(1476,0,o),
(1498,22,o),
(1498,51,cs),
(1498,294,ls),
(1498,323,o),
(1476,345,o),
(1447,345,cs),
(1434,345,ls),
(1405,345,o),
(1383,367,o),
(1383,396,cs),
(1383,409,ls),
(1383,438,o),
(1405,460,o),
(1434,460,cs),
(1447,460,ls),
(1476,460,o),
(1498,482,o),
(1498,511,cs),
(1498,639,ls),
(1498,668,o),
(1476,690,o),
(1447,690,cs),
(1434,690,ls),
(1405,690,o),
(1383,668,o),
(1383,639,cs),
(1383,511,ls),
(1383,482,o),
(1361,460,o),
(1332,460,cs),
(196,460,ls),
(167,460,o),
(145,482,o),
(145,511,cs),
(145,639,ls),
(145,668,o),
(123,690,o),
(94,690,cs),
(81,690,ls),
(53,690,o),
(30,668,o),
(30,639,cs),
(30,511,ls),
(30,482,o),
(52,460,o),
(81,460,cs),
(94,460,ls),
(123,460,o),
(145,438,o),
(145,409,cs),
(145,396,ls),
(145,367,o),
(123,345,o),
(94,345,cs),
(81,345,ls),
(52,345,o),
(30,323,o),
(30,294,cs),
(30,51,ls)
);
}
);
width = 1528;
}
);
unicode = 88;
}
{
glyphname = Y;
lastChange = "2024-09-04 09:33:46 +0000";
layers = (
{
.lastUpdate = 747135229.006;
hints = (
{
horizontal = 1;
origin = (0,11);
target = (0,59);
type = Stem;
},
{
horizontal = 1;
origin = (0,67);
target = (0,43);
type = Stem;
},
{
origin = (0,71);
target = (0,63);
type = Stem;
},
{
origin = (0,55);
target = (0,15);
type = Stem;
}
);
layerId = "B9294602-EB87-4DCD-A39F-D52598F560AD";
shapes = (
{
closed = 1;
nodes = (
(30,137,o),
(52,115,o),
(81,115,cs),
(94,115,ls),
(123,115,o),
(145,93,o),
(145,64,cs),
(145,51,ls),
(145,22,o),
(167,0,o),
(196,0,cs),
(439,0,ls),
(468,0,o),
(490,22,o),
(490,51,cs),
(490,639,ls),
(490,668,o),
(468,690,o),
(439,690,cs),
(426,690,ls),
(397,690,o),
(375,668,o),
(375,639,cs),
(375,396,ls),
(375,367,o),
(353,345,o),
(324,345,cs),
(196,345,ls),
(167,345,o),
(145,367,o),
(145,396,cs),
(145,639,ls),
(145,668,o),
(123,690,o),
(94,690,cs),
(81,690,ls),
(52,690,o),
(30,668,o),
(30,639,cs),
(30,396,ls),
(30,367,o),
(52,345,o),
(81,345,cs),
(94,345,ls),
(123,345,o),
(145,323,o),
(145,294,cs),
(145,281,ls),
(145,252,o),
(167,230,o),
(196,230,cs),
(324,230,ls),
(353,230,o),
(375,208,o),
(375,179,cs),
(375,166,ls),
(375,137,o),
(352,115,o),
(323,115,cs),
(196,115,ls),
(167,115,o),
(145,137,o),
(145,166,cs),
(145,179,ls),
(145,208,o),
(123,230,o),
(94,230,cs),
(81,230,ls),
(52,230,o),
(30,208,o),
(30,179,cs),
(30,166,ls)
);
}
);
width = 520;
},
{
hints = (
{
horizontal = 1;
origin = (0,11);
target = (0,59);
type = Stem;
},
{
horizontal = 1;
origin = (0,67);
target = (0,43);
type = Stem;
},
{
origin = (0,71);
target = (0,63);
type = Stem;
},
{
origin = (0,55);
target = (0,15);
type = Stem;
}
);
layerId = "52F3452F-C0C6-4900-9BFE-1786415B207F";
shapes = (
{
closed = 1;
nodes = (
(30,137,o),
(52,115,o),
(81,115,cs),
(94,115,ls),
(123,115,o),
(145,93,o),
(145,64,cs),
(145,51,ls),
(145,22,o),
(167,0,o),
(196,0,cs),
(1447,0,ls),
(1476,0,o),
(1498,22,o),
(1498,51,cs),
(1498,639,ls),
(1498,668,o),
(1476,690,o),
(1447,690,cs),
(1434,690,ls),
(1405,690,o),
(1383,668,o),
(1383,639,cs),
(1383,396,ls),
(1383,367,o),
(1361,345,o),
(1332,345,cs),
(196,345,ls),
(167,345,o),
(145,367,o),
(145,396,cs),
(145,639,ls),
(145,668,o),
(123,690,o),
(94,690,cs),
(81,690,ls),
(52,690,o),
(30,668,o),
(30,639,cs),
(30,396,ls),
(30,367,o),
(52,345,o),
(81,345,cs),
(94,345,ls),
(123,345,o),
(145,323,o),
(145,294,cs),
(145,281,ls),
(145,252,o),
(167,230,o),
(196,230,cs),
(1332,230,ls),
(1361,230,o),
(1383,208,o),
(1383,179,cs),
(1383,166,ls),
(1383,137,o),
(1360,115,o),
(1331,115,cs),
(196,115,ls),
(167,115,o),
(145,137,o),
(145,166,cs),
(145,179,ls),
(145,208,o),
(123,230,o),
(94,230,cs),
(81,230,ls),
(52,230,o),
(30,208,o),
(30,179,cs),
(30,166,ls)
);
}
);
width = 1528;
}
);
unicode = 89;
}
{
glyphname = Z;
lastChange = "2024-09-03 14:37:22 +0000";
layers = (
{
hints = (
{
horizontal = 1;
origin = (0,63);
target = (0,8);
type = Stem;
},
{
horizontal = 1;
origin = (0,56);
target = (0,48);
type = Stem;
},
{
horizontal = 1;
origin = (0,32);
target = (0,40);
type = Stem;
},
{
origin = (0,60);
target = (0,52);
type = Stem;
},
{
origin = (0,44);
target = (0,28);
type = Stem;
}
);
layerId = "B9294602-EB87-4DCD-A39F-D52598F560AD";
shapes = (
{
closed = 1;
nodes = (
(439,0,ls),
(468,0,o),
(490,22,o),
(490,51,cs),
(490,64,ls),
(490,93,o),
(468,115,o),
(439,115,cs),
(196,115,ls),
(167,115,o),
(145,137,o),
(145,166,cs),
(145,294,ls),
(145,323,o),
(167,345,o),
(196,345,cs),
(324,345,ls),
(353,345,o),
(375,367,o),
(375,396,cs),
(375,409,ls),
(375,438,o),
(397,460,o),
(426,460,cs),
(439,460,ls),
(468,460,o),
(490,482,o),
(490,511,cs),
(490,639,ls),
(490,668,o),
(468,690,o),
(439,690,cs),
(81,690,ls),
(52,690,o),
(30,668,o),
(30,639,cs),
(30,626,ls),
(30,597,o),
(52,575,o),
(81,575,cs),
(324,575,ls),
(353,575,o),
(375,553,o),
(375,524,cs),
(375,511,ls),
(375,482,o),
(353,460,o),
(324,460,cs),
(196,460,ls),
(167,460,o),
(145,438,o),
(145,409,cs),
(145,396,ls),
(145,367,o),
(123,345,o),
(94,345,cs),
(81,345,ls),
(52,345,o),
(30,323,o),
(30,294,cs),
(30,51,ls),
(30,22,o),
(52,0,o),
(81,0,cs)
);
}
);
width = 520;
},
{
.lastUpdate = 747067042.163;
hints = (
{
horizontal = 1;
origin = (0,63);
target = (0,8);
type = Stem;
},
{
horizontal = 1;
origin = (0,56);
target = (0,48);
type = Stem;
},
{
horizontal = 1;
origin = (0,40);
target = (0,32);
type = Stem;
},
{
origin = (0,60);
target = (0,52);
type = Stem;
},
{
origin = (0,44);
target = (0,28);
type = Stem;
}
);
layerId = "52F3452F-C0C6-4900-9BFE-1786415B207F";
shapes = (
{
closed = 1;
nodes = (
(1447,0,ls),
(1476,0,o),
(1498,22,o),
(1498,51,cs),
(1498,64,ls),
(1498,93,o),
(1476,115,o),
(1447,115,cs),
(196,115,ls),
(167,115,o),
(145,137,o),
(145,166,cs),
(145,294,ls),
(145,323,o),
(167,345,o),
(196,345,cs),
(1332,345,ls),
(1361,345,o),
(1383,367,o),
(1383,396,cs),
(1383,409,ls),
(1383,438,o),
(1405,460,o),
(1434,460,cs),
(1447,460,ls),
(1476,460,o),
(1498,482,o),
(1498,511,cs),
(1498,639,ls),
(1498,668,o),
(1476,690,o),
(1447,690,cs),
(81,690,ls),
(52,690,o),
(30,668,o),
(30,639,cs),
(30,626,ls),
(30,597,o),
(52,575,o),
(81,575,cs),
(1332,575,ls),
(1361,575,o),
(1383,553,o),
(1383,524,cs),
(1383,511,ls),
(1383,482,o),
(1361,460,o),
(1332,460,cs),
(196,460,ls),
(167,460,o),
(145,438,o),
(145,409,cs),
(145,396,ls),
(145,367,o),
(123,345,o),
(94,345,cs),
(81,345,ls),
(52,345,o),
(30,323,o),
(30,294,cs),
(30,51,ls),
(30,22,o),
(52,0,o),
(81,0,cs)
);
}
);
width = 1528;
}
);
unicode = 90;
}
{
glyphname = a;
lastChange = "2024-09-03 14:37:52 +0000";
layers = (
{
.lastUpdate = 747064973.971;
hints = (
{
horizontal = 1;
origin = (0,63);
target = (1,8);
type = Stem;
},
{
horizontal = 1;
origin = (1,15);
target = (0,48);
type = Stem;
},
{
horizontal = 1;
origin = (0,39);
target = (0,31);
type = Stem;
},
{
origin = (0,52);
target = (1,12);
type = Stem;
},
{
origin = (1,4);
target = (0,20);
type = Stem;
}
);
layerId = "B9294602-EB87-4DCD-A39F-D52598F560AD";
shapes = (
{
closed = 1;
nodes = (
(329,0,l),
(354,0,o),
(375,21,o),
(375,46,c),
(375,184,l),
(375,210,o),
(354,230,o),
(329,230,c),
(306,230,l),
(281,230,o),
(260,251,o),
(260,276,c),
(260,299,l),
(260,324,o),
(281,344,o),
(306,344,c),
(329,344,l),
(354,344,o),
(375,365,o),
(375,390,c),
(375,413,l),
(375,440,o),
(354,460,o),
(329,460,c),
(306,460,l),
(281,460,o),
(260,481,o),
(260,506,c),
(260,529,l),
(260,554,o),
(240,575,o),
(215,575,c),
(76,575,l),
(51,575,o),
(30,554,o),
(30,529,c),
(30,506,l),
(30,480,o),
(51,460,o),
(76,460,c),
(214,460,l),
(240,460,o),
(260,439,o),
(260,413,c),
(260,390,l),
(260,365,o),
(240,345,o),
(214,345,c),
(76,345,l),
(51,345,o),
(30,324,o),
(30,299,c),
(30,161,l),
(30,135,o),
(51,114,o),
(76,114,c),
(99,114,l),
(124,114,o),
(145,94,o),
(145,69,c),
(145,46,l),
(145,21,o),
(165,0,o),
(192,0,c)
);
},
{
closed = 1;
nodes = (
(214,230,ls),
(240,230,o),
(260,209,o),
(260,184,cs),
(260,161,ls),
(260,135,o),
(240,115,o),
(214,115,cs),
(192,115,ls),
(165,115,o),
(145,135,o),
(145,161,cs),
(145,184,ls),
(145,209,o),
(165,230,o),
(192,230,cs)
);
}
);
width = 405;
},
{
.lastUpdate = 747067072.538;
hints = (
{
horizontal = 1;
origin = (0,63);
target = (1,8);
type = Stem;
},
{
horizontal = 1;
origin = (1,15);
target = (0,48);
type = Stem;
},
{
horizontal = 1;
origin = (0,40);
target = (0,32);
type = Stem;
},
{
origin = (0,52);
target = (1,12);
type = Stem;
},
{
origin = (1,4);
target = (0,20);
type = Stem;
}
);
layerId = "52F3452F-C0C6-4900-9BFE-1786415B207F";
shapes = (
{
closed = 1;
nodes = (
(1452,0,l),
(1477,0,o),
(1498,21,o),
(1498,46,c),
(1498,184,l),
(1498,210,o),
(1477,230,o),
(1452,230,c),
(1429,230,l),
(1404,230,o),
(1383,251,o),
(1383,276,c),
(1383,299,l),
(1383,324,o),
(1404,344,o),
(1429,344,c),
(1452,344,l),
(1477,344,o),
(1498,365,o),
(1498,390,c),
(1498,413,l),
(1498,440,o),
(1477,460,o),
(1452,460,c),
(1429,460,l),
(1404,460,o),
(1383,481,o),
(1383,506,c),
(1383,529,l),
(1383,554,o),
(1363,575,o),
(1338,575,c),
(76,575,l),
(51,575,o),
(30,554,o),
(30,529,c),
(30,506,l),
(30,480,o),
(51,460,o),
(76,460,c),
(1337,460,l),
(1363,460,o),
(1383,439,o),
(1383,413,c),
(1383,390,l),
(1383,365,o),
(1363,345,o),
(1337,345,c),
(76,345,l),
(51,345,o),
(30,324,o),
(30,299,c),
(30,161,l),
(30,135,o),
(51,114,o),
(76,114,c),
(99,114,l),
(124,114,o),
(145,94,o),
(145,69,c),
(145,46,l),
(145,21,o),
(165,0,o),
(192,0,c)
);
},
{
closed = 1;
nodes = (
(1337,230,ls),
(1363,230,o),
(1383,209,o),
(1383,184,cs),
(1383,161,ls),
(1383,135,o),
(1363,115,o),
(1337,115,cs),
(192,115,ls),
(165,115,o),
(145,135,o),
(145,161,cs),
(145,184,ls),
(145,209,o),
(165,230,o),
(192,230,cs)
);
}
);
width = 1528;
}
);
unicode = 97;
}
{
glyphname = b;
lastChange = "2024-09-03 14:38:15 +0000";
layers = (
{
.lastUpdate = 747064982.415;
hints = (
{
horizontal = 1;
origin = (0,40);
target = (1,15);
type = Stem;
},
{
horizontal = 1;
origin = (0,31);
target = (0,7);
type = Stem;
},
{
origin = (0,36);
target = (1,4);
type = Stem;
},
{
origin = (1,12);
target = (0,52);
type = Stem;
}
);
layerId = "B9294602-EB87-4DCD-A39F-D52598F560AD";
shapes = (
{
closed = 1;
nodes = (
(311,460,ls),
(282,460,o),
(260,482,o),
(260,511,cs),
(260,524,ls),
(260,553,o),
(238,575,o),
(209,575,cs),
(196,575,ls),
(167,575,o),
(145,597,o),
(145,626,cs),
(145,754,ls),
(145,783,o),
(123,805,o),
(94,805,cs),
(81,805,ls),
(52,805,o),
(30,783,o),
(30,754,cs),
(30,626,ls),
(30,597,o),
(52,575,o),
(81,575,cs),
(94,575,ls),
(123,575,o),
(145,553,o),
(145,524,cs),
(145,511,ls),
(145,482,o),
(123,460,o),
(94,460,cs),
(81,460,ls),
(52,460,o),
(30,438,o),
(30,409,cs),
(30,51,ls),
(30,22,o),
(52,0,o),
(81,0,cs),
(209,0,ls),
(238,0,o),
(260,22,o),
(260,51,cs),
(260,64,ls),
(260,93,o),
(282,115,o),
(311,115,cs),
(324,115,ls),
(353,115,o),
(375,137,o),
(375,166,cs),
(375,409,ls),
(375,438,o),
(353,460,o),
(324,460,cs)
);
},
{
closed = 1;
nodes = (
(196,115,ls),
(167,115,o),
(145,137,o),
(145,166,cs),
(145,409,ls),
(145,438,o),
(167,460,o),
(196,460,cs),
(209,460,ls),
(238,460,o),
(260,438,o),
(260,409,cs),
(260,166,ls),
(260,137,o),
(238,115,o),
(209,115,cs)
);
}
);
width = 405;
},
{
.lastUpdate = 747067095.53;
hints = (
{
horizontal = 1;
origin = (0,40);
target = (1,15);
type = Stem;
},
{
horizontal = 1;
origin = (1,8);
target = (0,8);
type = Stem;
},
{
origin = (0,36);
target = (1,4);
type = Stem;
},
{
origin = (1,12);
target = (0,52);
type = Stem;
}
);
layerId = "52F3452F-C0C6-4900-9BFE-1786415B207F";
shapes = (
{
closed = 1;
nodes = (
(1434,460,ls),
(1405,460,o),
(1383,482,o),
(1383,511,cs),
(1383,524,ls),
(1383,553,o),
(1361,575,o),
(1332,575,cs),
(196,575,ls),
(167,575,o),
(145,597,o),
(145,626,cs),
(145,754,ls),
(145,783,o),
(123,805,o),
(94,805,cs),
(81,805,ls),
(52,805,o),
(30,783,o),
(30,754,cs),
(30,626,ls),
(30,597,o),
(52,575,o),
(81,575,cs),
(94,575,ls),
(123,575,o),
(145,553,o),
(145,524,cs),
(145,511,ls),
(145,482,o),
(123,460,o),
(94,460,cs),
(81,460,ls),
(52,460,o),
(30,438,o),
(30,409,cs),
(30,51,ls),
(30,22,o),
(52,0,o),
(81,0,cs),
(1332,0,ls),
(1361,0,o),
(1383,22,o),
(1383,51,cs),
(1383,64,ls),
(1383,93,o),
(1405,115,o),
(1434,115,cs),
(1447,115,ls),
(1476,115,o),
(1498,137,o),
(1498,166,cs),
(1498,409,ls),
(1498,438,o),
(1476,460,o),
(1447,460,cs)
);
},
{
closed = 1;
nodes = (
(196,115,ls),
(167,115,o),
(145,137,o),
(145,166,cs),
(145,409,ls),
(145,438,o),
(167,460,o),
(196,460,cs),
(1332,460,ls),
(1361,460,o),
(1383,438,o),
(1383,409,cs),
(1383,166,ls),
(1383,137,o),
(1361,115,o),
(1332,115,cs)
);
}
);
width = 1528;
}
);
unicode = 98;
}
{
glyphname = c;
kernLeft = o;
lastChange = "2024-09-03 14:38:44 +0000";
layers = (
{
.lastUpdate = 747065141.365;
hints = (
{
horizontal = 1;
origin = (0,58);
target = (0,67);
type = Stem;
},
{
horizontal = 1;
origin = (0,11);
target = (0,35);
type = Stem;
},
{
origin = (0,71);
target = (0,39);
type = Stem;
},
{
origin = (0,63);
target = (0,55);
type = Stem;
}
);
layerId = "B9294602-EB87-4DCD-A39F-D52598F560AD";
shapes = (
{
closed = 1;
nodes = (
(30,137,o),
(52,115,o),
(81,115,cs),
(94,115,ls),
(123,115,o),
(145,93,o),
(145,64,cs),
(145,51,ls),
(145,22,o),
(167,0,o),
(196,0,cs),
(208,0,ls),
(237,0,o),
(260,22,o),
(260,51,cs),
(260,64,ls),
(260,93,o),
(282,115,o),
(311,115,cs),
(324,115,ls),
(353,115,o),
(375,137,o),
(375,166,cs),
(375,181,ls),
(375,210,o),
(353,230,o),
(324,230,cs),
(311,230,ls),
(282,230,o),
(260,210,o),
(260,181,cs),
(260,166,ls),
(260,137,o),
(238,115,o),
(209,115,cs),
(196,115,ls),
(167,115,o),
(145,137,o),
(145,166,cs),
(145,409,ls),
(145,438,o),
(167,460,o),
(196,460,cs),
(209,460,ls),
(238,460,o),
(260,438,o),
(260,409,cs),
(260,394,ls),
(260,365,o),
(282,345,o),
(311,345,cs),
(324,345,ls),
(353,345,o),
(375,365,o),
(375,394,cs),
(375,409,ls),
(375,438,o),
(353,460,o),
(324,460,cs),
(311,460,ls),
(282,460,o),
(260,482,o),
(260,511,cs),
(260,524,ls),
(260,553,o),
(237,575,o),
(208,575,cs),
(81,575,ls),
(52,575,o),
(30,553,o),
(30,524,cs),
(30,166,ls)
);
}
);
width = 405;
},
{
.lastUpdate = 747067124.939;
hints = (
{
horizontal = 1;
origin = (0,43);
target = (0,67);
type = Stem;
},
{
horizontal = 1;
origin = (0,11);
target = (0,35);
type = Stem;
},
{
origin = (0,71);
target = (0,39);
type = Stem;
},
{
origin = (0,46);
target = (0,22);
type = Stem;
}
);
layerId = "52F3452F-C0C6-4900-9BFE-1786415B207F";
shapes = (
{
closed = 1;
nodes = (
(30,137,o),
(52,115,o),
(81,115,cs),
(94,115,ls),
(123,115,o),
(145,93,o),
(145,64,cs),
(145,51,ls),
(145,22,o),
(167,0,o),
(196,0,cs),
(1331,0,ls),
(1360,0,o),
(1383,22,o),
(1383,51,cs),
(1383,64,ls),
(1383,93,o),
(1405,115,o),
(1434,115,cs),
(1447,115,ls),
(1476,115,o),
(1498,137,o),
(1498,166,cs),
(1498,181,ls),
(1498,210,o),
(1476,230,o),
(1447,230,cs),
(1434,230,ls),
(1405,230,o),
(1383,210,o),
(1383,181,cs),
(1383,166,ls),
(1383,137,o),
(1361,115,o),
(1332,115,cs),
(196,115,ls),
(167,115,o),
(145,137,o),
(145,166,cs),
(145,409,ls),
(145,438,o),
(167,460,o),
(196,460,cs),
(1332,460,ls),
(1361,460,o),
(1383,438,o),
(1383,409,cs),
(1383,394,ls),
(1383,365,o),
(1405,345,o),
(1434,345,cs),
(1447,345,ls),
(1476,345,o),
(1498,365,o),
(1498,394,cs),
(1498,409,ls),
(1498,438,o),
(1476,460,o),
(1447,460,cs),
(1434,460,ls),
(1405,460,o),
(1383,482,o),
(1383,511,cs),
(1383,524,ls),
(1383,553,o),
(1360,575,o),
(1331,575,cs),
(81,575,ls),
(52,575,o),
(30,553,o),
(30,524,cs),
(30,166,ls)
);
}
);
width = 1528;
}
);
unicode = 99;
}
{
glyphname = d;
kernLeft = o;
lastChange = "2024-09-03 16:38:24 +0000";
layers = (
{
.lastUpdate = 747065152.742;
hints = (
{
horizontal = 1;
origin = (0,15);
target = (1,15);
type = Stem;
},
{
horizontal = 1;
origin = (1,7);
target = (0,46);
type = Stem;
},
{
origin = (0,3);
target = (1,3);
type = Stem;
},
{
origin = (1,11);
target = (0,35);
type = Stem;
}
);
layerId = "B9294602-EB87-4DCD-A39F-D52598F560AD";
shapes = (
{
closed = 1;
nodes = (
(52,460,o),
(30,438,o),
(30,409,cs),
(30,166,ls),
(30,137,o),
(52,115,o),
(81,115,cs),
(94,115,ls),
(123,115,o),
(145,93,o),
(145,64,cs),
(145,51,ls),
(145,22,o),
(167,0,o),
(196,0,cs),
(324,0,ls),
(353,0,o),
(375,22,o),
(375,51,cs),
(375,409,ls),
(375,438,o),
(353,460,o),
(324,460,cs),
(311,460,ls),
(282,460,o),
(260,482,o),
(260,511,cs),
(260,524,ls),
(260,553,o),
(282,575,o),
(311,575,cs),
(324,575,ls),
(353,575,o),
(375,597,o),
(375,626,cs),
(375,754,ls),
(375,783,o),
(353,805,o),
(324,805,cs),
(311,805,ls),
(282,805,o),
(260,783,o),
(260,754,cs),
(260,626,ls),
(260,597,o),
(238,575,o),
(209,575,cs),
(196,575,ls),
(167,575,o),
(145,553,o),
(145,524,cs),
(145,511,ls),
(145,482,o),
(123,460,o),
(94,460,cs),
(81,460,ls)
);
},
{
closed = 1;
nodes = (
(167,115,o),
(145,137,o),
(145,166,cs),
(145,409,ls),
(145,438,o),
(167,460,o),
(196,460,cs),
(209,460,ls),
(238,460,o),
(260,438,o),
(260,409,cs),
(260,166,ls),
(260,137,o),
(238,115,o),
(209,115,cs),
(196,115,ls)
);
}
);
width = 405;
},
{
.lastUpdate = 747074304.534;
hints = (
{
horizontal = 1;
origin = (0,15);
target = (1,15);
type = Stem;
},
{
horizontal = 1;
origin = (1,7);
target = (0,47);
type = Stem;
},
{
origin = (0,3);
target = (1,3);
type = Stem;
},
{
origin = (1,11);
target = (0,35);
type = Stem;
}
);
layerId = "52F3452F-C0C6-4900-9BFE-1786415B207F";
shapes = (
{
closed = 1;
nodes = (
(52,460,o),
(30,438,o),
(30,409,cs),
(30,166,ls),
(30,137,o),
(52,115,o),
(81,115,cs),
(94,115,ls),
(123,115,o),
(145,93,o),
(145,64,cs),
(145,51,ls),
(145,22,o),
(167,0,o),
(196,0,cs),
(1447,0,ls),
(1476,0,o),
(1498,22,o),
(1498,51,cs),
(1498,409,ls),
(1498,438,o),
(1476,460,o),
(1447,460,cs),
(1434,460,ls),
(1405,460,o),
(1383,482,o),
(1383,511,cs),
(1383,524,ls),
(1383,553,o),
(1405,575,o),
(1434,575,cs),
(1447,575,ls),
(1476,575,o),
(1498,597,o),
(1498,626,cs),
(1498,754,ls),
(1498,783,o),
(1476,805,o),
(1447,805,cs),
(1434,805,ls),
(1405,805,o),
(1383,783,o),
(1383,754,cs),
(1383,626,ls),
(1383,597,o),
(1361,575,o),
(1332,575,cs),
(196,575,ls),
(168,575,o),
(145,553,o),
(145,524,cs),
(145,511,ls),
(145,482,o),
(123,460,o),
(94,460,cs),
(81,460,ls)
);
},
{
closed = 1;
nodes = (
(168,115,o),
(145,137,o),
(145,166,cs),
(145,409,ls),
(145,438,o),
(168,460,o),
(196,460,cs),
(1332,460,ls),
(1361,460,o),
(1383,438,o),
(1383,409,cs),
(1383,166,ls),
(1383,137,o),
(1361,115,o),
(1332,115,cs),
(196,115,ls)
);
}
);
width = 1528;
}
);
unicode = 100;
}
{
glyphname = e;
lastChange = "2024-09-03 16:38:12 +0000";
layers = (
{
.lastUpdate = 747065162.919;
hints = (
{
horizontal = 1;
origin = (0,32);
target = (0,40);
type = Stem;
},
{
horizontal = 1;
origin = (0,48);
target = (1,15);
type = Stem;
},
{
horizontal = 1;
origin = (1,8);
target = (0,0);
type = Stem;
},
{
origin = (0,20);
target = (1,4);
type = Stem;
},
{
origin = (1,12);
target = (0,52);
type = Stem;
}
);
layerId = "B9294602-EB87-4DCD-A39F-D52598F560AD";
shapes = (
{
closed = 1;
nodes = (
(76,575,l),
(51,575,o),
(30,554,o),
(30,529,c),
(30,391,l),
(30,365,o),
(51,345,o),
(76,345,c),
(99,345,l),
(124,345,o),
(145,324,o),
(145,299,c),
(145,276,l),
(145,251,o),
(124,231,o),
(99,231,c),
(76,231,l),
(51,231,o),
(30,210,o),
(30,185,c),
(30,162,l),
(30,135,o),
(51,115,o),
(76,115,c),
(99,115,l),
(124,115,o),
(145,94,o),
(145,69,c),
(145,46,l),
(145,21,o),
(165,0,o),
(190,0,c),
(329,0,l),
(354,0,o),
(375,21,o),
(375,46,c),
(375,69,l),
(375,95,o),
(354,115,o),
(329,115,c),
(191,115,l),
(165,115,o),
(145,136,o),
(145,162,c),
(145,185,l),
(145,210,o),
(165,230,o),
(191,230,c),
(329,230,l),
(354,230,o),
(375,251,o),
(375,276,c),
(375,414,l),
(375,440,o),
(354,461,o),
(329,461,c),
(306,461,l),
(281,461,o),
(260,481,o),
(260,506,c),
(260,529,l),
(260,554,o),
(240,575,o),
(213,575,c)
);
},
{
closed = 1;
nodes = (
(191,345,ls),
(165,345,o),
(145,366,o),
(145,391,cs),
(145,414,ls),
(145,440,o),
(165,460,o),
(191,460,cs),
(213,460,ls),
(240,460,o),
(260,440,o),
(260,414,cs),
(260,391,ls),
(260,366,o),
(240,345,o),
(213,345,cs)
);
}
);
width = 405;
},
{
.lastUpdate = 747074292.417;
hints = (
{
horizontal = 1;
origin = (0,32);
target = (0,40);
type = Stem;
},
{
horizontal = 1;
origin = (0,48);
target = (1,15);
type = Stem;
},
{
horizontal = 1;
origin = (1,8);
target = (0,0);
type = Stem;
},
{
origin = (0,20);
target = (1,4);
type = Stem;
},
{
origin = (1,12);
target = (0,52);
type = Stem;
}
);
layerId = "52F3452F-C0C6-4900-9BFE-1786415B207F";
shapes = (
{
closed = 1;
nodes = (
(76,575,l),
(51,575,o),
(30,554,o),
(30,529,c),
(30,391,l),
(30,365,o),
(51,345,o),
(76,345,c),
(99,345,l),
(124,345,o),
(145,324,o),
(145,299,c),
(145,276,l),
(145,251,o),
(124,231,o),
(99,231,c),
(76,231,l),
(51,231,o),
(30,210,o),
(30,185,c),
(30,162,l),
(30,135,o),
(51,115,o),
(76,115,c),
(99,115,l),
(124,115,o),
(145,94,o),
(145,69,c),
(145,46,l),
(145,21,o),
(165,0,o),
(190,0,c),
(1452,0,l),
(1477,0,o),
(1498,21,o),
(1498,46,c),
(1498,69,l),
(1498,95,o),
(1477,115,o),
(1452,115,c),
(191,115,l),
(165,115,o),
(145,136,o),
(145,162,c),
(145,185,l),
(145,210,o),
(165,230,o),
(191,230,c),
(1452,230,l),
(1477,230,o),
(1498,251,o),
(1498,276,c),
(1498,414,l),
(1498,440,o),
(1477,461,o),
(1452,461,c),
(1429,461,l),
(1404,461,o),
(1383,481,o),
(1383,506,c),
(1383,529,l),
(1383,554,o),
(1363,575,o),
(1336,575,c)
);
},
{
closed = 1;
nodes = (
(191,345,ls),
(165,345,o),
(145,366,o),
(145,391,cs),
(145,414,ls),
(145,440,o),
(165,460,o),
(191,460,cs),
(1336,460,ls),
(1363,460,o),
(1383,440,o),
(1383,414,cs),
(1383,391,ls),
(1383,366,o),
(1363,345,o),
(1336,345,cs)
);
}
);
width = 1528;
}
);
unicode = 101;
}
{
glyphname = f;
kernRight = o;
lastChange = "2024-09-03 16:37:50 +0000";
layers = (
{
.lastUpdate = 747065181.573;
hints = (
{
horizontal = 1;
origin = (0,48);
target = (0,56);
type = Stem;
},
{
horizontal = 1;
origin = (0,63);
target = (0,7);
type = Stem;
},
{
origin = (0,36);
target = (0,60);
type = Stem;
},
{
origin = (0,68);
target = (0,4);
type = Stem;
}
);
layerId = "B9294602-EB87-4DCD-A39F-D52598F560AD";
shapes = (
{
closed = 1;
nodes = (
(330,575,ls),
(355,575,o),
(375,595,o),
(375,619,cs),
(375,754,ls),
(375,783,o),
(353,805,o),
(324,805,cs),
(196,805,ls),
(167,805,o),
(145,783,o),
(145,754,cs),
(145,741,ls),
(145,712,o),
(123,690,o),
(94,690,cs),
(81,690,ls),
(52,690,o),
(30,668,o),
(30,639,cs),
(30,626,ls),
(30,597,o),
(52,575,o),
(81,575,cs),
(94,575,ls),
(123,575,o),
(145,553,o),
(145,524,cs),
(145,511,ls),
(145,482,o),
(123,460,o),
(94,460,cs),
(81,460,ls),
(52,460,o),
(30,438,o),
(30,409,cs),
(30,42,ls),
(30,19,o),
(49,0,o),
(73,0,cs),
(102,0,ls),
(126,0,o),
(145,19,o),
(145,42,cs),
(145,409,ls),
(145,438,o),
(167,460,o),
(196,460,cs),
(216,460,ls),
(245,460,o),
(260,479,o),
(260,503,cs),
(260,530,ls),
(260,552,o),
(245,575,o),
(217,575,cs),
(196,575,ls),
(167,575,o),
(145,597,o),
(145,626,cs),
(145,638,ls),
(145,668,o),
(167,690,o),
(197,690,cs),
(210,690,ls),
(239,690,o),
(260,668,o),
(260,639,cs),
(260,619,ls),
(260,595,o),
(282,575,o),
(308,575,cs)
);
}
);
width = 405;
},
{
.lastUpdate = 747074270.691;
hints = (
{
horizontal = 1;
origin = (0,48);
target = (0,56);
type = Stem;
},
{
horizontal = 1;
origin = (0,64);
target = (0,8);
type = Stem;
},
{
origin = (0,36);
target = (0,60);
type = Stem;
},
{
origin = (0,68);
target = (0,4);
type = Stem;
}
);
layerId = "52F3452F-C0C6-4900-9BFE-1786415B207F";
shapes = (
{
closed = 1;
nodes = (
(1453,575,ls),
(1478,575,o),
(1498,595,o),
(1498,619,cs),
(1498,754,ls),
(1498,783,o),
(1476,805,o),
(1447,805,cs),
(196,805,ls),
(167,805,o),
(145,783,o),
(145,754,cs),
(145,741,ls),
(145,712,o),
(123,690,o),
(94,690,cs),
(81,690,ls),
(52,690,o),
(30,668,o),
(30,639,cs),
(30,626,ls),
(30,597,o),
(52,575,o),
(81,575,cs),
(94,575,ls),
(123,575,o),
(145,553,o),
(145,524,cs),
(145,511,ls),
(145,482,o),
(123,460,o),
(94,460,cs),
(81,460,ls),
(52,460,o),
(30,438,o),
(30,409,cs),
(30,42,ls),
(30,19,o),
(49,0,o),
(73,0,cs),
(102,0,ls),
(126,0,o),
(145,19,o),
(145,42,cs),
(145,409,ls),
(145,438,o),
(167,460,o),
(196,460,cs),
(1339,460,ls),
(1368,460,o),
(1383,479,o),
(1383,503,cs),
(1383,530,ls),
(1383,552,o),
(1368,575,o),
(1340,575,cs),
(196,575,ls),
(167,575,o),
(145,597,o),
(145,626,cs),
(145,638,ls),
(145,668,o),
(167,690,o),
(197,690,cs),
(1333,690,ls),
(1362,690,o),
(1383,668,o),
(1383,639,cs),
(1383,619,ls),
(1383,595,o),
(1405,575,o),
(1431,575,cs)
);
}
);
width = 1528;
}
);
unicode = 102;
}
{
glyphname = g;
lastChange = "2024-09-03 16:39:14 +0000";
layers = (
{
.lastUpdate = 747065198.399;
hints = (
{
horizontal = 1;
origin = (0,3);
target = (0,59);
type = Stem;
},
{
horizontal = 1;
origin = (0,52);
target = (1,12);
type = Stem;
},
{
horizontal = 1;
origin = (1,3);
target = (0,35);
type = Stem;
},
{
origin = (0,63);
target = (1,15);
type = Stem;
},
{
origin = (1,8);
target = (0,32);
type = Stem;
}
);
layerId = "B9294602-EB87-4DCD-A39F-D52598F560AD";
shapes = (
{
closed = 1;
nodes = (
(30,-64,ls),
(30,-93,o),
(52,-115,o),
(81,-115,cs),
(209,-115,ls),
(238,-115,o),
(260,-94,o),
(260,-65,cs),
(260,-52,ls),
(260,-23,o),
(282,0,o),
(311,0,cs),
(324,0,ls),
(353,0,o),
(375,22,o),
(375,51,cs),
(375,64,ls),
(375,93,o),
(353,115,o),
(324,115,cs),
(311,115,ls),
(282,115,o),
(260,137,o),
(260,166,cs),
(260,179,ls),
(260,208,o),
(282,230,o),
(311,230,cs),
(324,230,ls),
(353,230,o),
(375,252,o),
(375,281,cs),
(375,524,ls),
(375,553,o),
(353,575,o),
(324,575,cs),
(197,575,ls),
(168,575,o),
(145,553,o),
(145,524,cs),
(145,511,ls),
(145,482,o),
(123,460,o),
(94,460,cs),
(81,460,ls),
(52,460,o),
(30,438,o),
(30,409,cs),
(30,166,ls),
(30,137,o),
(52,115,o),
(81,115,cs),
(209,115,ls),
(238,115,o),
(260,93,o),
(260,64,cs),
(260,51,ls),
(260,22,o),
(238,0,o),
(209,0,cs),
(81,0,ls),
(52,0,o),
(30,-23,o),
(30,-52,cs)
);
},
{
closed = 1;
nodes = (
(145,409,ls),
(145,438,o),
(167,460,o),
(196,460,cs),
(209,460,ls),
(238,460,o),
(260,438,o),
(260,409,cs),
(260,277,ls),
(260,248,o),
(238,230,o),
(209,230,cs),
(196,230,ls),
(167,230,o),
(145,248,o),
(145,277,cs)
);
}
);
width = 405;
},
{
.lastUpdate = 747074354.424;
hints = (
{
horizontal = 1;
origin = (0,4);
target = (0,60);
type = Stem;
},
{
horizontal = 1;
origin = (0,52);
target = (1,12);
type = Stem;
},
{
horizontal = 1;
origin = (1,3);
target = (0,35);
type = Stem;
},
{
origin = (0,63);
target = (1,15);
type = Stem;
},
{
origin = (1,8);
target = (0,32);
type = Stem;
}
);
layerId = "52F3452F-C0C6-4900-9BFE-1786415B207F";
shapes = (
{
closed = 1;
nodes = (
(30,-64,ls),
(30,-93,o),
(52,-115,o),
(81,-115,cs),
(1332,-115,ls),
(1361,-115,o),
(1383,-94,o),
(1383,-65,cs),
(1383,-52,ls),
(1383,-23,o),
(1405,0,o),
(1434,0,cs),
(1447,0,ls),
(1476,0,o),
(1498,22,o),
(1498,51,cs),
(1498,64,ls),
(1498,93,o),
(1476,115,o),
(1447,115,cs),
(1434,115,ls),
(1405,115,o),
(1383,137,o),
(1383,166,cs),
(1383,179,ls),
(1383,208,o),
(1405,230,o),
(1434,230,cs),
(1447,230,ls),
(1476,230,o),
(1498,252,o),
(1498,281,cs),
(1498,524,ls),
(1498,553,o),
(1476,575,o),
(1447,575,cs),
(197,575,ls),
(168,575,o),
(145,553,o),
(145,524,cs),
(145,511,ls),
(145,482,o),
(123,460,o),
(94,460,cs),
(81,460,ls),
(52,460,o),
(30,438,o),
(30,409,cs),
(30,166,ls),
(30,137,o),
(52,115,o),
(81,115,cs),
(1332,115,ls),
(1361,115,o),
(1383,93,o),
(1383,64,cs),
(1383,51,ls),
(1383,22,o),
(1361,0,o),
(1332,0,cs),
(81,0,ls),
(52,0,o),
(30,-23,o),
(30,-52,cs)
);
},
{
closed = 1;
nodes = (
(145,409,ls),
(145,438,o),
(167,460,o),
(196,460,cs),
(1332,460,ls),
(1361,460,o),
(1383,438,o),
(1383,409,cs),
(1383,277,ls),
(1383,248,o),
(1361,230,o),
(1332,230,cs),
(196,230,ls),
(167,230,o),
(145,248,o),
(145,277,cs)
);
}
);
width = 1528;
}
);
unicode = 103;
}
{
glyphname = h;
lastChange = "2024-09-03 16:39:34 +0000";
layers = (
{
.lastUpdate = 747065206.566;
hints = (
{
horizontal = 1;
origin = (0,12);
target = (0,35);
type = Stem;
},
{
origin = (0,47);
target = (0,40);
type = Stem;
},
{
origin = (0,32);
target = (0,24);
type = Stem;
}
);
layerId = "B9294602-EB87-4DCD-A39F-D52598F560AD";
shapes = (
{
closed = 1;
nodes = (
(30,51,ls),
(30,22,o),
(52,0,o),
(81,0,cs),
(94,0,ls),
(123,0,o),
(145,22,o),
(145,51,cs),
(145,413,ls),
(145,442,o),
(167,460,o),
(196,460,cs),
(209,460,ls),
(238,460,o),
(260,442,o),
(260,413,cs),
(260,51,ls),
(260,22,o),
(282,0,o),
(311,0,cs),
(324,0,ls),
(353,0,o),
(375,22,o),
(375,51,cs),
(375,413,ls),
(375,442,o),
(353,460,o),
(324,460,cs),
(311,460,ls),
(282,460,o),
(260,486,o),
(260,515,cs),
(260,528,ls),
(260,557,o),
(237,575,o),
(208,575,cs),
(196,575,ls),
(167,575,o),
(145,597,o),
(145,626,cs),
(145,754,ls),
(145,783,o),
(123,805,o),
(94,805,cs),
(81,805,ls),
(52,805,o),
(30,783,o),
(30,754,cs)
);
}
);
width = 405;
},
{
.lastUpdate = 747074374.474;
hints = (
{
horizontal = 1;
origin = (0,12);
target = (0,36);
type = Stem;
},
{
origin = (0,47);
target = (0,40);
type = Stem;
},
{
origin = (0,32);
target = (0,24);
type = Stem;
}
);
layerId = "52F3452F-C0C6-4900-9BFE-1786415B207F";
shapes = (
{
closed = 1;
nodes = (
(30,51,ls),
(30,22,o),
(52,0,o),
(81,0,cs),
(94,0,ls),
(123,0,o),
(145,22,o),
(145,51,cs),
(145,413,ls),
(145,442,o),
(167,460,o),
(196,460,cs),
(1332,460,ls),
(1361,460,o),
(1383,442,o),
(1383,413,cs),
(1383,51,ls),
(1383,22,o),
(1405,0,o),
(1434,0,cs),
(1447,0,ls),
(1476,0,o),
(1498,22,o),
(1498,51,cs),
(1498,413,ls),
(1498,442,o),
(1476,460,o),
(1447,460,cs),
(1434,460,ls),
(1405,460,o),
(1383,486,o),
(1383,515,cs),
(1383,528,ls),
(1383,557,o),
(1360,575,o),
(1331,575,cs),
(196,575,ls),
(167,575,o),
(145,597,o),
(145,626,cs),
(145,754,ls),
(145,783,o),
(123,805,o),
(94,805,cs),
(81,805,ls),
(52,805,o),
(30,783,o),
(30,754,cs)
);
}
);
width = 1528;
}
);
unicode = 104;
}
{
glyphname = i;
lastChange = "2024-09-03 14:20:35 +0000";
layers = (
{
hints = (
{
horizontal = 1;
origin = (1,4);
target = (1,12);
type = Stem;
},
{
origin = (1,15);
target = (1,8);
type = Stem;
}
);
layerId = "B9294602-EB87-4DCD-A39F-D52598F560AD";
shapes = (
{
closed = 1;
nodes = (
(30,51,ls),
(30,22,o),
(52,0,o),
(81,0,cs),
(94,0,ls),
(123,0,o),
(145,22,o),
(145,51,cs),
(145,409,ls),
(145,438,o),
(123,460,o),
(94,460,cs),
(81,460,ls),
(52,460,o),
(30,438,o),
(30,409,cs)
);
},
{
closed = 1;
nodes = (
(30,626,ls),
(30,597,o),
(52,575,o),
(81,575,cs),
(94,575,ls),
(123,575,o),
(145,597,o),
(145,626,cs),
(145,639,ls),
(145,668,o),
(123,690,o),
(94,690,cs),
(81,690,ls),
(52,690,o),
(30,668,o),
(30,639,cs)
);
}
);
width = 175;
},
{
hints = (
{
horizontal = 1;
origin = (1,4);
target = (1,12);
type = Stem;
},
{
origin = (1,15);
target = (1,8);
type = Stem;
}
);
layerId = "52F3452F-C0C6-4900-9BFE-1786415B207F";
shapes = (
{
closed = 1;
nodes = (
(30,51,ls),
(30,22,o),
(52,0,o),
(81,0,cs),
(94,0,ls),
(123,0,o),
(145,22,o),
(145,51,cs),
(145,409,ls),
(145,438,o),
(123,460,o),
(94,460,cs),
(81,460,ls),
(52,460,o),
(30,438,o),
(30,409,cs)
);
},
{
closed = 1;
nodes = (
(30,626,ls),
(30,597,o),
(52,575,o),
(81,575,cs),
(94,575,ls),
(123,575,o),
(145,597,o),
(145,626,cs),
(145,639,ls),
(145,668,o),
(123,690,o),
(94,690,cs),
(81,690,ls),
(52,690,o),
(30,668,o),
(30,639,cs)
);
}
);
width = 175;
}
);
unicode = 105;
}
{
glyphname = j;
lastChange = "2024-09-03 16:40:26 +0000";
layers = (
{
.lastUpdate = 747065220.713;
hints = (
{
horizontal = 1;
origin = (0,8);
target = (0,0);
type = Stem;
},
{
horizontal = 1;
origin = (1,4);
target = (1,12);
type = Stem;
},
{
origin = (0,28);
target = (0,20);
type = Stem;
}
);
layerId = "B9294602-EB87-4DCD-A39F-D52598F560AD";
shapes = (
{
closed = 1;
nodes = (
(51,0,ls),
(22,0,o),
(0,-22,o),
(0,-51,cs),
(0,-64,ls),
(0,-93,o),
(22,-115,o),
(51,-115,cs),
(179,-115,ls),
(208,-115,o),
(230,-93,o),
(230,-64,cs),
(230,-51,ls),
(230,-22,o),
(252,0,o),
(281,0,cs),
(294,0,ls),
(323,0,o),
(345,22,o),
(345,51,cs),
(345,409,ls),
(345,438,o),
(323,460,o),
(294,460,cs),
(281,460,ls),
(252,460,o),
(230,438,o),
(230,409,cs),
(230,51,ls),
(230,22,o),
(208,0,o),
(179,0,cs)
);
},
{
closed = 1;
nodes = (
(229,626,ls),
(229,597,o),
(251,575,o),
(280,575,cs),
(293,575,ls),
(322,575,o),
(344,597,o),
(344,626,cs),
(344,639,ls),
(344,668,o),
(322,690,o),
(293,690,cs),
(280,690,ls),
(251,690,o),
(229,668,o),
(229,639,cs)
);
}
);
width = 375;
},
{
.lastUpdate = 747074426.928;
hints = (
{
horizontal = 1;
origin = (0,8);
target = (0,0);
type = Stem;
},
{
horizontal = 1;
origin = (1,4);
target = (1,12);
type = Stem;
},
{
origin = (1,15);
target = (0,19);
type = Stem;
}
);
layerId = "52F3452F-C0C6-4900-9BFE-1786415B207F";
shapes = (
{
closed = 1;
nodes = (
(81,0,ls),
(52,0,o),
(30,-22,o),
(30,-51,cs),
(30,-64,ls),
(30,-93,o),
(52,-115,o),
(81,-115,cs),
(1332,-115,ls),
(1361,-115,o),
(1383,-93,o),
(1383,-64,cs),
(1383,-51,ls),
(1383,-22,o),
(1405,0,o),
(1434,0,cs),
(1447,0,ls),
(1476,0,o),
(1498,22,o),
(1498,51,cs),
(1498,409,ls),
(1498,438,o),
(1476,460,o),
(1447,460,cs),
(1434,460,ls),
(1405,460,o),
(1383,438,o),
(1383,409,cs),
(1383,51,ls),
(1383,22,o),
(1361,0,o),
(1332,0,cs)
);
},
{
closed = 1;
nodes = (
(1382,626,ls),
(1382,597,o),
(1404,575,o),
(1433,575,cs),
(1446,575,ls),
(1475,575,o),
(1497,597,o),
(1497,626,cs),
(1497,639,ls),
(1497,668,o),
(1475,690,o),
(1446,690,cs),
(1433,690,ls),
(1404,690,o),
(1382,668,o),
(1382,639,cs)
);
}
);
width = 1528;
}
);
unicode = 106;
}
{
glyphname = k;
lastChange = "2024-09-03 16:40:33 +0000";
layers = (
{
.lastUpdate = 747065238.084;
hints = (
{
horizontal = 1;
origin = (0,10);
target = (0,51);
type = Stem;
},
{
origin = (0,63);
target = (0,55);
type = Stem;
},
{
origin = (0,15);
target = (0,39);
type = Stem;
}
);
layerId = "B9294602-EB87-4DCD-A39F-D52598F560AD";
shapes = (
{
closed = 1;
nodes = (
(30,22,o),
(52,0,o),
(81,0,cs),
(94,0,ls),
(123,0,o),
(145,22,o),
(145,51,cs),
(145,298,ls),
(145,327,o),
(167,345,o),
(196,345,cs),
(209,345,ls),
(238,345,o),
(260,327,o),
(260,298,cs),
(260,51,ls),
(260,22,o),
(282,0,o),
(311,0,cs),
(324,0,ls),
(353,0,o),
(375,22,o),
(375,51,cs),
(375,298,ls),
(375,327,o),
(353,345,o),
(324,345,cs),
(311,345,ls),
(282,345,o),
(260,371,o),
(260,400,cs),
(260,409,ls),
(260,438,o),
(282,460,o),
(311,460,cs),
(324,460,ls),
(353,460,o),
(375,482,o),
(375,511,cs),
(375,524,ls),
(375,553,o),
(353,575,o),
(324,575,cs),
(311,575,ls),
(282,575,o),
(260,553,o),
(260,524,cs),
(260,511,ls),
(260,482,o),
(238,460,o),
(209,460,cs),
(196,460,ls),
(167,460,o),
(145,482,o),
(145,511,cs),
(145,754,ls),
(145,783,o),
(123,805,o),
(94,805,cs),
(81,805,ls),
(52,805,o),
(30,783,o),
(30,754,cs),
(30,51,ls)
);
}
);
width = 405;
},
{
hints = (
{
horizontal = 1;
origin = (0,27);
target = (0,51);
type = Stem;
},
{
origin = (0,63);
target = (0,55);
type = Stem;
},
{
origin = (0,47);
target = (0,39);
type = Stem;
}
);
layerId = "52F3452F-C0C6-4900-9BFE-1786415B207F";
shapes = (
{
closed = 1;
nodes = (
(30,22,o),
(52,0,o),
(81,0,cs),
(94,0,ls),
(123,0,o),
(145,22,o),
(145,51,cs),
(145,298,ls),
(145,327,o),
(167,345,o),
(196,345,cs),
(1332,345,ls),
(1361,345,o),
(1383,327,o),
(1383,298,cs),
(1383,51,ls),
(1383,22,o),
(1405,0,o),
(1434,0,cs),
(1447,0,ls),
(1476,0,o),
(1498,22,o),
(1498,51,cs),
(1498,298,ls),
(1498,327,o),
(1476,345,o),
(1447,345,cs),
(1434,345,ls),
(1405,345,o),
(1383,371,o),
(1383,400,cs),
(1383,409,ls),
(1383,438,o),
(1405,460,o),
(1434,460,cs),
(1447,460,ls),
(1476,460,o),
(1498,482,o),
(1498,511,cs),
(1498,524,ls),
(1498,553,o),
(1476,575,o),
(1447,575,cs),
(1434,575,ls),
(1405,575,o),
(1383,553,o),
(1383,524,cs),
(1383,511,ls),
(1383,482,o),
(1361,460,o),
(1332,460,cs),
(196,460,ls),
(167,460,o),
(145,482,o),
(145,511,cs),
(145,754,ls),
(145,783,o),
(123,805,o),
(94,805,cs),
(81,805,ls),
(52,805,o),
(30,783,o),
(30,754,cs),
(30,51,ls)
);
}
);
width = 1528;
}
);
unicode = 107;
}
{
glyphname = l;
lastChange = "2024-09-03 16:40:54 +0000";
layers = (
{
.lastUpdate = 747065256.184;
hints = (
{
horizontal = 1;
origin = (0,0);
target = (0,8);
type = Stem;
},
{
origin = (0,20);
target = (0,28);
type = Stem;
}
);
layerId = "B9294602-EB87-4DCD-A39F-D52598F560AD";
shapes = (
{
closed = 1;
nodes = (
(209,690,ls),
(238,690,o),
(260,712,o),
(260,741,cs),
(260,754,ls),
(260,783,o),
(238,805,o),
(209,805,cs),
(196,805,ls),
(167,805,o),
(145,783,o),
(145,754,cs),
(145,741,ls),
(145,712,o),
(123,690,o),
(94,690,cs),
(81,690,ls),
(52,690,o),
(30,668,o),
(30,639,cs),
(30,51,ls),
(30,22,o),
(52,0,o),
(81,0,cs),
(94,0,ls),
(123,0,o),
(145,22,o),
(145,51,cs),
(145,639,ls),
(145,668,o),
(167,690,o),
(196,690,cs)
);
}
);
width = 180;
},
{
.lastUpdate = 747074454.009;
hints = (
{
origin = (0,20);
target = (0,28);
type = Stem;
},
{
horizontal = 1;
origin = (0,0);
target = (0,7);
type = Stem;
}
);
layerId = "52F3452F-C0C6-4900-9BFE-1786415B207F";
shapes = (
{
closed = 1;
nodes = (
(209,690,ls),
(238,690,o),
(260,712,o),
(260,741,cs),
(260,754,ls),
(260,783,o),
(238,805,o),
(209,805,cs),
(196,805,ls),
(167,805,o),
(145,783,o),
(145,754,cs),
(145,741,ls),
(145,712,o),
(123,690,o),
(94,690,cs),
(81,690,ls),
(52,690,o),
(30,668,o),
(30,639,cs),
(30,51,ls),
(30,22,o),
(52,0,o),
(81,0,cs),
(94,0,ls),
(123,0,o),
(145,22,o),
(145,51,cs),
(145,639,ls),
(145,668,o),
(167,690,o),
(196,690,cs)
);
}
);
width = 180;
}
);
unicode = 108;
}
{
glyphname = m;
lastChange = "2024-09-03 16:41:42 +0000";
layers = (
{
.lastUpdate = 747063953.438;
hints = (
{
horizontal = 1;
origin = (0,60);
target = (0,3);
type = Stem;
},
{
origin = (0,71);
target = (0,64);
type = Stem;
},
{
origin = (0,55);
target = (0,48);
type = Stem;
},
{
origin = (0,39);
target = (0,32);
type = Stem;
}
);
layerId = "B9294602-EB87-4DCD-A39F-D52598F560AD";
shapes = (
{
closed = 1;
nodes = (
(30,524,ls),
(30,554,o),
(52,575,o),
(81,575,cs),
(209,575,ls),
(238,575,o),
(259,553,o),
(259,524,cs),
(259,511,ls),
(259,482,o),
(280,460,o),
(309,460,cs),
(324,460,ls),
(353,460,o),
(374,482,o),
(374,511,cs),
(374,524,ls),
(374,553,o),
(395,575,o),
(424,575,cs),
(439,575,ls),
(468,575,o),
(489,553,o),
(489,524,cs),
(489,511,ls),
(489,482,o),
(510,460,o),
(539,460,cs),
(554,460,ls),
(583,460,o),
(605,438,o),
(605,409,cs),
(605,51,ls),
(605,22,o),
(583,0,o),
(554,0,cs),
(539,0,ls),
(510,0,o),
(489,22,o),
(489,51,cs),
(489,409,ls),
(489,438,o),
(468,460,o),
(439,460,cs),
(424,460,ls),
(395,460,o),
(374,438,o),
(374,409,cs),
(374,51,ls),
(374,22,o),
(353,0,o),
(324,0,cs),
(309,0,ls),
(280,0,o),
(259,22,o),
(259,51,cs),
(259,409,ls),
(259,438,o),
(238,460,o),
(209,460,cs),
(194,460,ls),
(165,460,o),
(144,438,o),
(144,409,cs),
(144,51,ls),
(144,22,o),
(123,0,o),
(94,0,cs),
(79,0,ls),
(50,0,o),
(30,22,o),
(30,51,cs)
);
}
);
width = 635;
},
{
.lastUpdate = 747074502.454;
hints = (
{
origin = (0,56);
target = (0,48);
type = Stem;
},
{
origin = (0,71);
target = (0,63);
type = Stem;
},
{
origin = (0,39);
target = (0,31);
type = Stem;
},
{
horizontal = 1;
origin = (0,44);
target = (0,20);
type = Stem;
},
{
horizontal = 1;
origin = (0,59);
target = (0,3);
type = Stem;
}
);
layerId = "52F3452F-C0C6-4900-9BFE-1786415B207F";
shapes = (
{
closed = 1;
nodes = (
(30,524,ls),
(30,554,o),
(52,575,o),
(81,575,cs),
(655,575,ls),
(684,575,o),
(705,553,o),
(705,524,cs),
(705,511,ls),
(705,482,o),
(726,460,o),
(755,460,cs),
(770,460,ls),
(799,460,o),
(820,482,o),
(820,511,cs),
(820,524,ls),
(820,553,o),
(841,575,o),
(870,575,cs),
(1332,575,ls),
(1361,575,o),
(1382,553,o),
(1382,524,cs),
(1382,511,ls),
(1382,482,o),
(1403,460,o),
(1432,460,cs),
(1447,460,ls),
(1476,460,o),
(1498,438,o),
(1498,409,cs),
(1498,51,ls),
(1498,22,o),
(1476,0,o),
(1447,0,cs),
(1432,0,ls),
(1403,0,o),
(1382,22,o),
(1382,51,cs),
(1382,409,ls),
(1382,438,o),
(1361,460,o),
(1332,460,cs),
(870,460,ls),
(841,460,o),
(820,438,o),
(820,409,cs),
(820,51,ls),
(820,22,o),
(799,0,o),
(770,0,cs),
(755,0,ls),
(726,0,o),
(705,22,o),
(705,51,cs),
(705,409,ls),
(705,438,o),
(684,460,o),
(655,460,cs),
(194,460,ls),
(165,460,o),
(144,438,o),
(144,409,cs),
(144,51,ls),
(144,22,o),
(123,0,o),
(94,0,cs),
(79,0,ls),
(50,0,o),
(30,22,o),
(30,51,cs)
);
}
);
width = 1528;
}
);
unicode = 109;
}
{
glyphname = n;
lastChange = "2024-09-03 16:42:05 +0000";
layers = (
{
.lastUpdate = 747065270.716;
hints = (
{
horizontal = 1;
origin = (0,12);
target = (0,35);
type = Stem;
},
{
origin = (0,39);
target = (0,8);
type = Stem;
},
{
origin = (0,32);
target = (0,24);
type = Stem;
}
);
layerId = "B9294602-EB87-4DCD-A39F-D52598F560AD";
shapes = (
{
closed = 1;
nodes = (
(30,51,ls),
(30,22,o),
(52,0,o),
(81,0,cs),
(94,0,ls),
(123,0,o),
(145,22,o),
(145,51,cs),
(145,413,ls),
(145,442,o),
(167,460,o),
(196,460,cs),
(209,460,ls),
(238,460,o),
(260,442,o),
(260,413,cs),
(260,51,ls),
(260,22,o),
(282,0,o),
(311,0,cs),
(324,0,ls),
(353,0,o),
(375,22,o),
(375,51,cs),
(375,413,ls),
(375,442,o),
(353,460,o),
(324,460,cs),
(311,460,ls),
(282,460,o),
(260,486,o),
(260,515,cs),
(260,524,ls),
(260,553,o),
(238,575,o),
(209,575,cs),
(81,575,ls),
(52,575,o),
(30,553,o),
(30,524,cs)
);
}
);
width = 405;
},
{
.lastUpdate = 747074525.658;
hints = (
{
horizontal = 1;
origin = (0,12);
target = (0,36);
type = Stem;
},
{
origin = (0,39);
target = (0,8);
type = Stem;
},
{
origin = (0,32);
target = (0,24);
type = Stem;
}
);
layerId = "52F3452F-C0C6-4900-9BFE-1786415B207F";
shapes = (
{
closed = 1;
nodes = (
(30,51,ls),
(30,22,o),
(52,0,o),
(81,0,cs),
(94,0,ls),
(123,0,o),
(145,22,o),
(145,51,cs),
(145,413,ls),
(145,442,o),
(167,460,o),
(196,460,cs),
(1332,460,ls),
(1361,460,o),
(1383,442,o),
(1383,413,cs),
(1383,51,ls),
(1383,22,o),
(1405,0,o),
(1434,0,cs),
(1447,0,ls),
(1476,0,o),
(1498,22,o),
(1498,51,cs),
(1498,413,ls),
(1498,442,o),
(1476,460,o),
(1447,460,cs),
(1434,460,ls),
(1405,460,o),
(1383,486,o),
(1383,515,cs),
(1383,524,ls),
(1383,553,o),
(1361,575,o),
(1332,575,cs),
(81,575,ls),
(52,575,o),
(30,553,o),
(30,524,cs)
);
}
);
width = 1528;
}
);
unicode = 110;
}
{
glyphname = o;
kernLeft = o;
kernRight = o;
lastChange = "2024-09-03 16:42:19 +0000";
layers = (
{
.lastUpdate = 747065291.175;
hints = (
{
horizontal = 1;
origin = (0,31);
target = (1,12);
type = Stem;
},
{
horizontal = 1;
origin = (1,3);
target = (0,15);
type = Stem;
},
{
origin = (0,28);
target = (1,15);
type = Stem;
},
{
origin = (1,8);
target = (0,12);
type = Stem;
}
);
layerId = "B9294602-EB87-4DCD-A39F-D52598F560AD";
shapes = (
{
closed = 1;
nodes = (
(208,0,ls),
(237,0,o),
(260,22,o),
(260,51,cs),
(260,64,ls),
(260,93,o),
(282,115,o),
(311,115,cs),
(324,115,ls),
(353,115,o),
(375,137,o),
(375,166,cs),
(375,524,ls),
(375,553,o),
(353,575,o),
(324,575,cs),
(196,575,ls),
(167,575,o),
(145,553,o),
(145,524,cs),
(145,511,ls),
(145,482,o),
(123,460,o),
(94,460,cs),
(81,460,ls),
(52,460,o),
(30,438,o),
(30,409,cs),
(30,51,ls),
(30,22,o),
(52,0,o),
(81,0,cs)
);
},
{
closed = 1;
nodes = (
(145,409,ls),
(145,438,o),
(167,460,o),
(196,460,cs),
(209,460,ls),
(238,460,o),
(260,438,o),
(260,409,cs),
(260,166,ls),
(260,137,o),
(238,115,o),
(209,115,cs),
(196,115,ls),
(167,115,o),
(145,137,o),
(145,166,cs)
);
}
);
width = 405;
},
{
.lastUpdate = 747074539.517;
hints = (
{
horizontal = 1;
origin = (0,31);
target = (1,12);
type = Stem;
},
{
horizontal = 1;
origin = (1,4);
target = (0,16);
type = Stem;
},
{
origin = (0,28);
target = (1,15);
type = Stem;
},
{
origin = (1,8);
target = (0,12);
type = Stem;
}
);
layerId = "52F3452F-C0C6-4900-9BFE-1786415B207F";
shapes = (
{
closed = 1;
nodes = (
(1331,0,ls),
(1360,0,o),
(1383,22,o),
(1383,51,cs),
(1383,64,ls),
(1383,93,o),
(1405,115,o),
(1434,115,cs),
(1447,115,ls),
(1476,115,o),
(1498,137,o),
(1498,166,cs),
(1498,524,ls),
(1498,553,o),
(1476,575,o),
(1447,575,cs),
(196,575,ls),
(167,575,o),
(145,553,o),
(145,524,cs),
(145,511,ls),
(145,482,o),
(123,460,o),
(94,460,cs),
(81,460,ls),
(52,460,o),
(30,438,o),
(30,409,cs),
(30,51,ls),
(30,22,o),
(52,0,o),
(81,0,cs)
);
},
{
closed = 1;
nodes = (
(145,409,ls),
(145,438,o),
(167,460,o),
(196,460,cs),
(1332,460,ls),
(1361,460,o),
(1383,438,o),
(1383,409,cs),
(1383,166,ls),
(1383,137,o),
(1361,115,o),
(1332,115,cs),
(196,115,ls),
(167,115,o),
(145,137,o),
(145,166,cs)
);
}
);
width = 1528;
}
);
unicode = 111;
}
{
glyphname = p;
lastChange = "2024-09-03 16:42:35 +0000";
layers = (
{
.lastUpdate = 747065318.713;
hints = (
{
horizontal = 1;
origin = (0,47);
target = (1,7);
type = Stem;
},
{
horizontal = 1;
origin = (1,15);
target = (0,15);
type = Stem;
},
{
origin = (0,35);
target = (1,11);
type = Stem;
},
{
origin = (1,3);
target = (0,3);
type = Stem;
}
);
layerId = "B9294602-EB87-4DCD-A39F-D52598F560AD";
shapes = (
{
closed = 1;
nodes = (
(353,115,o),
(375,137,o),
(375,166,cs),
(375,409,ls),
(375,438,o),
(353,460,o),
(324,460,cs),
(311,460,ls),
(282,460,o),
(260,482,o),
(260,511,cs),
(260,524,ls),
(260,553,o),
(238,575,o),
(209,575,cs),
(81,575,ls),
(52,575,o),
(30,553,o),
(30,524,cs),
(30,166,ls),
(30,137,o),
(52,115,o),
(81,115,cs),
(94,115,ls),
(123,115,o),
(145,93,o),
(145,64,cs),
(145,51,ls),
(145,22,o),
(123,0,o),
(94,0,cs),
(81,0,ls),
(52,0,o),
(30,-22,o),
(30,-51,cs),
(30,-179,ls),
(30,-208,o),
(52,-230,o),
(81,-230,cs),
(94,-230,ls),
(123,-230,o),
(145,-208,o),
(145,-179,cs),
(145,-51,ls),
(145,-22,o),
(167,0,o),
(196,0,cs),
(209,0,ls),
(238,0,o),
(260,22,o),
(260,51,cs),
(260,64,ls),
(260,93,o),
(282,115,o),
(311,115,cs),
(324,115,ls)
);
},
{
closed = 1;
nodes = (
(238,460,o),
(260,438,o),
(260,409,cs),
(260,166,ls),
(260,137,o),
(238,115,o),
(209,115,cs),
(196,115,ls),
(167,115,o),
(145,137,o),
(145,166,cs),
(145,409,ls),
(145,438,o),
(167,460,o),
(196,460,cs),
(209,460,ls)
);
}
);
width = 405;
},
{
.lastUpdate = 747074555.351;
hints = (
{
horizontal = 1;
origin = (0,47);
target = (1,7);
type = Stem;
},
{
horizontal = 1;
origin = (1,15);
target = (0,15);
type = Stem;
},
{
origin = (0,35);
target = (1,11);
type = Stem;
},
{
origin = (1,3);
target = (0,3);
type = Stem;
}
);
layerId = "52F3452F-C0C6-4900-9BFE-1786415B207F";
shapes = (
{
closed = 1;
nodes = (
(1476,115,o),
(1498,137,o),
(1498,166,cs),
(1498,409,ls),
(1498,438,o),
(1476,460,o),
(1447,460,cs),
(1434,460,ls),
(1405,460,o),
(1383,482,o),
(1383,511,cs),
(1383,524,ls),
(1383,553,o),
(1361,575,o),
(1332,575,cs),
(81,575,ls),
(52,575,o),
(30,553,o),
(30,524,cs),
(30,166,ls),
(30,137,o),
(52,115,o),
(81,115,cs),
(94,115,ls),
(123,115,o),
(145,93,o),
(145,64,cs),
(145,51,ls),
(145,22,o),
(123,0,o),
(94,0,cs),
(81,0,ls),
(52,0,o),
(30,-22,o),
(30,-51,cs),
(30,-179,ls),
(30,-208,o),
(52,-230,o),
(81,-230,cs),
(94,-230,ls),
(123,-230,o),
(145,-208,o),
(145,-179,cs),
(145,-51,ls),
(145,-22,o),
(167,0,o),
(196,0,cs),
(1332,0,ls),
(1361,0,o),
(1383,22,o),
(1383,51,cs),
(1383,64,ls),
(1383,93,o),
(1405,115,o),
(1434,115,cs),
(1447,115,ls)
);
},
{
closed = 1;
nodes = (
(1361,460,o),
(1383,438,o),
(1383,409,cs),
(1383,166,ls),
(1383,137,o),
(1361,115,o),
(1332,115,cs),
(196,115,ls),
(167,115,o),
(145,137,o),
(145,166,cs),
(145,409,ls),
(145,438,o),
(167,460,o),
(196,460,cs),
(1332,460,ls)
);
}
);
width = 1528;
}
);
unicode = 112;
}
{
glyphname = q;
lastChange = "2024-09-03 16:42:47 +0000";
layers = (
{
.lastUpdate = 747065339.976;
hints = (
{
horizontal = 1;
origin = (0,32);
target = (1,4);
type = Stem;
},
{
horizontal = 1;
origin = (1,11);
target = (0,7);
type = Stem;
},
{
origin = (0,20);
target = (1,8);
type = Stem;
},
{
origin = (1,15);
target = (0,60);
type = Stem;
},
{
origin = (0,60);
target = (0,52);
type = Stem;
}
);
layerId = "B9294602-EB87-4DCD-A39F-D52598F560AD";
shapes = (
{
closed = 1;
nodes = (
(311,460,ls),
(282,460,o),
(260,482,o),
(260,511,cs),
(260,524,ls),
(260,553,o),
(238,575,o),
(209,575,cs),
(197,575,ls),
(168,575,o),
(145,553,o),
(145,524,cs),
(145,511,ls),
(145,482,o),
(123,460,o),
(94,460,cs),
(81,460,ls),
(52,460,o),
(30,438,o),
(30,409,cs),
(30,162,ls),
(30,133,o),
(52,114,o),
(81,114,cs),
(94,114,ls),
(123,114,o),
(145,89,o),
(145,60,cs),
(145,47,ls),
(145,18,o),
(168,0,o),
(197,0,cs),
(209,0,ls),
(238,0,o),
(260,22,o),
(260,51,cs),
(260,63,ls),
(260,92,o),
(282,114,o),
(311,114,cs),
(324,114,ls),
(353,114,o),
(375,92,o),
(375,63,cs),
(375,-179,ls),
(375,-208,o),
(397,-230,o),
(426,-230,cs),
(439,-230,ls),
(468,-230,o),
(490,-208,o),
(490,-179,cs),
(490,64,ls),
(490,93,o),
(468,114,o),
(439,114,cs),
(426,114,ls),
(397,114,o),
(375,137,o),
(375,166,cs),
(375,409,ls),
(375,438,o),
(353,460,o),
(324,460,cs)
);
},
{
closed = 1;
nodes = (
(260,162,ls),
(260,133,o),
(238,114,o),
(209,114,cs),
(196,114,ls),
(167,114,o),
(145,133,o),
(145,162,cs),
(145,409,ls),
(145,438,o),
(167,460,o),
(196,460,cs),
(209,460,ls),
(238,460,o),
(260,438,o),
(260,409,cs)
);
}
);
width = 520;
},
{
.lastUpdate = 747074567.625;
hints = (
{
horizontal = 1;
origin = (0,32);
target = (1,4);
type = Stem;
},
{
horizontal = 1;
origin = (1,12);
target = (0,8);
type = Stem;
},
{
origin = (0,20);
target = (1,8);
type = Stem;
},
{
origin = (1,15);
target = (0,60);
type = Stem;
},
{
origin = (0,60);
target = (0,52);
type = Stem;
}
);
layerId = "52F3452F-C0C6-4900-9BFE-1786415B207F";
shapes = (
{
closed = 1;
nodes = (
(1319,460,ls),
(1290,460,o),
(1268,482,o),
(1268,511,cs),
(1268,524,ls),
(1268,553,o),
(1246,575,o),
(1217,575,cs),
(197,575,ls),
(168,575,o),
(145,553,o),
(145,524,cs),
(145,511,ls),
(145,482,o),
(123,460,o),
(94,460,cs),
(81,460,ls),
(52,460,o),
(30,438,o),
(30,409,cs),
(30,162,ls),
(30,133,o),
(52,114,o),
(81,114,cs),
(94,114,ls),
(123,114,o),
(145,89,o),
(145,60,cs),
(145,47,ls),
(145,18,o),
(168,0,o),
(197,0,cs),
(1217,0,ls),
(1246,0,o),
(1268,22,o),
(1268,51,cs),
(1268,63,ls),
(1268,92,o),
(1290,114,o),
(1319,114,cs),
(1332,114,ls),
(1361,114,o),
(1383,92,o),
(1383,63,cs),
(1383,-179,ls),
(1383,-208,o),
(1405,-230,o),
(1434,-230,cs),
(1447,-230,ls),
(1476,-230,o),
(1498,-208,o),
(1498,-179,cs),
(1498,64,ls),
(1498,93,o),
(1476,114,o),
(1447,114,cs),
(1434,114,ls),
(1405,114,o),
(1383,137,o),
(1383,166,cs),
(1383,409,ls),
(1383,438,o),
(1361,460,o),
(1332,460,cs)
);
},
{
closed = 1;
nodes = (
(1268,162,ls),
(1268,133,o),
(1246,114,o),
(1217,114,cs),
(196,114,ls),
(167,114,o),
(145,133,o),
(145,162,cs),
(145,409,ls),
(145,438,o),
(167,460,o),
(196,460,cs),
(1217,460,ls),
(1246,460,o),
(1268,438,o),
(1268,409,cs)
);
}
);
width = 1528;
}
);
unicode = 113;
}
{
glyphname = r;
lastChange = "2024-09-03 16:43:13 +0000";
layers = (
{
.lastUpdate = 747064000.663;
hints = (
{
origin = (0,48);
target = (0,40);
type = Stem;
},
{
horizontal = 1;
origin = (0,35);
target = (0,4);
type = Stem;
},
{
origin = (0,31);
target = (0,24);
type = Stem;
}
);
layerId = "B9294602-EB87-4DCD-A39F-D52598F560AD";
shapes = (
{
closed = 1;
nodes = (
(30,524,ls),
(30,553,o),
(52,575,o),
(81,575,cs),
(94,575,ls),
(123,575,o),
(145,553,o),
(145,524,cs),
(145,511,ls),
(145,482,o),
(167,460,o),
(196,460,cs),
(209,460,ls),
(238,460,o),
(260,482,o),
(260,511,cs),
(260,524,ls),
(260,553,o),
(282,575,o),
(311,575,cs),
(439,575,ls),
(468,575,o),
(490,553,o),
(490,524,cs),
(490,396,ls),
(490,367,o),
(468,345,o),
(439,345,cs),
(426,345,ls),
(397,345,o),
(375,367,o),
(375,396,cs),
(375,409,ls),
(375,438,o),
(353,460,o),
(324,460,cs),
(311,460,ls),
(282,460,o),
(260,437,o),
(260,409,cs),
(260,51,ls),
(260,22,o),
(238,0,o),
(209,0,cs),
(196,0,ls),
(167,0,o),
(145,22,o),
(145,51,cs),
(145,409,ls),
(145,437,o),
(123,460,o),
(94,460,cs),
(81,460,ls),
(52,460,o),
(30,482,o),
(30,511,cs)
);
}
);
width = 520;
},
{
.lastUpdate = 747074593.375;
hints = (
{
origin = (0,48);
target = (0,40);
type = Stem;
},
{
horizontal = 1;
origin = (0,35);
target = (0,19);
type = Stem;
},
{
origin = (0,32);
target = (0,23);
type = Stem;
}
);
layerId = "52F3452F-C0C6-4900-9BFE-1786415B207F";
shapes = (
{
closed = 1;
nodes = (
(30,524,ls),
(30,553,o),
(52,575,o),
(81,575,cs),
(94,575,ls),
(123,575,o),
(145,553,o),
(145,524,cs),
(145,511,ls),
(145,482,o),
(167,460,o),
(196,460,cs),
(209,460,ls),
(238,460,o),
(260,482,o),
(260,511,cs),
(260,524,ls),
(260,553,o),
(282,575,o),
(311,575,cs),
(1447,575,ls),
(1476,575,o),
(1498,553,o),
(1498,524,cs),
(1498,396,ls),
(1498,367,o),
(1476,345,o),
(1447,345,cs),
(1434,345,ls),
(1405,345,o),
(1383,367,o),
(1383,396,cs),
(1383,409,ls),
(1383,438,o),
(1361,460,o),
(1332,460,cs),
(311,460,ls),
(282,460,o),
(260,437,o),
(260,409,cs),
(260,51,ls),
(260,22,o),
(238,0,o),
(209,0,cs),
(196,0,ls),
(167,0,o),
(145,22,o),
(145,51,cs),
(145,409,ls),
(145,437,o),
(123,460,o),
(94,460,cs),
(81,460,ls),
(52,460,o),
(30,482,o),
(30,511,cs)
);
}
);
width = 1528;
}
);
unicode = 114;
}
{
glyphname = s;
lastChange = "2024-09-03 16:43:38 +0000";
layers = (
{
.lastUpdate = 747065362.922;
hints = (
{
horizontal = 1;
origin = (0,7);
target = (0,71);
type = Stem;
},
{
horizontal = 1;
origin = (0,63);
target = (0,55);
type = Stem;
},
{
horizontal = 1;
origin = (0,30);
target = (0,38);
type = Stem;
},
{
origin = (0,51);
target = (0,59);
type = Stem;
},
{
origin = (0,67);
target = (0,35);
type = Stem;
}
);
layerId = "B9294602-EB87-4DCD-A39F-D52598F560AD";
shapes = (
{
closed = 1;
nodes = (
(51,115,o),
(30,94,o),
(30,64,cs),
(30,51,ls),
(30,22,o),
(51,0,o),
(80,0,cs),
(209,0,ls),
(238,0,o),
(260,22,o),
(260,51,cs),
(260,64,ls),
(260,95,o),
(281,115,o),
(311,115,cs),
(323,115,ls),
(353,115,o),
(375,137,o),
(375,166,cs),
(375,293,ls),
(375,322,o),
(353,345,o),
(324,345,cs),
(196,345,ls),
(167,345,o),
(145,367,o),
(145,396,cs),
(145,409,ls),
(145,438,o),
(167,460,o),
(196,460,cs),
(324,460,ls),
(353,460,o),
(375,482,o),
(375,511,cs),
(375,525,ls),
(375,554,o),
(353,575,o),
(324,575,cs),
(196,575,ls),
(167,575,o),
(145,553,o),
(145,524,cs),
(145,511,ls),
(145,482,o),
(123,460,o),
(94,460,cs),
(81,460,ls),
(52,460,o),
(30,438,o),
(30,409,cs),
(30,396,ls),
(30,367,o),
(52,345,o),
(81,345,cs),
(94,345,ls),
(123,345,o),
(145,324,o),
(145,295,cs),
(145,281,ls),
(145,252,o),
(167,230,o),
(196,230,cs),
(209,230,ls),
(238,230,o),
(260,208,o),
(260,179,cs),
(260,166,ls),
(260,138,o),
(239,115,o),
(210,115,cs),
(80,115,ls)
);
}
);
width = 405;
},
{
.lastUpdate = 747074618.18;
hints = (
{
horizontal = 1;
origin = (0,7);
target = (0,71);
type = Stem;
},
{
horizontal = 1;
origin = (0,63);
target = (0,55);
type = Stem;
},
{
horizontal = 1;
origin = (0,31);
target = (0,39);
type = Stem;
},
{
origin = (0,51);
target = (0,59);
type = Stem;
},
{
origin = (0,67);
target = (0,35);
type = Stem;
}
);
layerId = "52F3452F-C0C6-4900-9BFE-1786415B207F";
shapes = (
{
closed = 1;
nodes = (
(51,115,o),
(30,94,o),
(30,64,cs),
(30,51,ls),
(30,22,o),
(51,0,o),
(80,0,cs),
(1332,0,ls),
(1361,0,o),
(1383,22,o),
(1383,51,cs),
(1383,64,ls),
(1383,95,o),
(1404,115,o),
(1434,115,cs),
(1446,115,ls),
(1476,115,o),
(1498,137,o),
(1498,166,cs),
(1498,293,ls),
(1498,322,o),
(1476,345,o),
(1447,345,cs),
(196,345,ls),
(167,345,o),
(145,367,o),
(145,396,cs),
(145,409,ls),
(145,438,o),
(167,460,o),
(196,460,cs),
(1447,460,ls),
(1476,460,o),
(1498,482,o),
(1498,511,cs),
(1498,525,ls),
(1498,554,o),
(1476,575,o),
(1447,575,cs),
(196,575,ls),
(167,575,o),
(145,553,o),
(145,524,cs),
(145,511,ls),
(145,482,o),
(123,460,o),
(94,460,cs),
(81,460,ls),
(52,460,o),
(30,438,o),
(30,409,cs),
(30,396,ls),
(30,367,o),
(52,345,o),
(81,345,cs),
(94,345,ls),
(123,345,o),
(145,324,o),
(145,295,cs),
(145,281,ls),
(145,252,o),
(167,230,o),
(196,230,cs),
(1332,230,ls),
(1361,230,o),
(1383,208,o),
(1383,179,cs),
(1383,166,ls),
(1383,138,o),
(1362,115,o),
(1333,115,cs),
(80,115,ls)
);
}
);
width = 1528;
}
);
unicode = 115;
}
{
glyphname = t;
lastChange = "2024-09-03 16:43:58 +0000";
layers = (
{
.lastUpdate = 747065378.733;
hints = (
{
horizontal = 1;
origin = (0,11);
target = (0,19);
type = Stem;
},
{
horizontal = 1;
origin = (0,27);
target = (0,34);
type = Stem;
},
{
origin = (0,63);
target = (0,55);
type = Stem;
}
);
layerId = "B9294602-EB87-4DCD-A39F-D52598F560AD";
shapes = (
{
closed = 1;
nodes = (
(30,137,o),
(52,115,o),
(81,115,cs),
(94,115,ls),
(123,115,o),
(145,93,o),
(145,64,cs),
(145,51,ls),
(145,22,o),
(167,0,o),
(196,0,cs),
(324,0,ls),
(353,0,o),
(375,22,o),
(375,51,cs),
(375,64,ls),
(375,93,o),
(353,115,o),
(324,115,cs),
(196,115,ls),
(167,115,o),
(145,137,o),
(145,166,cs),
(145,409,ls),
(145,438,o),
(167,460,o),
(196,460,cs),
(209,460,ls),
(238,460,o),
(260,482,o),
(260,511,cs),
(260,524,ls),
(260,553,o),
(238,575,o),
(209,575,cs),
(196,575,ls),
(167,575,o),
(145,597,o),
(145,626,cs),
(145,639,ls),
(145,668,o),
(123,690,o),
(94,690,cs),
(81,690,ls),
(52,690,o),
(30,668,o),
(30,639,cs),
(30,626,ls),
(30,597,o),
(52,575,o),
(81,575,cs),
(94,575,ls),
(123,575,o),
(145,553,o),
(145,524,cs),
(145,511,ls),
(145,482,o),
(123,460,o),
(94,460,cs),
(81,460,ls),
(52,460,o),
(30,438,o),
(30,409,cs),
(30,166,ls)
);
}
);
width = 405;
},
{
.lastUpdate = 747074632.891;
hints = (
{
horizontal = 1;
origin = (0,11);
target = (0,19);
type = Stem;
},
{
horizontal = 1;
origin = (0,51);
target = (0,43);
type = Stem;
},
{
horizontal = 1;
origin = (0,27);
target = (0,34);
type = Stem;
},
{
origin = (0,63);
target = (0,55);
type = Stem;
}
);
layerId = "52F3452F-C0C6-4900-9BFE-1786415B207F";
shapes = (
{
closed = 1;
nodes = (
(30,137,o),
(52,115,o),
(81,115,cs),
(94,115,ls),
(123,115,o),
(145,93,o),
(145,64,cs),
(145,51,ls),
(145,22,o),
(167,0,o),
(196,0,cs),
(1447,0,ls),
(1476,0,o),
(1498,22,o),
(1498,51,cs),
(1498,64,ls),
(1498,93,o),
(1476,115,o),
(1447,115,cs),
(196,115,ls),
(167,115,o),
(145,137,o),
(145,166,cs),
(145,409,ls),
(145,438,o),
(167,460,o),
(196,460,cs),
(209,460,ls),
(238,460,o),
(260,482,o),
(260,511,cs),
(260,524,ls),
(260,553,o),
(238,575,o),
(209,575,cs),
(196,575,ls),
(167,575,o),
(145,597,o),
(145,626,cs),
(145,639,ls),
(145,668,o),
(123,690,o),
(94,690,cs),
(81,690,ls),
(52,690,o),
(30,668,o),
(30,639,cs),
(30,626,ls),
(30,597,o),
(52,575,o),
(81,575,cs),
(94,575,ls),
(123,575,o),
(145,553,o),
(145,524,cs),
(145,511,ls),
(145,482,o),
(123,460,o),
(94,460,cs),
(81,460,ls),
(52,460,o),
(30,438,o),
(30,409,cs),
(30,166,ls)
);
}
);
width = 1528;
}
);
unicode = 116;
}
{
glyphname = u;
lastChange = "2024-09-03 14:20:36 +0000";
layers = (
{
hints = (
{
horizontal = 1;
origin = (0,11);
target = (0,27);
type = Stem;
},
{
origin = (0,39);
target = (0,31);
type = Stem;
},
{
origin = (0,23);
target = (0,15);
type = Stem;
}
);
layerId = "B9294602-EB87-4DCD-A39F-D52598F560AD";
shapes = (
{
closed = 1;
nodes = (
(30,133,o),
(52,115,o),
(81,115,cs),
(94,115,ls),
(123,115,o),
(145,89,o),
(145,60,cs),
(145,47,ls),
(145,18,o),
(168,0,o),
(197,0,cs),
(324,0,ls),
(353,0,o),
(375,22,o),
(375,51,cs),
(375,524,ls),
(375,553,o),
(353,575,o),
(324,575,cs),
(311,575,ls),
(282,575,o),
(260,553,o),
(260,524,cs),
(260,162,ls),
(260,133,o),
(238,115,o),
(209,115,cs),
(196,115,ls),
(167,115,o),
(145,133,o),
(145,162,cs),
(145,524,ls),
(145,553,o),
(123,575,o),
(94,575,cs),
(81,575,ls),
(52,575,o),
(30,553,o),
(30,524,cs),
(30,162,ls)
);
}
);
width = 405;
},
{
hints = (
{
horizontal = 1;
origin = (0,11);
target = (0,27);
type = Stem;
},
{
origin = (0,39);
target = (0,31);
type = Stem;
},
{
origin = (0,23);
target = (0,15);
type = Stem;
}
);
layerId = "52F3452F-C0C6-4900-9BFE-1786415B207F";
shapes = (
{
closed = 1;
nodes = (
(30,133,o),
(52,115,o),
(81,115,cs),
(94,115,ls),
(123,115,o),
(145,89,o),
(145,60,cs),
(145,47,ls),
(145,18,o),
(168,0,o),
(197,0,cs),
(1447,0,ls),
(1476,0,o),
(1498,22,o),
(1498,51,cs),
(1498,524,ls),
(1498,553,o),
(1476,575,o),
(1447,575,cs),
(1434,575,ls),
(1405,575,o),
(1383,553,o),
(1383,524,cs),
(1383,162,ls),
(1383,133,o),
(1361,115,o),
(1332,115,cs),
(196,115,ls),
(167,115,o),
(145,133,o),
(145,162,cs),
(145,524,ls),
(145,553,o),
(123,575,o),
(94,575,cs),
(81,575,ls),
(52,575,o),
(30,553,o),
(30,524,cs),
(30,162,ls)
);
}
);
width = 1528;
}
);
unicode = 117;
}
{
glyphname = v;
lastChange = "2024-09-03 14:20:36 +0000";
layers = (
{
hints = (
{
horizontal = 1;
origin = (0,11);
target = (0,35);
type = Stem;
},
{
origin = (0,47);
target = (0,39);
type = Stem;
},
{
origin = (0,31);
target = (0,23);
type = Stem;
}
);
layerId = "B9294602-EB87-4DCD-A39F-D52598F560AD";
shapes = (
{
closed = 1;
nodes = (
(35,133,o),
(57,115,o),
(86,115,cs),
(99,115,ls),
(128,115,o),
(150,89,o),
(150,60,cs),
(150,47,ls),
(150,18,o),
(173,0,o),
(202,0,cs),
(214,0,ls),
(243,0,o),
(265,22,o),
(265,51,cs),
(265,64,ls),
(265,93,o),
(287,115,o),
(316,115,cs),
(329,115,ls),
(358,115,o),
(380,137,o),
(380,166,cs),
(380,524,ls),
(380,553,o),
(358,575,o),
(329,575,cs),
(316,575,ls),
(287,575,o),
(265,553,o),
(265,524,cs),
(265,162,ls),
(265,133,o),
(243,115,o),
(214,115,cs),
(201,115,ls),
(172,115,o),
(150,133,o),
(150,162,cs),
(150,524,ls),
(150,553,o),
(128,575,o),
(99,575,cs),
(86,575,ls),
(57,575,o),
(35,553,o),
(35,524,cs),
(35,162,ls)
);
}
);
width = 415;
},
{
hints = (
{
horizontal = 1;
origin = (0,11);
target = (0,35);
type = Stem;
},
{
origin = (0,47);
target = (0,39);
type = Stem;
},
{
origin = (0,31);
target = (0,23);
type = Stem;
}
);
layerId = "52F3452F-C0C6-4900-9BFE-1786415B207F";
shapes = (
{
closed = 1;
nodes = (
(30,133,o),
(52,115,o),
(81,115,cs),
(94,115,ls),
(123,115,o),
(145,89,o),
(145,60,cs),
(145,47,ls),
(145,18,o),
(169,0,o),
(197,0,cs),
(1332,0,ls),
(1361,0,o),
(1383,22,o),
(1383,51,cs),
(1383,64,ls),
(1383,93,o),
(1405,115,o),
(1434,115,cs),
(1447,115,ls),
(1476,115,o),
(1498,137,o),
(1498,166,cs),
(1498,524,ls),
(1498,553,o),
(1476,575,o),
(1447,575,cs),
(1434,575,ls),
(1405,575,o),
(1383,553,o),
(1383,524,cs),
(1383,162,ls),
(1383,133,o),
(1361,115,o),
(1332,115,cs),
(196,115,ls),
(168,115,o),
(145,133,o),
(145,162,cs),
(145,524,ls),
(145,553,o),
(123,575,o),
(94,575,cs),
(81,575,ls),
(52,575,o),
(30,553,o),
(30,524,cs),
(30,162,ls)
);
}
);
width = 1528;
}
);
unicode = 118;
}
{
glyphname = w;
lastChange = "2024-09-03 16:44:56 +0000";
layers = (
{
.lastUpdate = 747064091.464;
hints = (
{
origin = (0,70);
target = (0,7);
type = Stem;
},
{
origin = (0,30);
target = (0,38);
type = Stem;
},
{
origin = (0,63);
target = (0,55);
type = Stem;
},
{
horizontal = 1;
origin = (0,67);
target = (0,10);
type = Stem;
}
);
layerId = "B9294602-EB87-4DCD-A39F-D52598F560AD";
shapes = (
{
closed = 1;
nodes = (
(30,553,o),
(50,575,o),
(79,575,cs),
(94,575,ls),
(123,575,o),
(144,553,o),
(144,524,cs),
(144,166,ls),
(144,137,o),
(165,115,o),
(194,115,cs),
(209,115,ls),
(238,115,o),
(259,137,o),
(259,166,cs),
(259,524,ls),
(259,553,o),
(280,575,o),
(309,575,cs),
(324,575,ls),
(353,575,o),
(374,553,o),
(374,524,cs),
(374,166,ls),
(374,137,o),
(395,115,o),
(424,115,cs),
(439,115,ls),
(468,115,o),
(489,137,o),
(489,166,cs),
(489,524,ls),
(489,553,o),
(510,575,o),
(539,575,cs),
(554,575,ls),
(583,575,o),
(604,553,o),
(604,524,cs),
(604,166,ls),
(604,137,o),
(583,115,o),
(554,115,cs),
(539,115,ls),
(510,115,o),
(489,93,o),
(489,64,cs),
(489,51,ls),
(489,22,o),
(468,0,o),
(439,0,cs),
(424,0,ls),
(395,0,o),
(374,22,o),
(374,51,cs),
(374,64,ls),
(374,93,o),
(353,115,o),
(324,115,cs),
(309,115,ls),
(280,115,o),
(259,93,o),
(259,64,cs),
(259,51,ls),
(259,22,o),
(238,0,o),
(209,0,cs),
(81,0,ls),
(52,0,o),
(30,21,o),
(30,51,cs),
(30,524,ls)
);
}
);
width = 634;
},
{
.lastUpdate = 747074696.908;
hints = (
{
origin = (0,63);
target = (0,55);
type = Stem;
},
{
origin = (0,70);
target = (0,6);
type = Stem;
},
{
origin = (0,30);
target = (0,38);
type = Stem;
},
{
horizontal = 1;
origin = (0,66);
target = (0,10);
type = Stem;
},
{
horizontal = 1;
origin = (0,51);
target = (0,27);
type = Stem;
}
);
layerId = "52F3452F-C0C6-4900-9BFE-1786415B207F";
shapes = (
{
closed = 1;
nodes = (
(30,553,o),
(50,575,o),
(79,575,cs),
(94,575,ls),
(123,575,o),
(144,553,o),
(144,524,cs),
(144,166,ls),
(144,137,o),
(165,115,o),
(194,115,cs),
(655,115,ls),
(684,115,o),
(705,137,o),
(705,166,cs),
(705,524,ls),
(705,553,o),
(726,575,o),
(755,575,cs),
(770,575,ls),
(799,575,o),
(820,553,o),
(820,524,cs),
(820,166,ls),
(820,137,o),
(841,115,o),
(870,115,cs),
(1332,115,ls),
(1361,115,o),
(1382,137,o),
(1382,166,cs),
(1382,524,ls),
(1382,553,o),
(1403,575,o),
(1432,575,cs),
(1447,575,ls),
(1476,575,o),
(1498,553,o),
(1498,524,cs),
(1498,166,ls),
(1498,137,o),
(1476,115,o),
(1447,115,cs),
(1432,115,ls),
(1403,115,o),
(1382,93,o),
(1382,64,cs),
(1382,51,ls),
(1382,22,o),
(1361,0,o),
(1332,0,cs),
(870,0,ls),
(841,0,o),
(820,22,o),
(820,51,cs),
(820,64,ls),
(820,93,o),
(799,115,o),
(770,115,cs),
(755,115,ls),
(726,115,o),
(705,93,o),
(705,64,cs),
(705,51,ls),
(705,22,o),
(684,0,o),
(655,0,cs),
(81,0,ls),
(52,0,o),
(30,21,o),
(30,51,cs),
(30,524,ls)
);
}
);
width = 1528;
}
);
unicode = 119;
}
{
glyphname = x;
lastChange = "2024-09-03 16:45:07 +0000";
layers = (
{
hints = (
{
horizontal = 1;
origin = (0,75);
target = (0,67);
type = Stem;
},
{
origin = (0,79);
target = (0,71);
type = Stem;
},
{
origin = (0,47);
target = (0,39);
type = Stem;
}
);
layerId = "B9294602-EB87-4DCD-A39F-D52598F560AD";
shapes = (
{
closed = 1;
nodes = (
(30,23,o),
(52,1,o),
(81,1,cs),
(94,1,ls),
(123,1,o),
(145,23,o),
(145,52,cs),
(145,180,ls),
(145,209,o),
(167,231,o),
(196,231,cs),
(209,231,ls),
(238,231,o),
(260,209,o),
(260,180,cs),
(260,52,ls),
(260,23,o),
(282,1,o),
(311,1,cs),
(324,1,ls),
(353,1,o),
(375,23,o),
(375,52,cs),
(375,180,ls),
(375,209,o),
(353,231,o),
(324,231,cs),
(311,231,ls),
(282,231,o),
(260,253,o),
(260,282,cs),
(260,295,ls),
(260,324,o),
(282,346,o),
(311,346,cs),
(324,346,ls),
(353,346,o),
(375,368,o),
(375,397,cs),
(375,525,ls),
(375,554,o),
(353,576,o),
(324,576,cs),
(311,576,ls),
(282,576,o),
(260,554,o),
(260,525,cs),
(260,397,ls),
(260,368,o),
(238,346,o),
(209,346,cs),
(196,346,ls),
(167,346,o),
(145,368,o),
(145,397,cs),
(145,525,ls),
(145,554,o),
(123,576,o),
(94,576,cs),
(81,576,ls),
(52,576,o),
(30,554,o),
(30,525,cs),
(30,397,ls),
(30,368,o),
(52,346,o),
(81,346,cs),
(94,346,ls),
(123,346,o),
(145,324,o),
(145,295,cs),
(145,282,ls),
(145,253,o),
(123,231,o),
(94,231,cs),
(81,231,ls),
(52,231,o),
(30,209,o),
(30,180,cs),
(30,52,ls)
);
}
);
width = 405;
},
{
hints = (
{
horizontal = 1;
origin = (0,75);
target = (0,67);
type = Stem;
},
{
origin = (0,79);
target = (0,71);
type = Stem;
},
{
origin = (0,47);
target = (0,39);
type = Stem;
}
);
layerId = "52F3452F-C0C6-4900-9BFE-1786415B207F";
shapes = (
{
closed = 1;
nodes = (
(30,22,o),
(52,0,o),
(81,0,cs),
(94,0,ls),
(123,0,o),
(145,22,o),
(145,51,cs),
(145,179,ls),
(145,208,o),
(167,230,o),
(196,230,cs),
(1332,230,ls),
(1361,230,o),
(1383,208,o),
(1383,179,cs),
(1383,51,ls),
(1383,22,o),
(1405,0,o),
(1434,0,cs),
(1447,0,ls),
(1476,0,o),
(1498,22,o),
(1498,51,cs),
(1498,179,ls),
(1498,208,o),
(1476,230,o),
(1447,230,cs),
(1434,230,ls),
(1405,230,o),
(1383,252,o),
(1383,281,cs),
(1383,294,ls),
(1383,323,o),
(1405,345,o),
(1434,345,cs),
(1447,345,ls),
(1476,345,o),
(1498,367,o),
(1498,396,cs),
(1498,524,ls),
(1498,553,o),
(1476,575,o),
(1447,575,cs),
(1434,575,ls),
(1405,575,o),
(1383,553,o),
(1383,524,cs),
(1383,396,ls),
(1383,367,o),
(1361,345,o),
(1332,345,cs),
(196,345,ls),
(167,345,o),
(145,367,o),
(145,396,cs),
(145,524,ls),
(145,553,o),
(123,575,o),
(94,575,cs),
(81,575,ls),
(52,575,o),
(30,553,o),
(30,524,cs),
(30,396,ls),
(30,367,o),
(52,345,o),
(81,345,cs),
(94,345,ls),
(123,345,o),
(145,323,o),
(145,294,cs),
(145,281,ls),
(145,252,o),
(123,230,o),
(94,230,cs),
(81,230,ls),
(52,230,o),
(30,208,o),
(30,179,cs),
(30,51,ls)
);
}
);
width = 1528;
}
);
unicode = 120;
}
{
glyphname = z;
lastChange = "2024-09-03 14:20:36 +0000";
layers = (
{
.lastUpdate = 747065403.6;
hints = (
{
horizontal = 1;
origin = (0,59);
target = (0,3);
type = Stem;
},
{
horizontal = 1;
origin = (0,51);
target = (0,43);
type = Stem;
},
{
horizontal = 1;
origin = (0,34);
target = (0,26);
type = Stem;
},
{
origin = (0,55);
target = (0,47);
type = Stem;
},
{
origin = (0,39);
target = (0,63);
type = Stem;
}
);
layerId = "B9294602-EB87-4DCD-A39F-D52598F560AD";
shapes = (
{
closed = 1;
nodes = (
(375,93,o),
(353,115,o),
(324,115,cs),
(196,115,ls),
(167,115,o),
(145,137,o),
(145,166,cs),
(145,180,ls),
(145,209,o),
(167,230,o),
(196,230,cs),
(209,230,ls),
(238,230,o),
(260,253,o),
(260,282,cs),
(260,295,ls),
(260,324,o),
(282,345,o),
(311,345,cs),
(324,345,ls),
(353,345,o),
(375,368,o),
(375,397,cs),
(375,524,ls),
(375,553,o),
(353,575,o),
(324,575,cs),
(81,575,ls),
(52,575,o),
(30,554,o),
(30,525,cs),
(30,512,ls),
(30,483,o),
(52,460,o),
(81,460,cs),
(209,460,ls),
(238,460,o),
(260,438,o),
(260,410,cs),
(260,397,ls),
(260,368,o),
(238,345,o),
(209,345,cs),
(196,345,ls),
(167,345,o),
(145,324,o),
(145,295,cs),
(145,282,ls),
(145,253,o),
(123,230,o),
(94,230,cs),
(81,230,l),
(52,230,o),
(30,209,o),
(30,180,cs),
(30,51,ls),
(30,22,o),
(52,0,o),
(81,0,cs),
(324,0,ls),
(353,0,o),
(375,22,o),
(375,51,cs),
(375,64,ls)
);
}
);
width = 405;
},
{
hints = (
{
horizontal = 1;
origin = (0,59);
target = (0,3);
type = Stem;
},
{
horizontal = 1;
origin = (0,51);
target = (0,43);
type = Stem;
},
{
horizontal = 1;
origin = (0,27);
target = (0,35);
type = Stem;
},
{
origin = (0,55);
target = (0,47);
type = Stem;
},
{
origin = (0,39);
target = (0,63);
type = Stem;
}
);
layerId = "52F3452F-C0C6-4900-9BFE-1786415B207F";
shapes = (
{
closed = 1;
nodes = (
(1498,93,o),
(1476,115,o),
(1447,115,cs),
(196,115,ls),
(167,115,o),
(145,137,o),
(145,166,cs),
(145,180,ls),
(145,209,o),
(167,230,o),
(196,230,cs),
(1332,230,ls),
(1361,230,o),
(1383,253,o),
(1383,282,cs),
(1383,295,ls),
(1383,324,o),
(1405,345,o),
(1434,345,cs),
(1447,345,ls),
(1476,345,o),
(1498,368,o),
(1498,397,cs),
(1498,524,ls),
(1498,553,o),
(1476,575,o),
(1447,575,cs),
(81,575,ls),
(52,575,o),
(30,554,o),
(30,525,cs),
(30,512,ls),
(30,483,o),
(52,460,o),
(81,460,cs),
(1332,460,ls),
(1361,460,o),
(1383,438,o),
(1383,410,cs),
(1383,397,ls),
(1383,368,o),
(1361,345,o),
(1332,345,cs),
(196,345,ls),
(167,345,o),
(145,324,o),
(145,295,cs),
(145,282,ls),
(145,253,o),
(123,230,o),
(94,230,cs),
(81,230,l),
(52,230,o),
(30,209,o),
(30,180,cs),
(30,51,ls),
(30,22,o),
(52,0,o),
(81,0,cs),
(1447,0,ls),
(1476,0,o),
(1498,22,o),
(1498,51,cs),
(1498,64,ls)
);
}
);
width = 1528;
}
);
unicode = 122;
}
{
glyphname = f_f;
lastChange = "2024-09-03 16:45:41 +0000";
layers = (
{
.lastUpdate = 747065705.134;
hints = (
{
horizontal = 1;
origin = (0,59);
target = (0,66);
type = Stem;
},
{
horizontal = 1;
origin = (0,74);
target = (0,107);
type = Stem;
},
{
origin = (0,127);
target = (0,119);
type = Stem;
},
{
origin = (0,103);
target = (0,95);
type = Stem;
},
{
origin = (0,79);
target = (0,87);
type = Stem;
},
{
horizontal = 1;
origin = (0,10);
target = (0,19);
type = Stem;
}
);
layerId = "B9294602-EB87-4DCD-A39F-D52598F560AD";
shapes = (
{
closed = 1;
nodes = (
(30,19,o),
(49,0,o),
(73,0,cs),
(102,0,ls),
(126,0,o),
(145,19,o),
(145,42,cs),
(145,409,ls),
(145,438,o),
(167,460,o),
(196,460,cs),
(216,460,ls),
(245,460,o),
(260,479,o),
(260,503,cs),
(260,530,ls),
(260,552,o),
(245,575,o),
(217,575,cs),
(196,575,ls),
(167,575,o),
(145,597,o),
(145,626,cs),
(145,638,ls),
(145,668,o),
(167,690,o),
(197,690,cs),
(210,690,ls),
(239,690,o),
(261,668,o),
(261,639,cs),
(261,626,ls),
(261,597,o),
(283,575,o),
(312,575,cs),
(325,575,ls),
(354,575,o),
(376,553,o),
(376,524,cs),
(376,511,ls),
(376,482,o),
(354,460,o),
(325,460,cs),
(312,460,ls),
(283,460,o),
(261,438,o),
(261,409,cs),
(261,42,ls),
(261,19,o),
(280,0,o),
(304,0,cs),
(333,0,ls),
(357,0,o),
(376,19,o),
(376,42,cs),
(376,409,ls),
(376,438,o),
(398,460,o),
(427,460,cs),
(447,460,ls),
(476,460,o),
(491,479,o),
(491,503,cs),
(491,530,ls),
(491,552,o),
(476,575,o),
(448,575,cs),
(427,575,ls),
(398,575,o),
(376,597,o),
(376,626,cs),
(376,638,ls),
(376,668,o),
(398,690,o),
(428,690,cs),
(440,690,ls),
(469,690,o),
(491,668,o),
(491,639,cs),
(491,626,ls),
(491,597,o),
(513,575,o),
(542,575,cs),
(555,575,ls),
(584,575,o),
(606,597,o),
(606,626,cs),
(606,754,ls),
(606,783,o),
(584,805,o),
(555,805,cs),
(427,805,ls),
(398,805,o),
(376,783,o),
(376,754,cs),
(376,741,ls),
(376,712,o),
(354,690,o),
(325,690,cs),
(312,690,ls),
(283,690,o),
(261,712,o),
(261,741,cs),
(261,754,ls),
(261,783,o),
(238,805,o),
(209,805,cs),
(81,805,ls),
(52,805,o),
(30,783,o),
(30,754,cs),
(30,626,ls),
(30,597,o),
(52,575,o),
(81,575,cs),
(94,575,ls),
(123,575,o),
(145,553,o),
(145,524,cs),
(145,511,ls),
(145,482,o),
(123,460,o),
(94,460,cs),
(81,460,ls),
(52,460,o),
(30,438,o),
(30,409,cs),
(30,42,ls)
);
}
);
width = 636;
},
{
.lastUpdate = 747074741.342;
hints = (
{
horizontal = 1;
origin = (0,59);
target = (0,19);
type = Stem;
},
{
horizontal = 1;
origin = (0,75);
target = (0,107);
type = Stem;
},
{
origin = (0,127);
target = (0,119);
type = Stem;
},
{
origin = (0,103);
target = (0,95);
type = Stem;
},
{
origin = (0,79);
target = (0,87);
type = Stem;
}
);
layerId = "52F3452F-C0C6-4900-9BFE-1786415B207F";
shapes = (
{
closed = 1;
nodes = (
(30,19,o),
(49,0,o),
(73,0,cs),
(102,0,ls),
(126,0,o),
(145,19,o),
(145,42,cs),
(145,409,ls),
(145,438,o),
(167,460,o),
(196,460,cs),
(646,460,ls),
(675,460,o),
(690,479,o),
(690,503,cs),
(690,530,ls),
(690,552,o),
(675,575,o),
(647,575,cs),
(196,575,ls),
(167,575,o),
(145,597,o),
(145,626,cs),
(145,638,ls),
(145,668,o),
(167,690,o),
(197,690,cs),
(640,690,ls),
(669,690,o),
(691,668,o),
(691,639,cs),
(691,626,ls),
(691,597,o),
(713,575,o),
(742,575,cs),
(755,575,ls),
(784,575,o),
(806,553,o),
(806,524,cs),
(806,511,ls),
(806,482,o),
(784,460,o),
(755,460,cs),
(742,460,ls),
(713,460,o),
(691,438,o),
(691,409,cs),
(691,42,ls),
(691,19,o),
(710,0,o),
(734,0,cs),
(763,0,ls),
(787,0,o),
(806,19,o),
(806,42,cs),
(806,409,ls),
(806,438,o),
(828,460,o),
(857,460,cs),
(1339,460,ls),
(1368,460,o),
(1383,479,o),
(1383,503,cs),
(1383,530,ls),
(1383,552,o),
(1368,575,o),
(1340,575,cs),
(857,575,ls),
(828,575,o),
(806,597,o),
(806,626,cs),
(806,638,ls),
(806,668,o),
(828,690,o),
(858,690,cs),
(1332,690,ls),
(1361,690,o),
(1383,668,o),
(1383,639,cs),
(1383,626,ls),
(1383,597,o),
(1405,575,o),
(1434,575,cs),
(1447,575,ls),
(1476,575,o),
(1498,597,o),
(1498,626,cs),
(1498,754,ls),
(1498,783,o),
(1476,805,o),
(1447,805,cs),
(857,805,ls),
(828,805,o),
(806,783,o),
(806,754,cs),
(806,741,ls),
(806,712,o),
(784,690,o),
(755,690,cs),
(742,690,ls),
(713,690,o),
(691,712,o),
(691,741,cs),
(691,754,ls),
(691,783,o),
(668,805,o),
(639,805,cs),
(81,805,ls),
(52,805,o),
(30,783,o),
(30,754,cs),
(30,626,ls),
(30,597,o),
(52,575,o),
(81,575,cs),
(94,575,ls),
(123,575,o),
(145,553,o),
(145,524,cs),
(145,511,ls),
(145,482,o),
(123,460,o),
(94,460,cs),
(81,460,ls),
(52,460,o),
(30,438,o),
(30,409,cs),
(30,42,ls)
);
}
);
width = 1528;
}
);
}
{
glyphname = f_h.liga;
lastChange = "2024-09-03 16:48:07 +0000";
layers = (
{
.lastUpdate = 747065648.418;
hints = (
{
horizontal = 1;
origin = (0,58);
target = (0,75);
type = Stem;
},
{
horizontal = 1;
origin = (0,83);
target = (0,27);
type = Stem;
},
{
origin = (0,103);
target = (0,95);
type = Stem;
},
{
origin = (0,47);
target = (0,79);
type = Stem;
},
{
origin = (0,63);
target = (0,71);
type = Stem;
},
{
horizontal = 1;
origin = (0,10);
target = (0,19);
type = Stem;
}
);
layerId = "B9294602-EB87-4DCD-A39F-D52598F560AD";
shapes = (
{
closed = 1;
nodes = (
(30,19,o),
(49,0,o),
(73,0,cs),
(102,0,ls),
(126,0,o),
(145,19,o),
(145,42,cs),
(145,419,ls),
(145,442,o),
(167,460,o),
(190,460,cs),
(216,460,ls),
(245,460,o),
(260,480,o),
(260,504,cs),
(260,532,ls),
(260,554,o),
(245,575,o),
(217,575,cs),
(196,575,ls),
(167,575,o),
(145,597,o),
(145,626,cs),
(145,639,ls),
(145,668,o),
(167,690,o),
(196,690,cs),
(209,690,ls),
(238,690,o),
(260,668,o),
(260,639,cs),
(260,618,ls),
(260,594,o),
(280,575,o),
(306,575,cs),
(324,575,ls),
(354,575,o),
(375,553,o),
(375,523,cs),
(375,511,ls),
(375,481,o),
(354,460,o),
(325,460,cs),
(311,460,ls),
(282,460,o),
(260,439,o),
(260,410,cs),
(260,51,ls),
(260,22,o),
(282,0,o),
(311,0,cs),
(324,0,ls),
(353,0,o),
(375,22,o),
(375,51,cs),
(375,413,ls),
(375,442,o),
(397,460,o),
(426,460,cs),
(439,460,ls),
(468,460,o),
(490,442,o),
(490,413,cs),
(490,51,ls),
(490,22,o),
(512,0,o),
(541,0,cs),
(554,0,ls),
(583,0,o),
(605,22,o),
(605,51,cs),
(605,524,ls),
(605,553,o),
(583,575,o),
(554,575,cs),
(426,575,ls),
(400,575,o),
(376,594,o),
(375,619,cs),
(375,754,ls),
(375,783,o),
(353,805,o),
(324,805,cs),
(81,805,ls),
(52,805,o),
(30,783,o),
(30,754,cs),
(30,626,ls),
(30,597,o),
(52,575,o),
(81,575,cs),
(94,575,ls),
(123,575,o),
(145,553,o),
(145,524,cs),
(145,511,ls),
(145,482,o),
(123,460,o),
(94,460,cs),
(81,460,ls),
(52,460,o),
(30,438,o),
(30,409,cs),
(30,42,ls)
);
}
);
width = 635;
},
{
.lastUpdate = 747074887.635;
hints = (
{
horizontal = 1;
origin = (0,59);
target = (0,75);
type = Stem;
},
{
horizontal = 1;
origin = (0,83);
target = (0,27);
type = Stem;
},
{
horizontal = 1;
origin = (0,91);
target = (0,83);
type = Stem;
},
{
origin = (0,103);
target = (0,95);
type = Stem;
},
{
origin = (0,47);
target = (0,79);
type = Stem;
},
{
origin = (0,63);
target = (0,71);
type = Stem;
},
{
horizontal = 1;
origin = (0,11);
target = (0,19);
type = Stem;
}
);
layerId = "52F3452F-C0C6-4900-9BFE-1786415B207F";
shapes = (
{
closed = 1;
nodes = (
(30,19,o),
(49,0,o),
(73,0,cs),
(102,0,ls),
(126,0,o),
(145,19,o),
(145,42,cs),
(145,419,ls),
(145,442,o),
(167,460,o),
(190,460,cs),
(645,460,ls),
(674,460,o),
(689,480,o),
(689,504,cs),
(689,532,ls),
(689,554,o),
(674,575,o),
(646,575,cs),
(196,575,ls),
(167,575,o),
(145,597,o),
(145,626,cs),
(145,639,ls),
(145,668,o),
(167,690,o),
(196,690,cs),
(638,690,ls),
(667,690,o),
(689,668,o),
(689,639,cs),
(689,618,ls),
(689,594,o),
(709,575,o),
(735,575,cs),
(753,575,ls),
(783,575,o),
(804,553,o),
(804,523,cs),
(804,511,ls),
(804,481,o),
(783,461,o),
(754,461,cs),
(740,461,ls),
(711,461,o),
(689,439,o),
(689,410,cs),
(689,51,ls),
(689,22,o),
(711,0,o),
(740,0,cs),
(753,0,ls),
(782,0,o),
(804,22,o),
(804,51,cs),
(804,413,ls),
(804,442,o),
(826,460,o),
(855,460,cs),
(1332,460,ls),
(1361,460,o),
(1383,442,o),
(1383,413,cs),
(1383,51,ls),
(1383,22,o),
(1405,0,o),
(1434,0,cs),
(1447,0,ls),
(1476,0,o),
(1498,22,o),
(1498,51,cs),
(1498,524,ls),
(1498,553,o),
(1476,575,o),
(1447,575,cs),
(855,575,ls),
(829,575,o),
(804,594,o),
(804,619,cs),
(804,754,ls),
(804,783,o),
(782,805,o),
(753,805,cs),
(81,805,ls),
(52,805,o),
(30,783,o),
(30,754,cs),
(30,626,ls),
(30,597,o),
(52,575,o),
(81,575,cs),
(94,575,ls),
(123,575,o),
(145,553,o),
(145,524,cs),
(145,511,ls),
(145,482,o),
(123,460,o),
(94,460,cs),
(81,460,ls),
(52,460,o),
(30,438,o),
(30,409,cs),
(30,42,ls)
);
}
);
width = 1528;
}
);
}
{
glyphname = f_i;
lastChange = "2024-09-03 16:46:27 +0000";
layers = (
{
.lastUpdate = 747065496.011;
hints = (
{
horizontal = 1;
origin = (0,39);
target = (1,20);
type = Stem;
},
{
horizontal = 1;
origin = (0,71);
target = (0,7);
type = Stem;
},
{
horizontal = 1;
origin = (0,62);
target = (0,15);
type = Stem;
},
{
horizontal = 1;
origin = (0,46);
target = (0,55);
type = Stem;
},
{
origin = (0,35);
target = (0,59);
type = Stem;
},
{
origin = (1,31);
target = (0,3);
type = Stem;
}
);
layerId = "B9294602-EB87-4DCD-A39F-D52598F560AD";
shapes = (
{
closed = 1;
nodes = (
(468,575,o),
(490,597,o),
(490,626,cs),
(490,639,ls),
(490,668,o),
(468,690,o),
(439,690,cs),
(311,690,ls),
(282,690,o),
(260,712,o),
(260,741,cs),
(260,754,ls),
(260,783,o),
(238,805,o),
(209,805,cs),
(81,805,ls),
(52,805,o),
(30,783,o),
(30,754,cs),
(30,626,ls),
(30,597,o),
(52,575,o),
(81,575,cs),
(94,575,ls),
(123,575,o),
(145,553,o),
(145,524,cs),
(145,511,ls),
(145,482,o),
(123,460,o),
(94,460,cs),
(81,460,ls),
(52,460,o),
(30,438,o),
(30,409,cs),
(30,42,ls),
(30,19,o),
(49,0,o),
(73,0,cs),
(102,0,ls),
(126,0,o),
(145,19,o),
(145,42,cs),
(145,419,ls),
(145,442,o),
(167,460,o),
(190,460,cs),
(216,460,ls),
(245,460,o),
(260,480,o),
(260,504,cs),
(260,532,ls),
(260,554,o),
(245,575,o),
(217,575,cs),
(190,575,ls),
(169,575,o),
(145,591,o),
(145,619,cs),
(145,646,ls),
(145,670,o),
(166,690,o),
(189,690,cs),
(219,690,ls),
(242,690,o),
(260,668,o),
(260,644,cs),
(260,618,ls),
(260,594,o),
(280,575,o),
(306,575,cs),
(439,575,ls)
);
},
{
closed = 1;
nodes = (
(375,166,ls),
(375,137,o),
(353,115,o),
(324,115,cs),
(311,115,ls),
(282,115,o),
(260,93,o),
(260,64,cs),
(260,51,ls),
(260,22,o),
(282,0,o),
(311,0,cs),
(324,0,ls),
(353,0,o),
(375,22,o),
(375,51,cs),
(375,64,ls),
(375,93,o),
(397,115,o),
(426,115,cs),
(439,115,ls),
(468,115,o),
(490,137,o),
(490,166,cs),
(490,410,ls),
(490,439,o),
(468,460,o),
(439,460,cs),
(426,460,ls),
(396,460,o),
(375,439,o),
(375,410,cs)
);
}
);
width = 520;
},
{
.lastUpdate = 747074787.009;
hints = (
{
horizontal = 1;
origin = (1,12);
target = (1,20);
type = Stem;
},
{
horizontal = 1;
origin = (0,71);
target = (0,63);
type = Stem;
},
{
horizontal = 1;
origin = (0,47);
target = (0,55);
type = Stem;
},
{
horizontal = 1;
origin = (0,63);
target = (0,15);
type = Stem;
},
{
origin = (0,35);
target = (0,59);
type = Stem;
},
{
origin = (1,31);
target = (1,24);
type = Stem;
},
{
origin = (1,8);
target = (1,31);
type = Stem;
}
);
layerId = "52F3452F-C0C6-4900-9BFE-1786415B207F";
shapes = (
{
closed = 1;
nodes = (
(1476,575,o),
(1498,597,o),
(1498,626,cs),
(1498,639,ls),
(1498,668,o),
(1476,690,o),
(1447,690,cs),
(861,690,ls),
(832,690,o),
(810,712,o),
(810,741,cs),
(810,754,ls),
(810,783,o),
(788,805,o),
(759,805,cs),
(81,805,ls),
(52,805,o),
(30,783,o),
(30,754,cs),
(30,626,ls),
(30,597,o),
(52,575,o),
(81,575,cs),
(94,575,ls),
(123,575,o),
(145,553,o),
(145,524,cs),
(145,511,ls),
(145,482,o),
(123,460,o),
(94,460,cs),
(81,460,ls),
(52,460,o),
(30,438,o),
(30,409,cs),
(30,42,ls),
(30,19,o),
(49,0,o),
(73,0,cs),
(102,0,ls),
(126,0,o),
(145,19,o),
(145,42,cs),
(145,419,ls),
(145,442,o),
(167,460,o),
(190,460,cs),
(766,460,ls),
(795,460,o),
(810,480,o),
(810,504,cs),
(810,532,ls),
(810,554,o),
(795,575,o),
(767,575,cs),
(190,575,ls),
(169,575,o),
(145,591,o),
(145,619,cs),
(145,646,ls),
(145,670,o),
(166,690,o),
(189,690,cs),
(769,690,ls),
(792,690,o),
(810,668,o),
(810,644,cs),
(810,618,ls),
(810,594,o),
(830,575,o),
(856,575,cs),
(1447,575,ls)
);
},
{
closed = 1;
nodes = (
(1383,166,ls),
(1383,137,o),
(1361,115,o),
(1332,115,cs),
(1319,115,ls),
(1290,115,o),
(1268,93,o),
(1268,64,cs),
(1268,51,ls),
(1268,22,o),
(1290,0,o),
(1319,0,cs),
(1332,0,ls),
(1361,0,o),
(1383,22,o),
(1383,51,cs),
(1383,64,ls),
(1383,93,o),
(1405,115,o),
(1434,115,cs),
(1447,115,ls),
(1476,115,o),
(1498,137,o),
(1498,166,cs),
(1498,410,ls),
(1498,439,o),
(1476,460,o),
(1447,460,cs),
(1434,460,ls),
(1404,460,o),
(1383,439,o),
(1383,410,cs)
);
}
);
width = 1528;
}
);
}
{
glyphname = f_l;
lastChange = "2024-09-03 16:46:47 +0000";
layers = (
{
.lastUpdate = 747065671.601;
hints = (
{
horizontal = 1;
origin = (0,11);
target = (0,18);
type = Stem;
},
{
horizontal = 1;
origin = (0,26);
target = (0,66);
type = Stem;
},
{
horizontal = 1;
origin = (0,34);
target = (0,59);
type = Stem;
},
{
origin = (0,87);
target = (0,79);
type = Stem;
},
{
origin = (0,55);
target = (0,47);
type = Stem;
},
{
origin = (0,79);
target = (0,63);
type = Stem;
}
);
layerId = "B9294602-EB87-4DCD-A39F-D52598F560AD";
shapes = (
{
closed = 1;
nodes = (
(30,19,o),
(49,0,o),
(73,0,cs),
(102,0,ls),
(126,0,o),
(145,19,o),
(145,42,cs),
(145,419,ls),
(145,442,o),
(167,460,o),
(190,460,cs),
(216,460,ls),
(245,460,o),
(260,480,o),
(260,504,cs),
(260,532,ls),
(260,554,o),
(245,575,o),
(217,575,cs),
(190,575,ls),
(169,575,o),
(145,591,o),
(145,619,cs),
(145,646,ls),
(145,670,o),
(166,690,o),
(189,690,cs),
(219,690,ls),
(242,690,o),
(260,668,o),
(260,644,cs),
(260,618,ls),
(260,594,o),
(280,575,o),
(306,575,cs),
(324,575,ls),
(353,575,o),
(375,553,o),
(375,524,cs),
(375,50,ls),
(375,21,o),
(396,0,o),
(426,0,cs),
(439,0,ls),
(468,0,o),
(490,21,o),
(490,50,cs),
(490,524,ls),
(490,553,o),
(468,575,o),
(439,575,cs),
(426,575,ls),
(397,575,o),
(375,597,o),
(375,626,cs),
(375,639,ls),
(375,668,o),
(353,690,o),
(324,690,cs),
(311,690,ls),
(282,690,o),
(260,712,o),
(260,741,cs),
(260,754,ls),
(260,783,o),
(238,805,o),
(209,805,cs),
(81,805,ls),
(52,805,o),
(30,783,o),
(30,754,cs),
(30,626,ls),
(30,597,o),
(52,575,o),
(81,575,cs),
(94,575,ls),
(123,575,o),
(145,553,o),
(145,524,cs),
(145,511,ls),
(145,482,o),
(123,460,o),
(94,460,cs),
(81,460,ls),
(52,460,o),
(30,438,o),
(30,409,cs),
(30,42,ls)
);
}
);
width = 520;
},
{
.lastUpdate = 747074807.776;
hints = (
{
horizontal = 1;
origin = (0,11);
target = (0,19);
type = Stem;
},
{
horizontal = 1;
origin = (0,27);
target = (0,67);
type = Stem;
},
{
horizontal = 1;
origin = (0,75);
target = (0,59);
type = Stem;
},
{
origin = (0,87);
target = (0,79);
type = Stem;
},
{
origin = (0,55);
target = (0,47);
type = Stem;
}
);
layerId = "52F3452F-C0C6-4900-9BFE-1786415B207F";
shapes = (
{
closed = 1;
nodes = (
(30,19,o),
(49,0,o),
(73,0,cs),
(102,0,ls),
(126,0,o),
(145,19,o),
(145,42,cs),
(145,419,ls),
(145,442,o),
(167,460,o),
(190,460,cs),
(756,460,ls),
(785,460,o),
(800,480,o),
(800,504,cs),
(800,532,ls),
(800,554,o),
(785,575,o),
(757,575,cs),
(190,575,ls),
(169,575,o),
(145,591,o),
(145,619,cs),
(145,646,ls),
(145,670,o),
(166,690,o),
(189,690,cs),
(759,690,ls),
(782,690,o),
(800,668,o),
(800,644,cs),
(800,618,ls),
(800,594,o),
(820,575,o),
(846,575,cs),
(1332,575,ls),
(1361,575,o),
(1383,553,o),
(1383,524,cs),
(1383,50,ls),
(1383,21,o),
(1404,0,o),
(1434,0,cs),
(1447,0,ls),
(1476,0,o),
(1498,21,o),
(1498,50,cs),
(1498,524,ls),
(1498,553,o),
(1476,575,o),
(1447,575,cs),
(1434,575,ls),
(1405,575,o),
(1383,597,o),
(1383,626,cs),
(1383,639,ls),
(1383,668,o),
(1361,690,o),
(1332,690,cs),
(851,690,ls),
(822,690,o),
(800,712,o),
(800,741,cs),
(800,754,ls),
(800,783,o),
(778,805,o),
(749,805,cs),
(81,805,ls),
(52,805,o),
(30,783,o),
(30,754,cs),
(30,626,ls),
(30,597,o),
(52,575,o),
(81,575,cs),
(94,575,ls),
(123,575,o),
(145,553,o),
(145,524,cs),
(145,511,ls),
(145,482,o),
(123,460,o),
(94,460,cs),
(81,460,ls),
(52,460,o),
(30,438,o),
(30,409,cs),
(30,42,ls)
);
}
);
width = 1498;
}
);
}
{
glyphname = f_t.liga;
lastChange = "2024-09-03 16:48:58 +0000";
layers = (
{
.lastUpdate = 747065797.001;
hints = (
{
horizontal = 1;
origin = (0,59);
target = (0,67);
type = Stem;
},
{
horizontal = 1;
origin = (0,10);
target = (0,19);
type = Stem;
},
{
horizontal = 1;
origin = (0,27);
target = (0,98);
type = Stem;
},
{
origin = (0,119);
target = (0,111);
type = Stem;
},
{
origin = (0,87);
target = (0,79);
type = Stem;
},
{
horizontal = 1;
origin = (0,74);
target = (0,83);
type = Stem;
}
);
layerId = "B9294602-EB87-4DCD-A39F-D52598F560AD";
shapes = (
{
closed = 1;
nodes = (
(30,19,o),
(49,0,o),
(73,0,cs),
(102,0,ls),
(126,0,o),
(145,19,o),
(145,42,cs),
(145,419,ls),
(145,442,o),
(167,460,o),
(190,460,cs),
(216,460,ls),
(245,460,o),
(260,480,o),
(260,504,cs),
(260,532,ls),
(260,554,o),
(245,575,o),
(217,575,cs),
(190,575,ls),
(169,575,o),
(145,591,o),
(145,619,cs),
(145,646,ls),
(145,670,o),
(166,690,o),
(189,690,cs),
(219,690,ls),
(242,690,o),
(260,668,o),
(260,644,cs),
(260,626,ls),
(260,597,o),
(282,575,o),
(311,575,cs),
(324,575,ls),
(353,575,o),
(375,553,o),
(375,524,cs),
(375,511,ls),
(375,482,o),
(353,460,o),
(324,460,cs),
(311,460,ls),
(282,460,o),
(260,438,o),
(260,409,cs),
(260,166,ls),
(260,137,o),
(282,115,o),
(311,115,cs),
(324,115,ls),
(353,115,o),
(375,93,o),
(375,64,cs),
(375,51,ls),
(375,22,o),
(397,0,o),
(426,0,cs),
(439,0,ls),
(468,0,o),
(490,22,o),
(490,51,cs),
(490,64,ls),
(490,93,o),
(468,115,o),
(439,115,cs),
(426,115,ls),
(397,115,o),
(375,137,o),
(375,166,cs),
(375,409,ls),
(375,438,o),
(397,460,o),
(426,460,cs),
(439,460,ls),
(468,460,o),
(490,481,o),
(490,510,cs),
(490,524,ls),
(490,556,o),
(468,575,o),
(439,575,cs),
(426,575,ls),
(397,575,o),
(375,597,o),
(375,626,cs),
(375,639,ls),
(375,668,o),
(353,690,o),
(324,690,cs),
(311,690,ls),
(282,690,o),
(260,712,o),
(260,741,cs),
(260,754,ls),
(260,783,o),
(238,805,o),
(209,805,cs),
(81,805,ls),
(52,805,o),
(30,783,o),
(30,754,cs),
(30,626,ls),
(30,597,o),
(52,575,o),
(81,575,cs),
(94,575,ls),
(123,575,o),
(145,553,o),
(145,524,cs),
(145,511,ls),
(145,482,o),
(123,460,o),
(94,460,cs),
(81,460,ls),
(52,460,o),
(30,438,o),
(30,409,cs),
(30,42,ls)
);
}
);
width = 520;
},
{
.lastUpdate = 747074928.01;
hints = (
{
horizontal = 1;
origin = (0,59);
target = (0,67);
type = Stem;
},
{
horizontal = 1;
origin = (0,11);
target = (0,19);
type = Stem;
},
{
horizontal = 1;
origin = (0,99);
target = (0,91);
type = Stem;
},
{
origin = (0,119);
target = (0,111);
type = Stem;
},
{
origin = (0,95);
target = (0,87);
type = Stem;
},
{
origin = (0,87);
target = (0,79);
type = Stem;
}
);
layerId = "52F3452F-C0C6-4900-9BFE-1786415B207F";
shapes = (
{
closed = 1;
nodes = (
(30,19,o),
(49,0,o),
(73,0,cs),
(102,0,ls),
(126,0,o),
(145,19,o),
(145,42,cs),
(145,419,ls),
(145,442,o),
(167,460,o),
(190,460,cs),
(1224,460,ls),
(1253,460,o),
(1268,480,o),
(1268,504,cs),
(1268,532,ls),
(1268,554,o),
(1253,575,o),
(1225,575,cs),
(190,575,ls),
(169,575,o),
(145,591,o),
(145,619,cs),
(145,646,ls),
(145,670,o),
(166,690,o),
(189,690,cs),
(1227,690,ls),
(1250,690,o),
(1268,668,o),
(1268,644,cs),
(1268,626,ls),
(1268,597,o),
(1290,575,o),
(1319,575,cs),
(1332,575,ls),
(1361,575,o),
(1383,553,o),
(1383,524,cs),
(1383,511,ls),
(1383,482,o),
(1361,460,o),
(1332,460,cs),
(1319,460,ls),
(1290,460,o),
(1268,438,o),
(1268,409,cs),
(1268,166,ls),
(1268,137,o),
(1290,115,o),
(1319,115,cs),
(1332,115,ls),
(1361,115,o),
(1383,93,o),
(1383,64,cs),
(1383,51,ls),
(1383,22,o),
(1405,0,o),
(1434,0,cs),
(1447,0,ls),
(1476,0,o),
(1498,22,o),
(1498,51,cs),
(1498,64,ls),
(1498,93,o),
(1476,115,o),
(1447,115,cs),
(1434,115,ls),
(1405,115,o),
(1383,137,o),
(1383,166,cs),
(1383,409,ls),
(1383,438,o),
(1405,460,o),
(1434,460,cs),
(1447,460,ls),
(1476,460,o),
(1498,481,o),
(1498,510,cs),
(1498,524,ls),
(1498,556,o),
(1476,575,o),
(1447,575,cs),
(1434,575,ls),
(1405,575,o),
(1383,597,o),
(1383,626,cs),
(1383,639,ls),
(1383,668,o),
(1361,690,o),
(1332,690,cs),
(1319,690,ls),
(1290,690,o),
(1268,712,o),
(1268,741,cs),
(1268,754,ls),
(1268,783,o),
(1246,805,o),
(1217,805,cs),
(81,805,ls),
(52,805,o),
(30,783,o),
(30,754,cs),
(30,626,ls),
(30,597,o),
(52,575,o),
(81,575,cs),
(94,575,ls),
(123,575,o),
(145,553,o),
(145,524,cs),
(145,511,ls),
(145,482,o),
(123,460,o),
(94,460,cs),
(81,460,ls),
(52,460,o),
(30,438,o),
(30,409,cs),
(30,42,ls)
);
}
);
width = 1528;
}
);
}
{
glyphname = i_j.liga;
lastChange = "2024-09-03 16:49:16 +0000";
layers = (
{
.lastUpdate = 747074956.901;
hints = (
{
horizontal = 1;
origin = (0,7);
target = (0,62);
type = Stem;
},
{
horizontal = 1;
origin = (0,55);
target = (0,47);
type = Stem;
},
{
horizontal = 1;
origin = (2,4);
target = (2,12);
type = Stem;
},
{
origin = (0,43);
target = (0,51);
type = Stem;
},
{
origin = (0,59);
target = (0,19);
type = Stem;
}
);
layerId = "B9294602-EB87-4DCD-A39F-D52598F560AD";
shapes = (
{
closed = 1;
nodes = (
(52,0,o),
(30,-22,o),
(30,-51,cs),
(30,-64,ls),
(30,-93,o),
(52,-115,o),
(81,-115,cs),
(209,-115,ls),
(238,-115,o),
(260,-94,o),
(260,-65,cs),
(260,-52,ls),
(260,-23,o),
(282,0,o),
(311,0,cs),
(324,0,ls),
(353,0,o),
(375,22,o),
(375,51,c),
(375,411,l),
(375,440,o),
(353,462,o),
(324,462,cs),
(311,462,ls),
(282,462,o),
(260,440,o),
(260,411,cs),
(260,277,ls),
(260,248,o),
(238,230,o),
(209,230,cs),
(196,230,ls),
(167,230,o),
(145,248,o),
(145,277,cs),
(145,411,ls),
(145,440,o),
(123,462,o),
(94,462,cs),
(81,462,ls),
(52,462,o),
(30,440,o),
(30,411,cs),
(30,281,ls),
(30,252,o),
(52,230,o),
(81,230,cs),
(94,230,ls),
(123,230,o),
(145,208,o),
(145,179,cs),
(145,166,ls),
(145,137,o),
(167,115,o),
(196,115,cs),
(209,115,ls),
(238,115,o),
(260,93,o),
(260,64,cs),
(260,51,ls),
(260,22,o),
(238,0,o),
(209,0,cs),
(81,0,ls)
);
},
{
closed = 1;
nodes = (
(30,626,ls),
(30,597,o),
(52,575,o),
(81,575,cs),
(94,575,ls),
(123,575,o),
(145,597,o),
(145,626,cs),
(145,639,ls),
(145,668,o),
(123,690,o),
(94,690,cs),
(81,690,ls),
(52,690,o),
(30,668,o),
(30,639,cs)
);
},
{
closed = 1;
nodes = (
(260,626,ls),
(260,597,o),
(282,575,o),
(311,575,cs),
(324,575,ls),
(353,575,o),
(375,597,o),
(375,626,cs),
(375,639,ls),
(375,668,o),
(353,690,o),
(324,690,cs),
(311,690,ls),
(282,690,o),
(260,668,o),
(260,639,cs)
);
}
);
width = 405;
},
{
.lastUpdate = 747074956.901;
hints = (
{
horizontal = 1;
origin = (0,63);
target = (0,7);
type = Stem;
},
{
horizontal = 1;
origin = (0,55);
target = (0,47);
type = Stem;
},
{
horizontal = 1;
origin = (2,4);
target = (2,12);
type = Stem;
},
{
origin = (0,43);
target = (0,51);
type = Stem;
},
{
origin = (0,59);
target = (0,19);
type = Stem;
}
);
layerId = "52F3452F-C0C6-4900-9BFE-1786415B207F";
shapes = (
{
closed = 1;
nodes = (
(52,0,o),
(30,-22,o),
(30,-51,cs),
(30,-64,ls),
(30,-93,o),
(52,-115,o),
(81,-115,cs),
(1349,-115,ls),
(1378,-115,o),
(1400,-94,o),
(1400,-65,cs),
(1400,-52,ls),
(1400,-23,o),
(1422,0,o),
(1451,0,cs),
(1464,0,ls),
(1493,0,o),
(1515,22,o),
(1515,51,c),
(1515,411,l),
(1515,440,o),
(1493,462,o),
(1464,462,cs),
(1451,462,ls),
(1422,462,o),
(1400,440,o),
(1400,411,cs),
(1400,277,ls),
(1400,248,o),
(1378,230,o),
(1349,230,cs),
(196,230,ls),
(167,230,o),
(145,248,o),
(145,277,cs),
(145,411,ls),
(145,440,o),
(123,462,o),
(94,462,cs),
(81,462,ls),
(52,462,o),
(30,440,o),
(30,411,cs),
(30,281,ls),
(30,252,o),
(52,230,o),
(81,230,cs),
(94,230,ls),
(123,230,o),
(145,208,o),
(145,179,cs),
(145,166,ls),
(145,137,o),
(167,115,o),
(196,115,cs),
(1349,115,ls),
(1378,115,o),
(1400,93,o),
(1400,64,cs),
(1400,51,ls),
(1400,22,o),
(1378,0,o),
(1349,0,cs),
(81,0,ls)
);
},
{
closed = 1;
nodes = (
(30,626,ls),
(30,597,o),
(52,575,o),
(81,575,cs),
(94,575,ls),
(123,575,o),
(145,597,o),
(145,626,cs),
(145,639,ls),
(145,668,o),
(123,690,o),
(94,690,cs),
(81,690,ls),
(52,690,o),
(30,668,o),
(30,639,cs)
);
},
{
closed = 1;
nodes = (
(1400,626,ls),
(1400,597,o),
(1422,575,o),
(1451,575,cs),
(1464,575,ls),
(1493,575,o),
(1515,597,o),
(1515,626,cs),
(1515,639,ls),
(1515,668,o),
(1493,690,o),
(1464,690,cs),
(1451,690,ls),
(1422,690,o),
(1400,668,o),
(1400,639,cs)
);
}
);
width = 1545;
}
);
}
{
glyphname = r_r.liga;
lastChange = "2024-09-03 16:50:06 +0000";
layers = (
{
.lastUpdate = 747064263.347;
hints = (
{
origin = (0,32);
target = (0,24);
type = Stem;
},
{
origin = (1,38);
target = (1,31);
type = Stem;
},
{
origin = (0,48);
target = (0,40);
type = Stem;
},
{
horizontal = 1;
origin = (0,52);
target = (1,11);
type = Stem;
},
{
origin = (1,22);
target = (1,15);
type = Stem;
}
);
layerId = "B9294602-EB87-4DCD-A39F-D52598F560AD";
shapes = (
{
closed = 1;
nodes = (
(30,524,ls),
(30,553,o),
(52,575,o),
(81,575,cs),
(94,575,ls),
(123,575,o),
(145,553,o),
(145,524,cs),
(145,511,ls),
(145,482,o),
(167,460,o),
(196,460,cs),
(209,460,ls),
(238,460,o),
(260,482,o),
(260,511,cs),
(260,524,ls),
(260,553,o),
(282,575,o),
(311,575,cs),
(439,575,ls),
(468,575,o),
(490,553,o),
(490,524,cs),
(490,396,ls),
(490,367,o),
(468,345,o),
(439,345,cs),
(426,345,ls),
(397,345,o),
(375,367,o),
(375,396,cs),
(375,409,ls),
(375,438,o),
(353,460,o),
(324,460,cs),
(311,460,ls),
(282,460,o),
(260,437,o),
(260,409,cs),
(260,51,ls),
(260,22,o),
(238,0,o),
(209,0,cs),
(196,0,ls),
(167,0,o),
(145,22,o),
(145,51,cs),
(145,409,ls),
(145,437,o),
(123,460,o),
(94,460,cs),
(81,460,ls),
(52,460,o),
(30,482,o),
(30,511,cs)
);
},
{
closed = 1;
nodes = (
(565,437,o),
(587,460,o),
(616,460,cs),
(629,460,ls),
(658,460,o),
(680,482,o),
(680,511,cs),
(680,524,ls),
(680,553,o),
(702,575,o),
(731,575,cs),
(859,575,ls),
(888,575,o),
(910,553,o),
(910,524,cs),
(910,396,ls),
(910,367,o),
(888,345,o),
(859,345,cs),
(846,345,ls),
(817,345,o),
(795,367,o),
(795,396,cs),
(795,409,ls),
(795,438,o),
(773,460,o),
(744,460,cs),
(731,460,ls),
(702,460,o),
(680,437,o),
(680,409,cs),
(680,51,ls),
(680,22,o),
(658,0,o),
(629,0,cs),
(616,0,ls),
(587,0,o),
(565,22,o),
(565,51,cs),
(565,409,ls)
);
}
);
width = 940;
},
{
.lastUpdate = 747075006.677;
hints = (
{
origin = (0,48);
target = (0,40);
type = Stem;
},
{
origin = (1,38);
target = (1,30);
type = Stem;
},
{
horizontal = 1;
origin = (0,35);
target = (0,19);
type = Stem;
},
{
horizontal = 1;
origin = (1,26);
target = (1,10);
type = Stem;
},
{
origin = (0,31);
target = (0,23);
type = Stem;
},
{
origin = (1,22);
target = (1,14);
type = Stem;
}
);
layerId = "52F3452F-C0C6-4900-9BFE-1786415B207F";
shapes = (
{
closed = 1;
nodes = (
(30,524,ls),
(30,553,o),
(52,575,o),
(81,575,cs),
(94,575,ls),
(123,575,o),
(145,553,o),
(145,524,cs),
(145,511,ls),
(145,482,o),
(167,460,o),
(196,460,cs),
(209,460,ls),
(238,460,o),
(260,482,o),
(260,511,cs),
(260,524,ls),
(260,553,o),
(282,575,o),
(311,575,cs),
(689,575,ls),
(718,575,o),
(740,553,o),
(740,524,cs),
(740,396,ls),
(740,367,o),
(718,345,o),
(689,345,cs),
(676,345,ls),
(647,345,o),
(625,367,o),
(625,396,cs),
(625,409,ls),
(625,438,o),
(603,460,o),
(574,460,cs),
(311,460,ls),
(282,460,o),
(260,437,o),
(260,409,cs),
(260,51,ls),
(260,22,o),
(238,0,o),
(209,0,cs),
(196,0,ls),
(167,0,o),
(145,22,o),
(145,51,cs),
(145,409,ls),
(145,437,o),
(123,460,o),
(94,460,cs),
(81,460,ls),
(52,460,o),
(30,482,o),
(30,511,cs)
);
},
{
closed = 1;
nodes = (
(815,437,o),
(837,460,o),
(866,460,cs),
(879,460,ls),
(908,460,o),
(930,482,o),
(930,511,cs),
(930,524,ls),
(930,553,o),
(952,575,o),
(981,575,cs),
(1447,575,ls),
(1476,575,o),
(1498,553,o),
(1498,524,cs),
(1498,396,ls),
(1498,367,o),
(1476,345,o),
(1447,345,cs),
(1434,345,ls),
(1405,345,o),
(1383,367,o),
(1383,396,cs),
(1383,409,ls),
(1383,438,o),
(1361,460,o),
(1332,460,cs),
(981,460,ls),
(952,460,o),
(930,437,o),
(930,409,cs),
(930,51,ls),
(930,22,o),
(908,0,o),
(879,0,cs),
(866,0,ls),
(837,0,o),
(815,22,o),
(815,51,cs),
(815,409,ls)
);
}
);
width = 1528;
}
);
}
{
glyphname = t_t.liga;
lastChange = "2024-09-03 16:50:19 +0000";
layers = (
{
.lastUpdate = 747065883.551;
hints = (
{
horizontal = 1;
origin = (1,11);
target = (1,19);
type = Stem;
},
{
horizontal = 1;
origin = (1,51);
target = (1,43);
type = Stem;
},
{
horizontal = 1;
origin = (0,27);
target = (0,34);
type = Stem;
},
{
origin = (0,63);
target = (0,55);
type = Stem;
},
{
origin = (1,63);
target = (1,55);
type = Stem;
},
{
horizontal = 1;
origin = (1,27);
target = (1,34);
type = Stem;
},
{
horizontal = 1;
origin = (0,10);
target = (0,19);
type = Stem;
}
);
layerId = "B9294602-EB87-4DCD-A39F-D52598F560AD";
shapes = (
{
closed = 1;
nodes = (
(30,137,o),
(52,115,o),
(81,115,cs),
(94,115,ls),
(123,115,o),
(145,93,o),
(145,64,cs),
(145,51,ls),
(145,22,o),
(167,0,o),
(196,0,cs),
(209,0,ls),
(238,0,o),
(260,22,o),
(260,51,cs),
(260,64,ls),
(260,93,o),
(238,115,o),
(209,115,cs),
(196,115,ls),
(167,115,o),
(145,137,o),
(145,166,cs),
(145,409,ls),
(145,438,o),
(167,460,o),
(196,460,cs),
(209,460,ls),
(238,460,o),
(260,482,o),
(260,511,cs),
(260,524,ls),
(260,553,o),
(238,575,o),
(209,575,cs),
(196,575,ls),
(167,575,o),
(145,597,o),
(145,626,cs),
(145,639,ls),
(145,668,o),
(123,690,o),
(94,690,cs),
(81,690,ls),
(52,690,o),
(30,668,o),
(30,639,cs),
(30,626,ls),
(30,597,o),
(52,575,o),
(81,575,cs),
(94,575,ls),
(123,575,o),
(145,553,o),
(145,524,cs),
(145,511,ls),
(145,482,o),
(123,460,o),
(94,460,cs),
(81,460,ls),
(52,460,o),
(30,438,o),
(30,409,cs),
(30,166,ls)
);
},
{
closed = 1;
nodes = (
(297,137,o),
(319,115,o),
(348,115,cs),
(361,115,ls),
(390,115,o),
(412,93,o),
(412,64,cs),
(412,51,ls),
(412,22,o),
(434,0,o),
(463,0,cs),
(591,0,ls),
(620,0,o),
(642,22,o),
(642,51,cs),
(642,64,ls),
(642,93,o),
(620,115,o),
(591,115,cs),
(463,115,ls),
(434,115,o),
(412,137,o),
(412,166,cs),
(412,409,ls),
(412,438,o),
(434,460,o),
(463,460,cs),
(476,460,ls),
(505,460,o),
(527,482,o),
(527,511,cs),
(527,524,ls),
(527,553,o),
(505,575,o),
(476,575,cs),
(463,575,ls),
(434,575,o),
(412,597,o),
(412,626,cs),
(412,639,ls),
(412,668,o),
(390,690,o),
(361,690,cs),
(348,690,ls),
(319,690,o),
(297,668,o),
(297,639,cs),
(297,626,ls),
(297,597,o),
(319,575,o),
(348,575,cs),
(361,575,ls),
(390,575,o),
(412,553,o),
(412,524,cs),
(412,511,ls),
(412,482,o),
(390,460,o),
(361,460,cs),
(348,460,ls),
(319,460,o),
(297,438,o),
(297,409,cs),
(297,166,ls)
);
}
);
width = 672;
},
{
.lastUpdate = 747075019.576;
hints = (
{
horizontal = 1;
origin = (1,11);
target = (1,19);
type = Stem;
},
{
horizontal = 1;
origin = (1,26);
target = (1,34);
type = Stem;
},
{
horizontal = 1;
origin = (1,51);
target = (1,43);
type = Stem;
},
{
origin = (0,63);
target = (0,55);
type = Stem;
},
{
origin = (1,63);
target = (1,55);
type = Stem;
},
{
origin = (0,55);
target = (0,31);
type = Stem;
}
);
layerId = "52F3452F-C0C6-4900-9BFE-1786415B207F";
shapes = (
{
closed = 1;
nodes = (
(30,137,o),
(52,115,o),
(81,115,cs),
(94,115,ls),
(123,115,o),
(145,93,o),
(145,64,cs),
(145,51,ls),
(145,22,o),
(167,0,o),
(196,0,cs),
(209,0,ls),
(238,0,o),
(260,22,o),
(260,51,cs),
(260,64,ls),
(260,93,o),
(238,115,o),
(209,115,cs),
(196,115,ls),
(167,115,o),
(145,137,o),
(145,166,cs),
(145,409,ls),
(145,438,o),
(167,460,o),
(196,460,cs),
(209,460,ls),
(238,460,o),
(260,482,o),
(260,511,cs),
(260,524,ls),
(260,553,o),
(238,575,o),
(209,575,cs),
(196,575,ls),
(167,575,o),
(145,597,o),
(145,626,cs),
(145,639,ls),
(145,668,o),
(123,690,o),
(94,690,cs),
(81,690,ls),
(52,690,o),
(30,668,o),
(30,639,cs),
(30,626,ls),
(30,597,o),
(52,575,o),
(81,575,cs),
(94,575,ls),
(123,575,o),
(145,553,o),
(145,524,cs),
(145,511,ls),
(145,482,o),
(123,460,o),
(94,460,cs),
(81,460,ls),
(52,460,o),
(30,438,o),
(30,409,cs),
(30,166,ls)
);
},
{
closed = 1;
nodes = (
(297,137,o),
(319,115,o),
(348,115,cs),
(361,115,ls),
(390,115,o),
(412,93,o),
(412,64,cs),
(412,51,ls),
(412,22,o),
(434,0,o),
(463,0,cs),
(1447,0,ls),
(1476,0,o),
(1498,22,o),
(1498,51,cs),
(1498,64,ls),
(1498,93,o),
(1476,115,o),
(1447,115,cs),
(463,115,ls),
(434,115,o),
(412,137,o),
(412,166,cs),
(412,409,ls),
(412,438,o),
(434,460,o),
(463,460,cs),
(1332,460,ls),
(1361,460,o),
(1383,482,o),
(1383,511,cs),
(1383,524,ls),
(1383,553,o),
(1361,575,o),
(1332,575,cs),
(463,575,ls),
(434,575,o),
(412,597,o),
(412,626,cs),
(412,639,ls),
(412,668,o),
(390,690,o),
(361,690,cs),
(348,690,ls),
(319,690,o),
(297,668,o),
(297,639,cs),
(297,626,ls),
(297,597,o),
(319,575,o),
(348,575,cs),
(361,575,ls),
(390,575,o),
(412,553,o),
(412,524,cs),
(412,511,ls),
(412,482,o),
(390,460,o),
(361,460,cs),
(348,460,ls),
(319,460,o),
(297,438,o),
(297,409,cs),
(297,166,ls)
);
}
);
width = 1528;
}
);
}
